<ttFont>
<head>
    <!-- Most of this table will be recalculated by the compiler -->
    <tableVersion value="1.0"/>
    <fontRevision value="1.002"/>
    <checkSumAdjustment value="0xa5e581b8"/>
    <magicNumber value="0x5f0f3cf5"/>
    <flags value="00000000 00000011"/>
    <unitsPerEm value="1000"/>
    <created value="Sun Jan 10 02:33:42 2016"/>
    <modified value="Sun Jan 10 02:33:44 2016"/>
    <xMin value="-144"/>
    <yMin value="-350"/>
    <xMax value="1012"/>
    <yMax value="1131"/>
    <macStyle value="00000000 00000010"/>
    <lowestRecPPEM value="6"/>
    <fontDirectionHint value="2"/>
    <indexToLocFormat value="0"/>
    <glyphDataFormat value="0"/>
  </head>
    <TTGlyph name=".notdef" xMin="0" yMin="-200" xMax="500" yMax="800">
      <contour>
        <pt x="0" y="-200" on="1"/>
        <pt x="0" y="800" on="1"/>
        <pt x="500" y="800" on="1"/>
        <pt x="500" y="-200" on="1"/>
      </contour>
      <contour>
        <pt x="71" y="750" on="1"/>
        <pt x="250" y="360" on="1"/>
        <pt x="429" y="750" on="1"/>
      </contour>
      <contour>
        <pt x="450" y="676" on="1"/>
        <pt x="278" y="300" on="1"/>
        <pt x="450" y="-76" on="1"/>
      </contour>
      <contour>
        <pt x="50" y="-76" on="1"/>
        <pt x="222" y="300" on="1"/>
        <pt x="50" y="676" on="1"/>
      </contour>
      <contour>
        <pt x="250" y="240" on="1"/>
        <pt x="71" y="-150" on="1"/>
        <pt x="429" y="-150" on="1"/>
      </contour>
    </TTGlyph>
    <TTGlyph name="A" xMin="-13" yMin="-5" xMax="524" yMax="620">
      <contour>
        <pt x="409" y="-5" on="1"/>
        <pt x="405" y="40" on="0"/>
        <pt x="398" y="130" on="0"/>
        <pt x="394" y="175" on="1"/>
        <pt x="186" y="175" on="1"/>
        <pt x="165" y="132" on="0"/>
        <pt x="123" y="43" on="0"/>
        <pt x="103" y="0" on="1"/>
        <pt x="-13" y="0" on="1"/>
        <pt x="60" y="154" on="0"/>
        <pt x="215" y="466" on="0"/>
        <pt x="296" y="620" on="1"/>
        <pt x="453" y="620" on="1"/>
        <pt x="474" y="466" on="0"/>
        <pt x="509" y="159" on="0"/>
        <pt x="524" y="5" on="1"/>
      </contour>
      <contour>
        <pt x="353" y="515" on="1"/>
        <pt x="322" y="452" on="0"/>
        <pt x="259" y="325" on="0"/>
        <pt x="228" y="262" on="1"/>
        <pt x="385" y="262" on="1"/>
        <pt x="379" y="325" on="0"/>
        <pt x="366" y="452" on="0"/>
        <pt x="359" y="515" on="1"/>
      </contour>
    </TTGlyph>
    <TTGlyph name="A.sc" xMin="-14" yMin="-4" xMax="479" yMax="530">
      <contour>
        <pt x="364" y="-4" on="1"/>
        <pt x="361" y="32" on="0"/>
        <pt x="355" y="104" on="0"/>
        <pt x="352" y="141" on="1"/>
        <pt x="169" y="141" on="1"/>
        <pt x="152" y="106" on="0"/>
        <pt x="118" y="35" on="0"/>
        <pt x="102" y="0" on="1"/>
        <pt x="-14" y="0" on="1"/>
        <pt x="49" y="131" on="0"/>
        <pt x="185" y="399" on="0"/>
        <pt x="256" y="530" on="1"/>
        <pt x="413" y="530" on="1"/>
        <pt x="432" y="399" on="0"/>
        <pt x="465" y="136" on="0"/>
        <pt x="479" y="4" on="1"/>
      </contour>
      <contour>
        <pt x="314" y="434" on="1"/>
        <pt x="288" y="382" on="0"/>
        <pt x="234" y="275" on="0"/>
        <pt x="208" y="222" on="1"/>
        <pt x="343" y="222" on="1"/>
        <pt x="338" y="275" on="0"/>
        <pt x="326" y="382" on="0"/>
        <pt x="320" y="434" on="1"/>
      </contour>
    </TTGlyph>
    <TTGlyph name="AE" xMin="-30" yMin="0" xMax="866" yMax="620">
      <contour>
        <pt x="481" y="518" on="1"/>
        <pt x="434" y="455" on="0"/>
        <pt x="338" y="325" on="0"/>
        <pt x="291" y="262" on="1"/>
        <pt x="438" y="262" on="1"/>
        <pt x="488" y="518" on="1"/>
      </contour>
      <contour>
        <pt x="387" y="0" on="1"/>
        <pt x="421" y="175" on="1"/>
        <pt x="226" y="175" on="1"/>
        <pt x="194" y="131" on="0"/>
        <pt x="130" y="43" on="0"/>
        <pt x="99" y="0" on="1"/>
        <pt x="-30" y="0" on="1"/>
        <pt x="83" y="154" on="0"/>
        <pt x="318" y="466" on="0"/>
        <pt x="437" y="620" on="1"/>
        <pt x="866" y="620" on="1"/>
        <pt x="846" y="518" on="1"/>
        <pt x="603" y="518" on="1"/>
        <pt x="571" y="355" on="1"/>
        <pt x="780" y="355" on="1"/>
        <pt x="762" y="267" on="1"/>
        <pt x="554" y="267" on="1"/>
        <pt x="522" y="102" on="1"/>
        <pt x="771" y="102" on="1"/>
        <pt x="741" y="0" on="1"/>
      </contour>
    </TTGlyph>
    <TTGlyph name="AE.sc" xMin="-37" yMin="0" xMax="781" yMax="530">
      <contour>
        <pt x="417" y="437" on="1"/>
        <pt x="376" y="384" on="0"/>
        <pt x="294" y="276" on="0"/>
        <pt x="254" y="222" on="1"/>
        <pt x="384" y="222" on="1"/>
        <pt x="426" y="437" on="1"/>
      </contour>
      <contour>
        <pt x="341" y="0" on="1"/>
        <pt x="368" y="141" on="1"/>
        <pt x="193" y="141" on="1"/>
        <pt x="168" y="106" on="0"/>
        <pt x="116" y="35" on="0"/>
        <pt x="91" y="0" on="1"/>
        <pt x="-37" y="0" on="1"/>
        <pt x="59" y="131" on="0"/>
        <pt x="262" y="399" on="0"/>
        <pt x="369" y="530" on="1"/>
        <pt x="781" y="530" on="1"/>
        <pt x="763" y="437" on="1"/>
        <pt x="540" y="437" on="1"/>
        <pt x="514" y="305" on="1"/>
        <pt x="705" y="305" on="1"/>
        <pt x="689" y="226" on="1"/>
        <pt x="499" y="226" on="1"/>
        <pt x="474" y="93" on="1"/>
        <pt x="702" y="93" on="1"/>
        <pt x="674" y="0" on="1"/>
      </contour>
    </TTGlyph>
    <TTGlyph name="AEacute" xMin="-30" yMin="0" xMax="866" yMax="899">
      <contour>
        <pt x="503" y="734" on="1"/>
        <pt x="522" y="745" on="0"/>
        <pt x="579" y="784" on="0"/>
        <pt x="639" y="830" on="0"/>
        <pt x="697" y="878" on="0"/>
        <pt x="719" y="899" on="1"/>
        <pt x="794" y="805" on="1"/>
        <pt x="769" y="787" on="0"/>
        <pt x="696" y="749" on="0"/>
        <pt x="620" y="715" on="0"/>
        <pt x="548" y="689" on="0"/>
        <pt x="524" y="682" on="1"/>
      </contour>
      <contour>
        <pt x="481" y="518" on="1"/>
        <pt x="434" y="455" on="0"/>
        <pt x="338" y="325" on="0"/>
        <pt x="291" y="262" on="1"/>
        <pt x="438" y="262" on="1"/>
        <pt x="488" y="518" on="1"/>
      </contour>
      <contour>
        <pt x="387" y="0" on="1"/>
        <pt x="421" y="175" on="1"/>
        <pt x="226" y="175" on="1"/>
        <pt x="194" y="131" on="0"/>
        <pt x="130" y="43" on="0"/>
        <pt x="99" y="0" on="1"/>
        <pt x="-30" y="0" on="1"/>
        <pt x="83" y="154" on="0"/>
        <pt x="318" y="466" on="0"/>
        <pt x="437" y="620" on="1"/>
        <pt x="866" y="620" on="1"/>
        <pt x="846" y="518" on="1"/>
        <pt x="603" y="518" on="1"/>
        <pt x="571" y="355" on="1"/>
        <pt x="780" y="355" on="1"/>
        <pt x="762" y="267" on="1"/>
        <pt x="554" y="267" on="1"/>
        <pt x="522" y="102" on="1"/>
        <pt x="771" y="102" on="1"/>
        <pt x="741" y="0" on="1"/>
      </contour>
    </TTGlyph>
    <TTGlyph name="AEacute.sc" xMin="-37" yMin="0" xMax="781" yMax="809">
      <contour>
        <pt x="389" y="644" on="1"/>
        <pt x="408" y="655" on="0"/>
        <pt x="465" y="694" on="0"/>
        <pt x="525" y="740" on="0"/>
        <pt x="583" y="788" on="0"/>
        <pt x="605" y="809" on="1"/>
        <pt x="680" y="715" on="1"/>
        <pt x="655" y="697" on="0"/>
        <pt x="582" y="659" on="0"/>
        <pt x="506" y="625" on="0"/>
        <pt x="434" y="599" on="0"/>
        <pt x="410" y="592" on="1"/>
      </contour>
      <contour>
        <pt x="417" y="437" on="1"/>
        <pt x="376" y="384" on="0"/>
        <pt x="294" y="276" on="0"/>
        <pt x="254" y="222" on="1"/>
        <pt x="384" y="222" on="1"/>
        <pt x="426" y="437" on="1"/>
      </contour>
      <contour>
        <pt x="341" y="0" on="1"/>
        <pt x="368" y="141" on="1"/>
        <pt x="193" y="141" on="1"/>
        <pt x="168" y="106" on="0"/>
        <pt x="116" y="35" on="0"/>
        <pt x="91" y="0" on="1"/>
        <pt x="-37" y="0" on="1"/>
        <pt x="59" y="131" on="0"/>
        <pt x="262" y="399" on="0"/>
        <pt x="369" y="530" on="1"/>
        <pt x="781" y="530" on="1"/>
        <pt x="763" y="437" on="1"/>
        <pt x="540" y="437" on="1"/>
        <pt x="514" y="305" on="1"/>
        <pt x="705" y="305" on="1"/>
        <pt x="689" y="226" on="1"/>
        <pt x="499" y="226" on="1"/>
        <pt x="474" y="93" on="1"/>
        <pt x="702" y="93" on="1"/>
        <pt x="674" y="0" on="1"/>
      </contour>
    </TTGlyph>
    <TTGlyph name="Aacute" xMin="-13" yMin="-5" xMax="574" yMax="899">
      <contour>
        <pt x="283" y="734" on="1"/>
        <pt x="302" y="745" on="0"/>
        <pt x="359" y="784" on="0"/>
        <pt x="419" y="830" on="0"/>
        <pt x="477" y="878" on="0"/>
        <pt x="499" y="899" on="1"/>
        <pt x="574" y="805" on="1"/>
        <pt x="549" y="787" on="0"/>
        <pt x="476" y="749" on="0"/>
        <pt x="400" y="715" on="0"/>
        <pt x="328" y="689" on="0"/>
        <pt x="304" y="682" on="1"/>
      </contour>
      <contour>
        <pt x="409" y="-5" on="1"/>
        <pt x="405" y="40" on="0"/>
        <pt x="398" y="130" on="0"/>
        <pt x="394" y="175" on="1"/>
        <pt x="186" y="175" on="1"/>
        <pt x="165" y="132" on="0"/>
        <pt x="123" y="43" on="0"/>
        <pt x="103" y="0" on="1"/>
        <pt x="-13" y="0" on="1"/>
        <pt x="60" y="154" on="0"/>
        <pt x="215" y="466" on="0"/>
        <pt x="296" y="620" on="1"/>
        <pt x="453" y="620" on="1"/>
        <pt x="474" y="466" on="0"/>
        <pt x="509" y="159" on="0"/>
        <pt x="524" y="5" on="1"/>
      </contour>
      <contour>
        <pt x="353" y="515" on="1"/>
        <pt x="322" y="452" on="0"/>
        <pt x="259" y="325" on="0"/>
        <pt x="228" y="262" on="1"/>
        <pt x="385" y="262" on="1"/>
        <pt x="379" y="325" on="0"/>
        <pt x="366" y="452" on="0"/>
        <pt x="359" y="515" on="1"/>
      </contour>
    </TTGlyph>
    <TTGlyph name="Aacute.sc" xMin="-14" yMin="-4" xMax="531" yMax="809">
      <contour>
        <pt x="240" y="644" on="1"/>
        <pt x="259" y="655" on="0"/>
        <pt x="316" y="694" on="0"/>
        <pt x="376" y="740" on="0"/>
        <pt x="434" y="788" on="0"/>
        <pt x="456" y="809" on="1"/>
        <pt x="531" y="715" on="1"/>
        <pt x="506" y="697" on="0"/>
        <pt x="433" y="659" on="0"/>
        <pt x="357" y="625" on="0"/>
        <pt x="285" y="599" on="0"/>
        <pt x="261" y="592" on="1"/>
      </contour>
      <contour>
        <pt x="364" y="-4" on="1"/>
        <pt x="361" y="32" on="0"/>
        <pt x="355" y="104" on="0"/>
        <pt x="352" y="141" on="1"/>
        <pt x="169" y="141" on="1"/>
        <pt x="152" y="106" on="0"/>
        <pt x="118" y="35" on="0"/>
        <pt x="102" y="0" on="1"/>
        <pt x="-14" y="0" on="1"/>
        <pt x="49" y="131" on="0"/>
        <pt x="185" y="399" on="0"/>
        <pt x="256" y="530" on="1"/>
        <pt x="413" y="530" on="1"/>
        <pt x="432" y="399" on="0"/>
        <pt x="465" y="136" on="0"/>
        <pt x="479" y="4" on="1"/>
      </contour>
      <contour>
        <pt x="314" y="434" on="1"/>
        <pt x="288" y="382" on="0"/>
        <pt x="234" y="275" on="0"/>
        <pt x="208" y="222" on="1"/>
        <pt x="343" y="222" on="1"/>
        <pt x="338" y="275" on="0"/>
        <pt x="326" y="382" on="0"/>
        <pt x="320" y="434" on="1"/>
      </contour>
    </TTGlyph>
    <TTGlyph name="Abreve" xMin="-13" yMin="-5" xMax="603" yMax="881">
      <contour>
        <pt x="537" y="872" on="1"/>
        <pt x="603" y="831" on="1"/>
        <pt x="549" y="759" on="0"/>
        <pt x="437" y="684" on="0"/>
        <pt x="387" y="684" on="1"/>
        <pt x="338" y="684" on="0"/>
        <pt x="255" y="756" on="0"/>
        <pt x="230" y="829" on="1"/>
        <pt x="317" y="881" on="1"/>
        <pt x="338" y="827" on="0"/>
        <pt x="383" y="779" on="0"/>
        <pt x="414" y="779" on="1"/>
        <pt x="443" y="779" on="0"/>
        <pt x="501" y="828" on="0"/>
      </contour>
      <contour>
        <pt x="409" y="-5" on="1"/>
        <pt x="405" y="40" on="0"/>
        <pt x="398" y="130" on="0"/>
        <pt x="394" y="175" on="1"/>
        <pt x="186" y="175" on="1"/>
        <pt x="165" y="132" on="0"/>
        <pt x="123" y="43" on="0"/>
        <pt x="103" y="0" on="1"/>
        <pt x="-13" y="0" on="1"/>
        <pt x="60" y="154" on="0"/>
        <pt x="215" y="466" on="0"/>
        <pt x="296" y="620" on="1"/>
        <pt x="453" y="620" on="1"/>
        <pt x="474" y="466" on="0"/>
        <pt x="509" y="159" on="0"/>
        <pt x="524" y="5" on="1"/>
      </contour>
      <contour>
        <pt x="353" y="515" on="1"/>
        <pt x="322" y="452" on="0"/>
        <pt x="259" y="325" on="0"/>
        <pt x="228" y="262" on="1"/>
        <pt x="385" y="262" on="1"/>
        <pt x="379" y="325" on="0"/>
        <pt x="366" y="452" on="0"/>
        <pt x="359" y="515" on="1"/>
      </contour>
    </TTGlyph>
    <TTGlyph name="Abreve.sc" xMin="-14" yMin="-4" xMax="561" yMax="791">
      <contour>
        <pt x="495" y="782" on="1"/>
        <pt x="561" y="741" on="1"/>
        <pt x="507" y="669" on="0"/>
        <pt x="395" y="594" on="0"/>
        <pt x="345" y="594" on="1"/>
        <pt x="296" y="594" on="0"/>
        <pt x="213" y="666" on="0"/>
        <pt x="188" y="739" on="1"/>
        <pt x="275" y="791" on="1"/>
        <pt x="296" y="737" on="0"/>
        <pt x="341" y="689" on="0"/>
        <pt x="372" y="689" on="1"/>
        <pt x="401" y="689" on="0"/>
        <pt x="459" y="738" on="0"/>
      </contour>
      <contour>
        <pt x="364" y="-4" on="1"/>
        <pt x="361" y="32" on="0"/>
        <pt x="355" y="104" on="0"/>
        <pt x="352" y="141" on="1"/>
        <pt x="169" y="141" on="1"/>
        <pt x="152" y="106" on="0"/>
        <pt x="118" y="35" on="0"/>
        <pt x="102" y="0" on="1"/>
        <pt x="-14" y="0" on="1"/>
        <pt x="49" y="131" on="0"/>
        <pt x="185" y="399" on="0"/>
        <pt x="256" y="530" on="1"/>
        <pt x="413" y="530" on="1"/>
        <pt x="432" y="399" on="0"/>
        <pt x="465" y="136" on="0"/>
        <pt x="479" y="4" on="1"/>
      </contour>
      <contour>
        <pt x="314" y="434" on="1"/>
        <pt x="288" y="382" on="0"/>
        <pt x="234" y="275" on="0"/>
        <pt x="208" y="222" on="1"/>
        <pt x="343" y="222" on="1"/>
        <pt x="338" y="275" on="0"/>
        <pt x="326" y="382" on="0"/>
        <pt x="320" y="434" on="1"/>
      </contour>
    </TTGlyph>
    <TTGlyph name="Acircumflex" xMin="-13" yMin="-5" xMax="571" yMax="890">
      <contour>
        <pt x="490" y="678" on="1"/>
        <pt x="405" y="775" on="1"/>
        <pt x="274" y="682" on="1"/>
        <pt x="223" y="742" on="1"/>
        <pt x="429" y="890" on="1"/>
        <pt x="571" y="743" on="1"/>
      </contour>
      <contour>
        <pt x="409" y="-5" on="1"/>
        <pt x="405" y="40" on="0"/>
        <pt x="398" y="130" on="0"/>
        <pt x="394" y="175" on="1"/>
        <pt x="186" y="175" on="1"/>
        <pt x="165" y="132" on="0"/>
        <pt x="123" y="43" on="0"/>
        <pt x="103" y="0" on="1"/>
        <pt x="-13" y="0" on="1"/>
        <pt x="60" y="154" on="0"/>
        <pt x="215" y="466" on="0"/>
        <pt x="296" y="620" on="1"/>
        <pt x="453" y="620" on="1"/>
        <pt x="474" y="466" on="0"/>
        <pt x="509" y="159" on="0"/>
        <pt x="524" y="5" on="1"/>
      </contour>
      <contour>
        <pt x="353" y="515" on="1"/>
        <pt x="322" y="452" on="0"/>
        <pt x="259" y="325" on="0"/>
        <pt x="228" y="262" on="1"/>
        <pt x="385" y="262" on="1"/>
        <pt x="379" y="325" on="0"/>
        <pt x="366" y="452" on="0"/>
        <pt x="359" y="515" on="1"/>
      </contour>
    </TTGlyph>
    <TTGlyph name="Acircumflex.sc" xMin="-14" yMin="-4" xMax="528" yMax="800">
      <contour>
        <pt x="447" y="588" on="1"/>
        <pt x="362" y="685" on="1"/>
        <pt x="231" y="592" on="1"/>
        <pt x="180" y="652" on="1"/>
        <pt x="386" y="800" on="1"/>
        <pt x="528" y="653" on="1"/>
      </contour>
      <contour>
        <pt x="364" y="-4" on="1"/>
        <pt x="361" y="32" on="0"/>
        <pt x="355" y="104" on="0"/>
        <pt x="352" y="141" on="1"/>
        <pt x="169" y="141" on="1"/>
        <pt x="152" y="106" on="0"/>
        <pt x="118" y="35" on="0"/>
        <pt x="102" y="0" on="1"/>
        <pt x="-14" y="0" on="1"/>
        <pt x="49" y="131" on="0"/>
        <pt x="185" y="399" on="0"/>
        <pt x="256" y="530" on="1"/>
        <pt x="413" y="530" on="1"/>
        <pt x="432" y="399" on="0"/>
        <pt x="465" y="136" on="0"/>
        <pt x="479" y="4" on="1"/>
      </contour>
      <contour>
        <pt x="314" y="434" on="1"/>
        <pt x="288" y="382" on="0"/>
        <pt x="234" y="275" on="0"/>
        <pt x="208" y="222" on="1"/>
        <pt x="343" y="222" on="1"/>
        <pt x="338" y="275" on="0"/>
        <pt x="326" y="382" on="0"/>
        <pt x="320" y="434" on="1"/>
      </contour>
    </TTGlyph>
    <TTGlyph name="Adieresis" xMin="-13" yMin="-5" xMax="588" yMax="833">
      <contour>
        <pt x="545" y="702" on="1"/>
        <pt x="420" y="700" on="1"/>
        <pt x="452" y="830" on="1"/>
        <pt x="588" y="833" on="1"/>
      </contour>
      <contour>
        <pt x="345" y="701" on="1"/>
        <pt x="219" y="698" on="1"/>
        <pt x="252" y="829" on="1"/>
        <pt x="387" y="831" on="1"/>
      </contour>
      <contour>
        <pt x="409" y="-5" on="1"/>
        <pt x="405" y="40" on="0"/>
        <pt x="398" y="130" on="0"/>
        <pt x="394" y="175" on="1"/>
        <pt x="186" y="175" on="1"/>
        <pt x="165" y="132" on="0"/>
        <pt x="123" y="43" on="0"/>
        <pt x="103" y="0" on="1"/>
        <pt x="-13" y="0" on="1"/>
        <pt x="60" y="154" on="0"/>
        <pt x="215" y="466" on="0"/>
        <pt x="296" y="620" on="1"/>
        <pt x="453" y="620" on="1"/>
        <pt x="474" y="466" on="0"/>
        <pt x="509" y="159" on="0"/>
        <pt x="524" y="5" on="1"/>
      </contour>
      <contour>
        <pt x="353" y="515" on="1"/>
        <pt x="322" y="452" on="0"/>
        <pt x="259" y="325" on="0"/>
        <pt x="228" y="262" on="1"/>
        <pt x="385" y="262" on="1"/>
        <pt x="379" y="325" on="0"/>
        <pt x="366" y="452" on="0"/>
        <pt x="359" y="515" on="1"/>
      </contour>
    </TTGlyph>
    <TTGlyph name="Adieresis.sc" xMin="-14" yMin="-4" xMax="545" yMax="743">
      <contour>
        <pt x="502" y="612" on="1"/>
        <pt x="377" y="610" on="1"/>
        <pt x="409" y="740" on="1"/>
        <pt x="545" y="743" on="1"/>
      </contour>
      <contour>
        <pt x="302" y="611" on="1"/>
        <pt x="176" y="608" on="1"/>
        <pt x="209" y="739" on="1"/>
        <pt x="344" y="741" on="1"/>
      </contour>
      <contour>
        <pt x="364" y="-4" on="1"/>
        <pt x="361" y="32" on="0"/>
        <pt x="355" y="104" on="0"/>
        <pt x="352" y="141" on="1"/>
        <pt x="169" y="141" on="1"/>
        <pt x="152" y="106" on="0"/>
        <pt x="118" y="35" on="0"/>
        <pt x="102" y="0" on="1"/>
        <pt x="-14" y="0" on="1"/>
        <pt x="49" y="131" on="0"/>
        <pt x="185" y="399" on="0"/>
        <pt x="256" y="530" on="1"/>
        <pt x="413" y="530" on="1"/>
        <pt x="432" y="399" on="0"/>
        <pt x="465" y="136" on="0"/>
        <pt x="479" y="4" on="1"/>
      </contour>
      <contour>
        <pt x="314" y="434" on="1"/>
        <pt x="288" y="382" on="0"/>
        <pt x="234" y="275" on="0"/>
        <pt x="208" y="222" on="1"/>
        <pt x="343" y="222" on="1"/>
        <pt x="338" y="275" on="0"/>
        <pt x="326" y="382" on="0"/>
        <pt x="320" y="434" on="1"/>
      </contour>
    </TTGlyph>
    <TTGlyph name="Agrave" xMin="-13" yMin="-5" xMax="524" yMax="902">
      <contour>
        <pt x="488" y="728" on="1"/>
        <pt x="462" y="678" on="1"/>
        <pt x="439" y="687" on="0"/>
        <pt x="375" y="717" on="0"/>
        <pt x="307" y="753" on="0"/>
        <pt x="242" y="791" on="0"/>
        <pt x="218" y="806" on="1"/>
        <pt x="287" y="902" on="1"/>
        <pt x="309" y="881" on="0"/>
        <pt x="363" y="831" on="0"/>
        <pt x="417" y="784" on="0"/>
        <pt x="469" y="742" on="0"/>
      </contour>
      <contour>
        <pt x="409" y="-5" on="1"/>
        <pt x="405" y="40" on="0"/>
        <pt x="398" y="130" on="0"/>
        <pt x="394" y="175" on="1"/>
        <pt x="186" y="175" on="1"/>
        <pt x="165" y="132" on="0"/>
        <pt x="123" y="43" on="0"/>
        <pt x="103" y="0" on="1"/>
        <pt x="-13" y="0" on="1"/>
        <pt x="60" y="154" on="0"/>
        <pt x="215" y="466" on="0"/>
        <pt x="296" y="620" on="1"/>
        <pt x="453" y="620" on="1"/>
        <pt x="474" y="466" on="0"/>
        <pt x="509" y="159" on="0"/>
        <pt x="524" y="5" on="1"/>
      </contour>
      <contour>
        <pt x="353" y="515" on="1"/>
        <pt x="322" y="452" on="0"/>
        <pt x="259" y="325" on="0"/>
        <pt x="228" y="262" on="1"/>
        <pt x="385" y="262" on="1"/>
        <pt x="379" y="325" on="0"/>
        <pt x="366" y="452" on="0"/>
        <pt x="359" y="515" on="1"/>
      </contour>
    </TTGlyph>
    <TTGlyph name="Agrave.sc" xMin="-14" yMin="-4" xMax="479" yMax="812">
      <contour>
        <pt x="446" y="638" on="1"/>
        <pt x="420" y="588" on="1"/>
        <pt x="397" y="597" on="0"/>
        <pt x="333" y="627" on="0"/>
        <pt x="265" y="663" on="0"/>
        <pt x="200" y="701" on="0"/>
        <pt x="176" y="716" on="1"/>
        <pt x="245" y="812" on="1"/>
        <pt x="267" y="791" on="0"/>
        <pt x="321" y="741" on="0"/>
        <pt x="375" y="694" on="0"/>
        <pt x="427" y="652" on="0"/>
      </contour>
      <contour>
        <pt x="364" y="-4" on="1"/>
        <pt x="361" y="32" on="0"/>
        <pt x="355" y="104" on="0"/>
        <pt x="352" y="141" on="1"/>
        <pt x="169" y="141" on="1"/>
        <pt x="152" y="106" on="0"/>
        <pt x="118" y="35" on="0"/>
        <pt x="102" y="0" on="1"/>
        <pt x="-14" y="0" on="1"/>
        <pt x="49" y="131" on="0"/>
        <pt x="185" y="399" on="0"/>
        <pt x="256" y="530" on="1"/>
        <pt x="413" y="530" on="1"/>
        <pt x="432" y="399" on="0"/>
        <pt x="465" y="136" on="0"/>
        <pt x="479" y="4" on="1"/>
      </contour>
      <contour>
        <pt x="314" y="434" on="1"/>
        <pt x="288" y="382" on="0"/>
        <pt x="234" y="275" on="0"/>
        <pt x="208" y="222" on="1"/>
        <pt x="343" y="222" on="1"/>
        <pt x="338" y="275" on="0"/>
        <pt x="326" y="382" on="0"/>
        <pt x="320" y="434" on="1"/>
      </contour>
    </TTGlyph>
    <TTGlyph name="Amacron" xMin="-13" yMin="-5" xMax="574" yMax="815">
      <contour>
        <pt x="574" y="815" on="1"/>
        <pt x="554" y="714" on="1"/>
        <pt x="232" y="714" on="1"/>
        <pt x="252" y="815" on="1"/>
      </contour>
      <contour>
        <pt x="409" y="-5" on="1"/>
        <pt x="405" y="40" on="0"/>
        <pt x="398" y="130" on="0"/>
        <pt x="394" y="175" on="1"/>
        <pt x="186" y="175" on="1"/>
        <pt x="165" y="132" on="0"/>
        <pt x="123" y="43" on="0"/>
        <pt x="103" y="0" on="1"/>
        <pt x="-13" y="0" on="1"/>
        <pt x="60" y="154" on="0"/>
        <pt x="215" y="466" on="0"/>
        <pt x="296" y="620" on="1"/>
        <pt x="453" y="620" on="1"/>
        <pt x="474" y="466" on="0"/>
        <pt x="509" y="159" on="0"/>
        <pt x="524" y="5" on="1"/>
      </contour>
      <contour>
        <pt x="353" y="515" on="1"/>
        <pt x="322" y="452" on="0"/>
        <pt x="259" y="325" on="0"/>
        <pt x="228" y="262" on="1"/>
        <pt x="385" y="262" on="1"/>
        <pt x="379" y="325" on="0"/>
        <pt x="366" y="452" on="0"/>
        <pt x="359" y="515" on="1"/>
      </contour>
    </TTGlyph>
    <TTGlyph name="Amacron.sc" xMin="-14" yMin="-4" xMax="531" yMax="725">
      <contour>
        <pt x="531" y="725" on="1"/>
        <pt x="511" y="624" on="1"/>
        <pt x="189" y="624" on="1"/>
        <pt x="209" y="725" on="1"/>
      </contour>
      <contour>
        <pt x="364" y="-4" on="1"/>
        <pt x="361" y="32" on="0"/>
        <pt x="355" y="104" on="0"/>
        <pt x="352" y="141" on="1"/>
        <pt x="169" y="141" on="1"/>
        <pt x="152" y="106" on="0"/>
        <pt x="118" y="35" on="0"/>
        <pt x="102" y="0" on="1"/>
        <pt x="-14" y="0" on="1"/>
        <pt x="49" y="131" on="0"/>
        <pt x="185" y="399" on="0"/>
        <pt x="256" y="530" on="1"/>
        <pt x="413" y="530" on="1"/>
        <pt x="432" y="399" on="0"/>
        <pt x="465" y="136" on="0"/>
        <pt x="479" y="4" on="1"/>
      </contour>
      <contour>
        <pt x="314" y="434" on="1"/>
        <pt x="288" y="382" on="0"/>
        <pt x="234" y="275" on="0"/>
        <pt x="208" y="222" on="1"/>
        <pt x="343" y="222" on="1"/>
        <pt x="338" y="275" on="0"/>
        <pt x="326" y="382" on="0"/>
        <pt x="320" y="434" on="1"/>
      </contour>
    </TTGlyph>
    <TTGlyph name="Aogonek" xMin="-13" yMin="-203" xMax="524" yMax="620">
      <contour>
        <pt x="346" y="-203" on="1"/>
        <pt x="302" y="-203" on="0"/>
        <pt x="256" y="-159" on="0"/>
        <pt x="256" y="-127" on="1"/>
        <pt x="256" y="-91" on="0"/>
        <pt x="326" y="-12" on="0"/>
        <pt x="407" y="23" on="1"/>
        <pt x="404" y="60" on="0"/>
        <pt x="397" y="137" on="0"/>
        <pt x="394" y="175" on="1"/>
        <pt x="186" y="175" on="1"/>
        <pt x="165" y="132" on="0"/>
        <pt x="123" y="43" on="0"/>
        <pt x="103" y="0" on="1"/>
        <pt x="-13" y="0" on="1"/>
        <pt x="60" y="154" on="0"/>
        <pt x="215" y="466" on="0"/>
        <pt x="296" y="620" on="1"/>
        <pt x="453" y="620" on="1"/>
        <pt x="474" y="466" on="0"/>
        <pt x="509" y="159" on="0"/>
        <pt x="524" y="5" on="1"/>
        <pt x="437" y="-15" on="0"/>
        <pt x="360" y="-68" on="0"/>
        <pt x="360" y="-91" on="1"/>
        <pt x="360" y="-105" on="0"/>
        <pt x="380" y="-123" on="0"/>
        <pt x="403" y="-123" on="1"/>
        <pt x="417" y="-123" on="0"/>
        <pt x="457" y="-115" on="0"/>
        <pt x="482" y="-106" on="1"/>
        <pt x="495" y="-156" on="1"/>
        <pt x="449" y="-181" on="0"/>
        <pt x="375" y="-203" on="0"/>
      </contour>
      <contour>
        <pt x="353" y="515" on="1"/>
        <pt x="322" y="452" on="0"/>
        <pt x="259" y="325" on="0"/>
        <pt x="228" y="262" on="1"/>
        <pt x="385" y="262" on="1"/>
        <pt x="379" y="325" on="0"/>
        <pt x="366" y="452" on="0"/>
        <pt x="359" y="515" on="1"/>
      </contour>
    </TTGlyph>
    <TTGlyph name="Aogonek.sc" xMin="-14" yMin="-204" xMax="479" yMax="530">
      <contour>
        <pt x="301" y="-204" on="1"/>
        <pt x="257" y="-204" on="0"/>
        <pt x="211" y="-160" on="0"/>
        <pt x="211" y="-128" on="1"/>
        <pt x="211" y="-92" on="0"/>
        <pt x="282" y="-13" on="0"/>
        <pt x="362" y="22" on="1"/>
        <pt x="360" y="51" on="0"/>
        <pt x="354" y="111" on="0"/>
        <pt x="352" y="141" on="1"/>
        <pt x="169" y="141" on="1"/>
        <pt x="152" y="106" on="0"/>
        <pt x="118" y="35" on="0"/>
        <pt x="102" y="0" on="1"/>
        <pt x="-14" y="0" on="1"/>
        <pt x="49" y="131" on="0"/>
        <pt x="185" y="399" on="0"/>
        <pt x="256" y="530" on="1"/>
        <pt x="413" y="530" on="1"/>
        <pt x="432" y="399" on="0"/>
        <pt x="465" y="136" on="0"/>
        <pt x="479" y="4" on="1"/>
        <pt x="392" y="-16" on="0"/>
        <pt x="315" y="-69" on="0"/>
        <pt x="315" y="-92" on="1"/>
        <pt x="315" y="-106" on="0"/>
        <pt x="335" y="-124" on="0"/>
        <pt x="358" y="-124" on="1"/>
        <pt x="372" y="-124" on="0"/>
        <pt x="412" y="-116" on="0"/>
        <pt x="437" y="-107" on="1"/>
        <pt x="450" y="-157" on="1"/>
        <pt x="404" y="-182" on="0"/>
        <pt x="330" y="-204" on="0"/>
      </contour>
      <contour>
        <pt x="314" y="434" on="1"/>
        <pt x="288" y="382" on="0"/>
        <pt x="234" y="275" on="0"/>
        <pt x="208" y="222" on="1"/>
        <pt x="343" y="222" on="1"/>
        <pt x="338" y="275" on="0"/>
        <pt x="326" y="382" on="0"/>
        <pt x="320" y="434" on="1"/>
      </contour>
    </TTGlyph>
    <TTGlyph name="Aring" xMin="-13" yMin="-5" xMax="524" yMax="879">
      <contour>
        <pt x="418" y="879" on="1"/>
        <pt x="467" y="879" on="0"/>
        <pt x="524" y="825" on="0"/>
        <pt x="524" y="786" on="1"/>
        <pt x="524" y="741" on="0"/>
        <pt x="450" y="673" on="0"/>
        <pt x="393" y="673" on="1"/>
        <pt x="344" y="673" on="0"/>
        <pt x="288" y="727" on="0"/>
        <pt x="288" y="767" on="1"/>
        <pt x="288" y="812" on="0"/>
        <pt x="361" y="879" on="0"/>
      </contour>
      <contour>
        <pt x="409" y="-5" on="1"/>
        <pt x="405" y="40" on="0"/>
        <pt x="398" y="130" on="0"/>
        <pt x="394" y="175" on="1"/>
        <pt x="186" y="175" on="1"/>
        <pt x="165" y="132" on="0"/>
        <pt x="123" y="43" on="0"/>
        <pt x="103" y="0" on="1"/>
        <pt x="-13" y="0" on="1"/>
        <pt x="60" y="154" on="0"/>
        <pt x="215" y="466" on="0"/>
        <pt x="296" y="620" on="1"/>
        <pt x="453" y="620" on="1"/>
        <pt x="474" y="466" on="0"/>
        <pt x="509" y="159" on="0"/>
        <pt x="524" y="5" on="1"/>
      </contour>
      <contour>
        <pt x="353" y="515" on="1"/>
        <pt x="322" y="452" on="0"/>
        <pt x="259" y="325" on="0"/>
        <pt x="228" y="262" on="1"/>
        <pt x="385" y="262" on="1"/>
        <pt x="379" y="325" on="0"/>
        <pt x="366" y="452" on="0"/>
        <pt x="359" y="515" on="1"/>
      </contour>
    </TTGlyph>
    <TTGlyph name="Aring.sc" xMin="-14" yMin="-4" xMax="481" yMax="789">
      <contour>
        <pt x="375" y="789" on="1"/>
        <pt x="424" y="789" on="0"/>
        <pt x="481" y="735" on="0"/>
        <pt x="481" y="696" on="1"/>
        <pt x="481" y="651" on="0"/>
        <pt x="407" y="583" on="0"/>
        <pt x="350" y="583" on="1"/>
        <pt x="301" y="583" on="0"/>
        <pt x="245" y="637" on="0"/>
        <pt x="245" y="677" on="1"/>
        <pt x="245" y="722" on="0"/>
        <pt x="318" y="789" on="0"/>
      </contour>
      <contour>
        <pt x="364" y="-4" on="1"/>
        <pt x="361" y="32" on="0"/>
        <pt x="355" y="104" on="0"/>
        <pt x="352" y="141" on="1"/>
        <pt x="169" y="141" on="1"/>
        <pt x="152" y="106" on="0"/>
        <pt x="118" y="35" on="0"/>
        <pt x="102" y="0" on="1"/>
        <pt x="-14" y="0" on="1"/>
        <pt x="49" y="131" on="0"/>
        <pt x="185" y="399" on="0"/>
        <pt x="256" y="530" on="1"/>
        <pt x="413" y="530" on="1"/>
        <pt x="432" y="399" on="0"/>
        <pt x="465" y="136" on="0"/>
        <pt x="479" y="4" on="1"/>
      </contour>
      <contour>
        <pt x="314" y="434" on="1"/>
        <pt x="288" y="382" on="0"/>
        <pt x="234" y="275" on="0"/>
        <pt x="208" y="222" on="1"/>
        <pt x="343" y="222" on="1"/>
        <pt x="338" y="275" on="0"/>
        <pt x="326" y="382" on="0"/>
        <pt x="320" y="434" on="1"/>
      </contour>
    </TTGlyph>
    <TTGlyph name="Aringacute" xMin="-13" yMin="-5" xMax="619" yMax="1131">
      <contour>
        <pt x="328" y="966" on="1"/>
        <pt x="347" y="977" on="0"/>
        <pt x="404" y="1016" on="0"/>
        <pt x="464" y="1062" on="0"/>
        <pt x="522" y="1110" on="0"/>
        <pt x="544" y="1131" on="1"/>
        <pt x="619" y="1037" on="1"/>
        <pt x="594" y="1019" on="0"/>
        <pt x="521" y="981" on="0"/>
        <pt x="445" y="947" on="0"/>
        <pt x="373" y="921" on="0"/>
        <pt x="349" y="914" on="1"/>
      </contour>
      <contour>
        <pt x="418" y="879" on="1"/>
        <pt x="467" y="879" on="0"/>
        <pt x="524" y="825" on="0"/>
        <pt x="524" y="786" on="1"/>
        <pt x="524" y="741" on="0"/>
        <pt x="450" y="673" on="0"/>
        <pt x="393" y="673" on="1"/>
        <pt x="344" y="673" on="0"/>
        <pt x="288" y="727" on="0"/>
        <pt x="288" y="767" on="1"/>
        <pt x="288" y="812" on="0"/>
        <pt x="361" y="879" on="0"/>
      </contour>
      <contour>
        <pt x="409" y="-5" on="1"/>
        <pt x="405" y="40" on="0"/>
        <pt x="398" y="130" on="0"/>
        <pt x="394" y="175" on="1"/>
        <pt x="186" y="175" on="1"/>
        <pt x="165" y="132" on="0"/>
        <pt x="123" y="43" on="0"/>
        <pt x="103" y="0" on="1"/>
        <pt x="-13" y="0" on="1"/>
        <pt x="60" y="154" on="0"/>
        <pt x="215" y="466" on="0"/>
        <pt x="296" y="620" on="1"/>
        <pt x="453" y="620" on="1"/>
        <pt x="474" y="466" on="0"/>
        <pt x="509" y="159" on="0"/>
        <pt x="524" y="5" on="1"/>
      </contour>
      <contour>
        <pt x="353" y="515" on="1"/>
        <pt x="322" y="452" on="0"/>
        <pt x="259" y="325" on="0"/>
        <pt x="228" y="262" on="1"/>
        <pt x="385" y="262" on="1"/>
        <pt x="379" y="325" on="0"/>
        <pt x="366" y="452" on="0"/>
        <pt x="359" y="515" on="1"/>
      </contour>
    </TTGlyph>
    <TTGlyph name="Aringacute.sc" xMin="-14" yMin="-4" xMax="576" yMax="1041">
      <contour>
        <pt x="285" y="876" on="1"/>
        <pt x="304" y="887" on="0"/>
        <pt x="361" y="926" on="0"/>
        <pt x="421" y="972" on="0"/>
        <pt x="479" y="1020" on="0"/>
        <pt x="501" y="1041" on="1"/>
        <pt x="576" y="947" on="1"/>
        <pt x="551" y="929" on="0"/>
        <pt x="478" y="891" on="0"/>
        <pt x="402" y="857" on="0"/>
        <pt x="330" y="831" on="0"/>
        <pt x="306" y="824" on="1"/>
      </contour>
      <contour>
        <pt x="375" y="789" on="1"/>
        <pt x="424" y="789" on="0"/>
        <pt x="481" y="735" on="0"/>
        <pt x="481" y="696" on="1"/>
        <pt x="481" y="651" on="0"/>
        <pt x="407" y="583" on="0"/>
        <pt x="350" y="583" on="1"/>
        <pt x="301" y="583" on="0"/>
        <pt x="245" y="637" on="0"/>
        <pt x="245" y="677" on="1"/>
        <pt x="245" y="722" on="0"/>
        <pt x="318" y="789" on="0"/>
      </contour>
      <contour>
        <pt x="364" y="-4" on="1"/>
        <pt x="361" y="32" on="0"/>
        <pt x="355" y="104" on="0"/>
        <pt x="352" y="141" on="1"/>
        <pt x="169" y="141" on="1"/>
        <pt x="152" y="106" on="0"/>
        <pt x="118" y="35" on="0"/>
        <pt x="102" y="0" on="1"/>
        <pt x="-14" y="0" on="1"/>
        <pt x="49" y="131" on="0"/>
        <pt x="185" y="399" on="0"/>
        <pt x="256" y="530" on="1"/>
        <pt x="413" y="530" on="1"/>
        <pt x="432" y="399" on="0"/>
        <pt x="465" y="136" on="0"/>
        <pt x="479" y="4" on="1"/>
      </contour>
      <contour>
        <pt x="314" y="434" on="1"/>
        <pt x="288" y="382" on="0"/>
        <pt x="234" y="275" on="0"/>
        <pt x="208" y="222" on="1"/>
        <pt x="343" y="222" on="1"/>
        <pt x="338" y="275" on="0"/>
        <pt x="326" y="382" on="0"/>
        <pt x="320" y="434" on="1"/>
      </contour>
    </TTGlyph>
    <TTGlyph name="Atilde" xMin="-13" yMin="-5" xMax="603" yMax="866">
      <contour>
        <pt x="480" y="781" on="1"/>
        <pt x="491" y="781" on="0"/>
        <pt x="526" y="819" on="0"/>
        <pt x="550" y="856" on="1"/>
        <pt x="603" y="822" on="1"/>
        <pt x="571" y="767" on="0"/>
        <pt x="489" y="689" on="0"/>
        <pt x="453" y="689" on="1"/>
        <pt x="431" y="689" on="0"/>
        <pt x="395" y="716" on="0"/>
        <pt x="366" y="747" on="0"/>
        <pt x="341" y="774" on="0"/>
        <pt x="331" y="774" on="1"/>
        <pt x="321" y="774" on="0"/>
        <pt x="286" y="736" on="0"/>
        <pt x="263" y="699" on="1"/>
        <pt x="209" y="733" on="1"/>
        <pt x="241" y="788" on="0"/>
        <pt x="324" y="866" on="0"/>
        <pt x="360" y="866" on="1"/>
        <pt x="382" y="866" on="0"/>
        <pt x="417" y="839" on="0"/>
        <pt x="446" y="808" on="0"/>
        <pt x="470" y="781" on="0"/>
      </contour>
      <contour>
        <pt x="409" y="-5" on="1"/>
        <pt x="405" y="40" on="0"/>
        <pt x="398" y="130" on="0"/>
        <pt x="394" y="175" on="1"/>
        <pt x="186" y="175" on="1"/>
        <pt x="165" y="132" on="0"/>
        <pt x="123" y="43" on="0"/>
        <pt x="103" y="0" on="1"/>
        <pt x="-13" y="0" on="1"/>
        <pt x="60" y="154" on="0"/>
        <pt x="215" y="466" on="0"/>
        <pt x="296" y="620" on="1"/>
        <pt x="453" y="620" on="1"/>
        <pt x="474" y="466" on="0"/>
        <pt x="509" y="159" on="0"/>
        <pt x="524" y="5" on="1"/>
      </contour>
      <contour>
        <pt x="353" y="515" on="1"/>
        <pt x="322" y="452" on="0"/>
        <pt x="259" y="325" on="0"/>
        <pt x="228" y="262" on="1"/>
        <pt x="385" y="262" on="1"/>
        <pt x="379" y="325" on="0"/>
        <pt x="366" y="452" on="0"/>
        <pt x="359" y="515" on="1"/>
      </contour>
    </TTGlyph>
    <TTGlyph name="Atilde.sc" xMin="-14" yMin="-4" xMax="561" yMax="776">
      <contour>
        <pt x="438" y="691" on="1"/>
        <pt x="449" y="691" on="0"/>
        <pt x="484" y="729" on="0"/>
        <pt x="508" y="766" on="1"/>
        <pt x="561" y="732" on="1"/>
        <pt x="529" y="677" on="0"/>
        <pt x="447" y="599" on="0"/>
        <pt x="411" y="599" on="1"/>
        <pt x="389" y="599" on="0"/>
        <pt x="353" y="626" on="0"/>
        <pt x="324" y="657" on="0"/>
        <pt x="299" y="684" on="0"/>
        <pt x="289" y="684" on="1"/>
        <pt x="279" y="684" on="0"/>
        <pt x="244" y="646" on="0"/>
        <pt x="221" y="609" on="1"/>
        <pt x="167" y="643" on="1"/>
        <pt x="199" y="698" on="0"/>
        <pt x="282" y="776" on="0"/>
        <pt x="318" y="776" on="1"/>
        <pt x="340" y="776" on="0"/>
        <pt x="375" y="749" on="0"/>
        <pt x="404" y="718" on="0"/>
        <pt x="428" y="691" on="0"/>
      </contour>
      <contour>
        <pt x="364" y="-4" on="1"/>
        <pt x="361" y="32" on="0"/>
        <pt x="355" y="104" on="0"/>
        <pt x="352" y="141" on="1"/>
        <pt x="169" y="141" on="1"/>
        <pt x="152" y="106" on="0"/>
        <pt x="118" y="35" on="0"/>
        <pt x="102" y="0" on="1"/>
        <pt x="-14" y="0" on="1"/>
        <pt x="49" y="131" on="0"/>
        <pt x="185" y="399" on="0"/>
        <pt x="256" y="530" on="1"/>
        <pt x="413" y="530" on="1"/>
        <pt x="432" y="399" on="0"/>
        <pt x="465" y="136" on="0"/>
        <pt x="479" y="4" on="1"/>
      </contour>
      <contour>
        <pt x="314" y="434" on="1"/>
        <pt x="288" y="382" on="0"/>
        <pt x="234" y="275" on="0"/>
        <pt x="208" y="222" on="1"/>
        <pt x="343" y="222" on="1"/>
        <pt x="338" y="275" on="0"/>
        <pt x="326" y="382" on="0"/>
        <pt x="320" y="434" on="1"/>
      </contour>
    </TTGlyph>
    <TTGlyph name="B" xMin="41" yMin="-9" xMax="534" yMax="627">
      <contour>
        <pt x="170" y="-9" on="1"/>
        <pt x="141" y="-9" on="0"/>
        <pt x="76" y="-4" on="0"/>
        <pt x="41" y="0" on="1"/>
        <pt x="160" y="615" on="1"/>
        <pt x="200" y="621" on="0"/>
        <pt x="269" y="627" on="0"/>
        <pt x="300" y="627" on="1"/>
        <pt x="423" y="627" on="0"/>
        <pt x="534" y="543" on="0"/>
        <pt x="534" y="483" on="1"/>
        <pt x="534" y="433" on="0"/>
        <pt x="466" y="350" on="0"/>
        <pt x="406" y="322" on="1"/>
        <pt x="452" y="307" on="0"/>
        <pt x="506" y="241" on="0"/>
        <pt x="506" y="196" on="1"/>
        <pt x="506" y="157" on="0"/>
        <pt x="467" y="83" on="0"/>
        <pt x="386" y="26" on="0"/>
        <pt x="258" y="-9" on="0"/>
      </contour>
      <contour>
        <pt x="293" y="530" on="1"/>
        <pt x="285" y="530" on="0"/>
        <pt x="267" y="529" on="0"/>
        <pt x="258" y="528" on="1"/>
        <pt x="221" y="338" on="1"/>
        <pt x="323" y="347" on="0"/>
        <pt x="422" y="415" on="0"/>
        <pt x="422" y="455" on="1"/>
        <pt x="422" y="489" on="0"/>
        <pt x="355" y="530" on="0"/>
      </contour>
      <contour>
        <pt x="233" y="88" on="1"/>
        <pt x="311" y="88" on="0"/>
        <pt x="392" y="144" on="0"/>
        <pt x="392" y="185" on="1"/>
        <pt x="392" y="224" on="0"/>
        <pt x="323" y="272" on="0"/>
        <pt x="251" y="272" on="1"/>
        <pt x="241" y="272" on="0"/>
        <pt x="220" y="271" on="0"/>
        <pt x="208" y="270" on="1"/>
        <pt x="174" y="92" on="1"/>
        <pt x="190" y="90" on="0"/>
        <pt x="220" y="88" on="0"/>
      </contour>
    </TTGlyph>
    <TTGlyph name="B.sc" xMin="31" yMin="-8" xMax="482" yMax="536">
      <contour>
        <pt x="152" y="-8" on="1"/>
        <pt x="124" y="-8" on="0"/>
        <pt x="64" y="-4" on="0"/>
        <pt x="31" y="0" on="1"/>
        <pt x="133" y="526" on="1"/>
        <pt x="170" y="531" on="0"/>
        <pt x="236" y="536" on="0"/>
        <pt x="264" y="536" on="1"/>
        <pt x="379" y="536" on="0"/>
        <pt x="482" y="464" on="0"/>
        <pt x="482" y="411" on="1"/>
        <pt x="482" y="369" on="0"/>
        <pt x="422" y="299" on="0"/>
        <pt x="368" y="276" on="1"/>
        <pt x="411" y="263" on="0"/>
        <pt x="460" y="205" on="0"/>
        <pt x="460" y="166" on="1"/>
        <pt x="460" y="133" on="0"/>
        <pt x="425" y="70" on="0"/>
        <pt x="351" y="22" on="0"/>
        <pt x="234" y="-8" on="0"/>
      </contour>
      <contour>
        <pt x="261" y="447" on="1"/>
        <pt x="254" y="447" on="0"/>
        <pt x="239" y="447" on="0"/>
        <pt x="232" y="446" on="1"/>
        <pt x="202" y="291" on="1"/>
        <pt x="289" y="298" on="0"/>
        <pt x="372" y="353" on="0"/>
        <pt x="372" y="385" on="1"/>
        <pt x="372" y="413" on="0"/>
        <pt x="314" y="447" on="0"/>
      </contour>
      <contour>
        <pt x="212" y="81" on="1"/>
        <pt x="279" y="81" on="0"/>
        <pt x="348" y="127" on="0"/>
        <pt x="348" y="160" on="1"/>
        <pt x="348" y="192" on="0"/>
        <pt x="288" y="232" on="0"/>
        <pt x="225" y="232" on="1"/>
        <pt x="217" y="232" on="0"/>
        <pt x="199" y="231" on="0"/>
        <pt x="190" y="230" on="1"/>
        <pt x="161" y="84" on="1"/>
        <pt x="174" y="83" on="0"/>
        <pt x="200" y="81" on="0"/>
      </contour>
    </TTGlyph>
    <TTGlyph name="C" xMin="57" yMin="-12" xMax="549" yMax="633">
      <contour>
        <pt x="391" y="633" on="1"/>
        <pt x="481" y="633" on="0"/>
        <pt x="549" y="514" on="0"/>
        <pt x="549" y="396" on="1"/>
        <pt x="549" y="390" on="1"/>
        <pt x="439" y="388" on="1"/>
        <pt x="437" y="463" on="0"/>
        <pt x="407" y="530" on="0"/>
        <pt x="359" y="530" on="1"/>
        <pt x="313" y="530" on="0"/>
        <pt x="243" y="479" on="0"/>
        <pt x="196" y="400" on="0"/>
        <pt x="171" y="301" on="0"/>
        <pt x="171" y="254" on="1"/>
        <pt x="171" y="176" on="0"/>
        <pt x="244" y="92" on="0"/>
        <pt x="321" y="92" on="1"/>
        <pt x="355" y="92" on="0"/>
        <pt x="442" y="109" on="0"/>
        <pt x="493" y="126" on="1"/>
        <pt x="483" y="24" on="1"/>
        <pt x="431" y="6" on="0"/>
        <pt x="335" y="-12" on="0"/>
        <pt x="294" y="-12" on="1"/>
        <pt x="183" y="-12" on="0"/>
        <pt x="57" y="114" on="0"/>
        <pt x="57" y="230" on="1"/>
        <pt x="57" y="309" on="0"/>
        <pt x="112" y="455" on="0"/>
        <pt x="203" y="566" on="0"/>
        <pt x="325" y="633" on="0"/>
      </contour>
    </TTGlyph>
    <TTGlyph name="C.sc" xMin="42" yMin="-11" xMax="491" yMax="542">
      <contour>
        <pt x="343" y="542" on="1"/>
        <pt x="426" y="542" on="0"/>
        <pt x="491" y="440" on="0"/>
        <pt x="491" y="337" on="1"/>
        <pt x="491" y="331" on="1"/>
        <pt x="383" y="329" on="1"/>
        <pt x="381" y="391" on="0"/>
        <pt x="354" y="445" on="0"/>
        <pt x="314" y="445" on="1"/>
        <pt x="275" y="445" on="0"/>
        <pt x="216" y="404" on="0"/>
        <pt x="176" y="339" on="0"/>
        <pt x="156" y="259" on="0"/>
        <pt x="156" y="221" on="1"/>
        <pt x="156" y="155" on="0"/>
        <pt x="221" y="87" on="0"/>
        <pt x="291" y="87" on="1"/>
        <pt x="321" y="87" on="0"/>
        <pt x="398" y="101" on="0"/>
        <pt x="444" y="114" on="1"/>
        <pt x="434" y="19" on="1"/>
        <pt x="386" y="4" on="0"/>
        <pt x="300" y="-11" on="0"/>
        <pt x="263" y="-11" on="1"/>
        <pt x="159" y="-11" on="0"/>
        <pt x="42" y="99" on="0"/>
        <pt x="42" y="198" on="1"/>
        <pt x="42" y="265" on="0"/>
        <pt x="90" y="390" on="0"/>
        <pt x="172" y="485" on="0"/>
        <pt x="282" y="542" on="0"/>
      </contour>
    </TTGlyph>
    <TTGlyph name="Cacute" xMin="57" yMin="-12" xMax="581" yMax="912">
      <contour>
        <pt x="290" y="747" on="1"/>
        <pt x="309" y="758" on="0"/>
        <pt x="366" y="797" on="0"/>
        <pt x="426" y="843" on="0"/>
        <pt x="484" y="891" on="0"/>
        <pt x="506" y="912" on="1"/>
        <pt x="581" y="818" on="1"/>
        <pt x="556" y="800" on="0"/>
        <pt x="483" y="762" on="0"/>
        <pt x="407" y="728" on="0"/>
        <pt x="335" y="702" on="0"/>
        <pt x="311" y="695" on="1"/>
      </contour>
      <contour>
        <pt x="391" y="633" on="1"/>
        <pt x="481" y="633" on="0"/>
        <pt x="549" y="514" on="0"/>
        <pt x="549" y="396" on="1"/>
        <pt x="549" y="390" on="1"/>
        <pt x="439" y="388" on="1"/>
        <pt x="437" y="463" on="0"/>
        <pt x="407" y="530" on="0"/>
        <pt x="359" y="530" on="1"/>
        <pt x="313" y="530" on="0"/>
        <pt x="243" y="479" on="0"/>
        <pt x="196" y="400" on="0"/>
        <pt x="171" y="301" on="0"/>
        <pt x="171" y="254" on="1"/>
        <pt x="171" y="176" on="0"/>
        <pt x="244" y="92" on="0"/>
        <pt x="321" y="92" on="1"/>
        <pt x="355" y="92" on="0"/>
        <pt x="442" y="109" on="0"/>
        <pt x="493" y="126" on="1"/>
        <pt x="483" y="24" on="1"/>
        <pt x="431" y="6" on="0"/>
        <pt x="335" y="-12" on="0"/>
        <pt x="294" y="-12" on="1"/>
        <pt x="183" y="-12" on="0"/>
        <pt x="57" y="114" on="0"/>
        <pt x="57" y="230" on="1"/>
        <pt x="57" y="309" on="0"/>
        <pt x="112" y="455" on="0"/>
        <pt x="203" y="566" on="0"/>
        <pt x="325" y="633" on="0"/>
      </contour>
    </TTGlyph>
    <TTGlyph name="Cacute.sc" xMin="42" yMin="-11" xMax="542" yMax="821">
      <contour>
        <pt x="251" y="656" on="1"/>
        <pt x="270" y="667" on="0"/>
        <pt x="327" y="706" on="0"/>
        <pt x="387" y="752" on="0"/>
        <pt x="445" y="800" on="0"/>
        <pt x="467" y="821" on="1"/>
        <pt x="542" y="727" on="1"/>
        <pt x="517" y="709" on="0"/>
        <pt x="444" y="671" on="0"/>
        <pt x="368" y="637" on="0"/>
        <pt x="296" y="611" on="0"/>
        <pt x="272" y="604" on="1"/>
      </contour>
      <contour>
        <pt x="343" y="542" on="1"/>
        <pt x="426" y="542" on="0"/>
        <pt x="491" y="440" on="0"/>
        <pt x="491" y="337" on="1"/>
        <pt x="491" y="331" on="1"/>
        <pt x="383" y="329" on="1"/>
        <pt x="381" y="391" on="0"/>
        <pt x="354" y="445" on="0"/>
        <pt x="314" y="445" on="1"/>
        <pt x="275" y="445" on="0"/>
        <pt x="216" y="404" on="0"/>
        <pt x="176" y="339" on="0"/>
        <pt x="156" y="259" on="0"/>
        <pt x="156" y="221" on="1"/>
        <pt x="156" y="155" on="0"/>
        <pt x="221" y="87" on="0"/>
        <pt x="291" y="87" on="1"/>
        <pt x="321" y="87" on="0"/>
        <pt x="398" y="101" on="0"/>
        <pt x="444" y="114" on="1"/>
        <pt x="434" y="19" on="1"/>
        <pt x="386" y="4" on="0"/>
        <pt x="300" y="-11" on="0"/>
        <pt x="263" y="-11" on="1"/>
        <pt x="159" y="-11" on="0"/>
        <pt x="42" y="99" on="0"/>
        <pt x="42" y="198" on="1"/>
        <pt x="42" y="265" on="0"/>
        <pt x="90" y="390" on="0"/>
        <pt x="172" y="485" on="0"/>
        <pt x="282" y="542" on="0"/>
      </contour>
    </TTGlyph>
    <TTGlyph name="Ccaron" xMin="57" yMin="-12" xMax="599" yMax="898">
      <contour>
        <pt x="393" y="686" on="1"/>
        <pt x="251" y="833" on="1"/>
        <pt x="332" y="898" on="1"/>
        <pt x="417" y="801" on="1"/>
        <pt x="548" y="894" on="1"/>
        <pt x="599" y="834" on="1"/>
      </contour>
      <contour>
        <pt x="391" y="633" on="1"/>
        <pt x="481" y="633" on="0"/>
        <pt x="549" y="514" on="0"/>
        <pt x="549" y="396" on="1"/>
        <pt x="549" y="390" on="1"/>
        <pt x="439" y="388" on="1"/>
        <pt x="437" y="463" on="0"/>
        <pt x="407" y="530" on="0"/>
        <pt x="359" y="530" on="1"/>
        <pt x="313" y="530" on="0"/>
        <pt x="243" y="479" on="0"/>
        <pt x="196" y="400" on="0"/>
        <pt x="171" y="301" on="0"/>
        <pt x="171" y="254" on="1"/>
        <pt x="171" y="176" on="0"/>
        <pt x="244" y="92" on="0"/>
        <pt x="321" y="92" on="1"/>
        <pt x="355" y="92" on="0"/>
        <pt x="442" y="109" on="0"/>
        <pt x="493" y="126" on="1"/>
        <pt x="483" y="24" on="1"/>
        <pt x="431" y="6" on="0"/>
        <pt x="335" y="-12" on="0"/>
        <pt x="294" y="-12" on="1"/>
        <pt x="183" y="-12" on="0"/>
        <pt x="57" y="114" on="0"/>
        <pt x="57" y="230" on="1"/>
        <pt x="57" y="309" on="0"/>
        <pt x="112" y="455" on="0"/>
        <pt x="203" y="566" on="0"/>
        <pt x="325" y="633" on="0"/>
      </contour>
    </TTGlyph>
    <TTGlyph name="Ccaron.sc" xMin="42" yMin="-11" xMax="560" yMax="807">
      <contour>
        <pt x="354" y="595" on="1"/>
        <pt x="212" y="742" on="1"/>
        <pt x="293" y="807" on="1"/>
        <pt x="378" y="710" on="1"/>
        <pt x="509" y="803" on="1"/>
        <pt x="560" y="743" on="1"/>
      </contour>
      <contour>
        <pt x="343" y="542" on="1"/>
        <pt x="426" y="542" on="0"/>
        <pt x="491" y="440" on="0"/>
        <pt x="491" y="337" on="1"/>
        <pt x="491" y="331" on="1"/>
        <pt x="383" y="329" on="1"/>
        <pt x="381" y="391" on="0"/>
        <pt x="354" y="445" on="0"/>
        <pt x="314" y="445" on="1"/>
        <pt x="275" y="445" on="0"/>
        <pt x="216" y="404" on="0"/>
        <pt x="176" y="339" on="0"/>
        <pt x="156" y="259" on="0"/>
        <pt x="156" y="221" on="1"/>
        <pt x="156" y="155" on="0"/>
        <pt x="221" y="87" on="0"/>
        <pt x="291" y="87" on="1"/>
        <pt x="321" y="87" on="0"/>
        <pt x="398" y="101" on="0"/>
        <pt x="444" y="114" on="1"/>
        <pt x="434" y="19" on="1"/>
        <pt x="386" y="4" on="0"/>
        <pt x="300" y="-11" on="0"/>
        <pt x="263" y="-11" on="1"/>
        <pt x="159" y="-11" on="0"/>
        <pt x="42" y="99" on="0"/>
        <pt x="42" y="198" on="1"/>
        <pt x="42" y="265" on="0"/>
        <pt x="90" y="390" on="0"/>
        <pt x="172" y="485" on="0"/>
        <pt x="282" y="542" on="0"/>
      </contour>
    </TTGlyph>
    <TTGlyph name="Ccedilla" xMin="57" yMin="-177" xMax="549" yMax="633">
      <contour>
        <pt x="378" y="-176" on="1"/>
        <pt x="278" y="-177" on="1"/>
        <pt x="279" y="-167" on="0"/>
        <pt x="279" y="-147" on="0"/>
        <pt x="279" y="-138" on="1"/>
        <pt x="279" y="-100" on="0"/>
        <pt x="266" y="-68" on="0"/>
        <pt x="253" y="-68" on="1"/>
        <pt x="236" y="-68" on="0"/>
        <pt x="198" y="-115" on="0"/>
        <pt x="179" y="-154" on="1"/>
        <pt x="121" y="-135" on="1"/>
        <pt x="141" y="-84" on="0"/>
        <pt x="185" y="-18" on="0"/>
        <pt x="209" y="-1" on="1"/>
        <pt x="137" y="20" on="0"/>
        <pt x="57" y="138" on="0"/>
        <pt x="57" y="230" on="1"/>
        <pt x="57" y="309" on="0"/>
        <pt x="112" y="455" on="0"/>
        <pt x="203" y="566" on="0"/>
        <pt x="325" y="633" on="0"/>
        <pt x="391" y="633" on="1"/>
        <pt x="481" y="633" on="0"/>
        <pt x="549" y="514" on="0"/>
        <pt x="549" y="396" on="1"/>
        <pt x="549" y="390" on="1"/>
        <pt x="439" y="388" on="1"/>
        <pt x="437" y="463" on="0"/>
        <pt x="407" y="530" on="0"/>
        <pt x="359" y="530" on="1"/>
        <pt x="313" y="530" on="0"/>
        <pt x="243" y="479" on="0"/>
        <pt x="196" y="400" on="0"/>
        <pt x="171" y="301" on="0"/>
        <pt x="171" y="254" on="1"/>
        <pt x="171" y="176" on="0"/>
        <pt x="244" y="92" on="0"/>
        <pt x="321" y="92" on="1"/>
        <pt x="355" y="92" on="0"/>
        <pt x="442" y="109" on="0"/>
        <pt x="493" y="126" on="1"/>
        <pt x="483" y="24" on="1"/>
        <pt x="443" y="11" on="0"/>
        <pt x="369" y="-7" on="0"/>
        <pt x="335" y="-10" on="1"/>
        <pt x="355" y="-29" on="0"/>
        <pt x="379" y="-99" on="0"/>
        <pt x="379" y="-148" on="1"/>
        <pt x="379" y="-155" on="0"/>
        <pt x="379" y="-169" on="0"/>
      </contour>
    </TTGlyph>
    <TTGlyph name="Ccedilla.sc" xMin="42" yMin="-176" xMax="491" yMax="542">
      <contour>
        <pt x="342" y="-175" on="1"/>
        <pt x="242" y="-176" on="1"/>
        <pt x="243" y="-166" on="0"/>
        <pt x="243" y="-146" on="0"/>
        <pt x="243" y="-137" on="1"/>
        <pt x="243" y="-99" on="0"/>
        <pt x="230" y="-67" on="0"/>
        <pt x="217" y="-67" on="1"/>
        <pt x="200" y="-67" on="0"/>
        <pt x="162" y="-114" on="0"/>
        <pt x="143" y="-153" on="1"/>
        <pt x="85" y="-134" on="1"/>
        <pt x="105" y="-83" on="0"/>
        <pt x="150" y="-15" on="0"/>
        <pt x="175" y="1" on="1"/>
        <pt x="111" y="21" on="0"/>
        <pt x="42" y="122" on="0"/>
        <pt x="42" y="198" on="1"/>
        <pt x="42" y="265" on="0"/>
        <pt x="90" y="390" on="0"/>
        <pt x="172" y="485" on="0"/>
        <pt x="282" y="542" on="0"/>
        <pt x="343" y="542" on="1"/>
        <pt x="426" y="542" on="0"/>
        <pt x="491" y="440" on="0"/>
        <pt x="491" y="337" on="1"/>
        <pt x="491" y="331" on="1"/>
        <pt x="383" y="329" on="1"/>
        <pt x="381" y="391" on="0"/>
        <pt x="354" y="445" on="0"/>
        <pt x="314" y="445" on="1"/>
        <pt x="275" y="445" on="0"/>
        <pt x="216" y="404" on="0"/>
        <pt x="176" y="339" on="0"/>
        <pt x="156" y="259" on="0"/>
        <pt x="156" y="221" on="1"/>
        <pt x="156" y="155" on="0"/>
        <pt x="221" y="87" on="0"/>
        <pt x="291" y="87" on="1"/>
        <pt x="321" y="87" on="0"/>
        <pt x="398" y="101" on="0"/>
        <pt x="444" y="114" on="1"/>
        <pt x="434" y="19" on="1"/>
        <pt x="397" y="8" on="0"/>
        <pt x="330" y="-7" on="0"/>
        <pt x="299" y="-9" on="1"/>
        <pt x="319" y="-29" on="0"/>
        <pt x="343" y="-98" on="0"/>
        <pt x="343" y="-147" on="1"/>
        <pt x="343" y="-154" on="0"/>
        <pt x="343" y="-168" on="0"/>
      </contour>
    </TTGlyph>
    <TTGlyph name="Cdotaccent" xMin="57" yMin="-12" xMax="549" yMax="844">
      <contour>
        <pt x="452" y="713" on="1"/>
        <pt x="326" y="712" on="1"/>
        <pt x="359" y="843" on="1"/>
        <pt x="495" y="844" on="1"/>
      </contour>
      <contour>
        <pt x="391" y="633" on="1"/>
        <pt x="481" y="633" on="0"/>
        <pt x="549" y="514" on="0"/>
        <pt x="549" y="396" on="1"/>
        <pt x="549" y="390" on="1"/>
        <pt x="439" y="388" on="1"/>
        <pt x="437" y="463" on="0"/>
        <pt x="407" y="530" on="0"/>
        <pt x="359" y="530" on="1"/>
        <pt x="313" y="530" on="0"/>
        <pt x="243" y="479" on="0"/>
        <pt x="196" y="400" on="0"/>
        <pt x="171" y="301" on="0"/>
        <pt x="171" y="254" on="1"/>
        <pt x="171" y="176" on="0"/>
        <pt x="244" y="92" on="0"/>
        <pt x="321" y="92" on="1"/>
        <pt x="355" y="92" on="0"/>
        <pt x="442" y="109" on="0"/>
        <pt x="493" y="126" on="1"/>
        <pt x="483" y="24" on="1"/>
        <pt x="431" y="6" on="0"/>
        <pt x="335" y="-12" on="0"/>
        <pt x="294" y="-12" on="1"/>
        <pt x="183" y="-12" on="0"/>
        <pt x="57" y="114" on="0"/>
        <pt x="57" y="230" on="1"/>
        <pt x="57" y="309" on="0"/>
        <pt x="112" y="455" on="0"/>
        <pt x="203" y="566" on="0"/>
        <pt x="325" y="633" on="0"/>
      </contour>
    </TTGlyph>
    <TTGlyph name="Cdotaccent.sc" xMin="42" yMin="-11" xMax="491" yMax="753">
      <contour>
        <pt x="413" y="622" on="1"/>
        <pt x="287" y="621" on="1"/>
        <pt x="320" y="752" on="1"/>
        <pt x="456" y="753" on="1"/>
      </contour>
      <contour>
        <pt x="343" y="542" on="1"/>
        <pt x="426" y="542" on="0"/>
        <pt x="491" y="440" on="0"/>
        <pt x="491" y="337" on="1"/>
        <pt x="491" y="331" on="1"/>
        <pt x="383" y="329" on="1"/>
        <pt x="381" y="391" on="0"/>
        <pt x="354" y="445" on="0"/>
        <pt x="314" y="445" on="1"/>
        <pt x="275" y="445" on="0"/>
        <pt x="216" y="404" on="0"/>
        <pt x="176" y="339" on="0"/>
        <pt x="156" y="259" on="0"/>
        <pt x="156" y="221" on="1"/>
        <pt x="156" y="155" on="0"/>
        <pt x="221" y="87" on="0"/>
        <pt x="291" y="87" on="1"/>
        <pt x="321" y="87" on="0"/>
        <pt x="398" y="101" on="0"/>
        <pt x="444" y="114" on="1"/>
        <pt x="434" y="19" on="1"/>
        <pt x="386" y="4" on="0"/>
        <pt x="300" y="-11" on="0"/>
        <pt x="263" y="-11" on="1"/>
        <pt x="159" y="-11" on="0"/>
        <pt x="42" y="99" on="0"/>
        <pt x="42" y="198" on="1"/>
        <pt x="42" y="265" on="0"/>
        <pt x="90" y="390" on="0"/>
        <pt x="172" y="485" on="0"/>
        <pt x="282" y="542" on="0"/>
      </contour>
    </TTGlyph>
    <TTGlyph name="D" xMin="41" yMin="-6" xMax="575" yMax="628">
      <contour>
        <pt x="575" y="380" on="1"/>
        <pt x="575" y="302" on="0"/>
        <pt x="520" y="162" on="0"/>
        <pt x="411" y="56" on="0"/>
        <pt x="245" y="-6" on="0"/>
        <pt x="136" y="-6" on="1"/>
        <pt x="114" y="-6" on="0"/>
        <pt x="66" y="-3" on="0"/>
        <pt x="41" y="0" on="1"/>
        <pt x="160" y="617" on="1"/>
        <pt x="193" y="622" on="0"/>
        <pt x="255" y="628" on="0"/>
        <pt x="283" y="628" on="1"/>
        <pt x="420" y="628" on="0"/>
        <pt x="575" y="502" on="0"/>
      </contour>
      <contour>
        <pt x="184" y="93" on="1"/>
        <pt x="255" y="93" on="0"/>
        <pt x="360" y="136" on="0"/>
        <pt x="428" y="210" on="0"/>
        <pt x="461" y="310" on="0"/>
        <pt x="461" y="366" on="1"/>
        <pt x="461" y="442" on="0"/>
        <pt x="377" y="530" on="0"/>
        <pt x="283" y="530" on="1"/>
        <pt x="277" y="530" on="0"/>
        <pt x="265" y="530" on="0"/>
        <pt x="258" y="529" on="1"/>
        <pt x="174" y="93" on="1"/>
        <pt x="176" y="93" on="0"/>
        <pt x="182" y="93" on="0"/>
      </contour>
    </TTGlyph>
    <TTGlyph name="D.sc" xMin="31" yMin="-5" xMax="519" yMax="536">
      <contour>
        <pt x="519" y="322" on="1"/>
        <pt x="519" y="256" on="0"/>
        <pt x="471" y="137" on="0"/>
        <pt x="374" y="48" on="0"/>
        <pt x="224" y="-5" on="0"/>
        <pt x="123" y="-5" on="1"/>
        <pt x="101" y="-5" on="0"/>
        <pt x="56" y="-3" on="0"/>
        <pt x="31" y="0" on="1"/>
        <pt x="133" y="527" on="1"/>
        <pt x="164" y="531" on="0"/>
        <pt x="220" y="536" on="0"/>
        <pt x="246" y="536" on="1"/>
        <pt x="375" y="536" on="0"/>
        <pt x="519" y="427" on="0"/>
      </contour>
      <contour>
        <pt x="174" y="87" on="1"/>
        <pt x="234" y="87" on="0"/>
        <pt x="322" y="123" on="0"/>
        <pt x="378" y="184" on="0"/>
        <pt x="405" y="265" on="0"/>
        <pt x="405" y="310" on="1"/>
        <pt x="405" y="373" on="0"/>
        <pt x="331" y="446" on="0"/>
        <pt x="250" y="446" on="1"/>
        <pt x="246" y="446" on="0"/>
        <pt x="236" y="446" on="0"/>
        <pt x="231" y="445" on="1"/>
        <pt x="162" y="87" on="1"/>
        <pt x="165" y="87" on="0"/>
        <pt x="171" y="87" on="0"/>
      </contour>
    </TTGlyph>
    <TTGlyph name="Dcaron" xMin="41" yMin="-6" xMax="582" yMax="893">
      <contour>
        <pt x="376" y="681" on="1"/>
        <pt x="234" y="828" on="1"/>
        <pt x="315" y="893" on="1"/>
        <pt x="400" y="796" on="1"/>
        <pt x="531" y="889" on="1"/>
        <pt x="582" y="829" on="1"/>
      </contour>
      <contour>
        <pt x="575" y="380" on="1"/>
        <pt x="575" y="302" on="0"/>
        <pt x="520" y="162" on="0"/>
        <pt x="411" y="56" on="0"/>
        <pt x="245" y="-6" on="0"/>
        <pt x="136" y="-6" on="1"/>
        <pt x="114" y="-6" on="0"/>
        <pt x="66" y="-3" on="0"/>
        <pt x="41" y="0" on="1"/>
        <pt x="160" y="617" on="1"/>
        <pt x="193" y="622" on="0"/>
        <pt x="255" y="628" on="0"/>
        <pt x="283" y="628" on="1"/>
        <pt x="420" y="628" on="0"/>
        <pt x="575" y="502" on="0"/>
      </contour>
      <contour>
        <pt x="184" y="93" on="1"/>
        <pt x="255" y="93" on="0"/>
        <pt x="360" y="136" on="0"/>
        <pt x="428" y="210" on="0"/>
        <pt x="461" y="310" on="0"/>
        <pt x="461" y="366" on="1"/>
        <pt x="461" y="442" on="0"/>
        <pt x="377" y="530" on="0"/>
        <pt x="283" y="530" on="1"/>
        <pt x="277" y="530" on="0"/>
        <pt x="265" y="530" on="0"/>
        <pt x="258" y="529" on="1"/>
        <pt x="174" y="93" on="1"/>
        <pt x="176" y="93" on="0"/>
        <pt x="182" y="93" on="0"/>
      </contour>
    </TTGlyph>
    <TTGlyph name="Dcaron.sc" xMin="31" yMin="-5" xMax="534" yMax="801">
      <contour>
        <pt x="328" y="589" on="1"/>
        <pt x="186" y="736" on="1"/>
        <pt x="267" y="801" on="1"/>
        <pt x="352" y="704" on="1"/>
        <pt x="483" y="797" on="1"/>
        <pt x="534" y="737" on="1"/>
      </contour>
      <contour>
        <pt x="519" y="322" on="1"/>
        <pt x="519" y="256" on="0"/>
        <pt x="471" y="137" on="0"/>
        <pt x="374" y="48" on="0"/>
        <pt x="224" y="-5" on="0"/>
        <pt x="123" y="-5" on="1"/>
        <pt x="101" y="-5" on="0"/>
        <pt x="56" y="-3" on="0"/>
        <pt x="31" y="0" on="1"/>
        <pt x="133" y="527" on="1"/>
        <pt x="164" y="531" on="0"/>
        <pt x="220" y="536" on="0"/>
        <pt x="246" y="536" on="1"/>
        <pt x="375" y="536" on="0"/>
        <pt x="519" y="427" on="0"/>
      </contour>
      <contour>
        <pt x="174" y="87" on="1"/>
        <pt x="234" y="87" on="0"/>
        <pt x="322" y="123" on="0"/>
        <pt x="378" y="184" on="0"/>
        <pt x="405" y="265" on="0"/>
        <pt x="405" y="310" on="1"/>
        <pt x="405" y="373" on="0"/>
        <pt x="331" y="446" on="0"/>
        <pt x="250" y="446" on="1"/>
        <pt x="246" y="446" on="0"/>
        <pt x="236" y="446" on="0"/>
        <pt x="231" y="445" on="1"/>
        <pt x="162" y="87" on="1"/>
        <pt x="165" y="87" on="0"/>
        <pt x="171" y="87" on="0"/>
      </contour>
    </TTGlyph>
    <TTGlyph name="Dcroat" xMin="30" yMin="-6" xMax="575" yMax="628">
      <contour>
        <pt x="136" y="-6" on="1"/>
        <pt x="114" y="-6" on="0"/>
        <pt x="66" y="-3" on="0"/>
        <pt x="41" y="0" on="1"/>
        <pt x="92" y="266" on="1"/>
        <pt x="30" y="266" on="1"/>
        <pt x="48" y="357" on="1"/>
        <pt x="110" y="357" on="1"/>
        <pt x="160" y="617" on="1"/>
        <pt x="193" y="622" on="0"/>
        <pt x="255" y="628" on="0"/>
        <pt x="283" y="628" on="1"/>
        <pt x="420" y="628" on="0"/>
        <pt x="575" y="502" on="0"/>
        <pt x="575" y="380" on="1"/>
        <pt x="575" y="302" on="0"/>
        <pt x="520" y="162" on="0"/>
        <pt x="411" y="56" on="0"/>
        <pt x="245" y="-6" on="0"/>
      </contour>
      <contour>
        <pt x="184" y="93" on="1"/>
        <pt x="255" y="93" on="0"/>
        <pt x="360" y="136" on="0"/>
        <pt x="428" y="210" on="0"/>
        <pt x="461" y="310" on="0"/>
        <pt x="461" y="366" on="1"/>
        <pt x="461" y="442" on="0"/>
        <pt x="377" y="530" on="0"/>
        <pt x="283" y="530" on="1"/>
        <pt x="277" y="530" on="0"/>
        <pt x="265" y="530" on="0"/>
        <pt x="258" y="529" on="1"/>
        <pt x="225" y="357" on="1"/>
        <pt x="353" y="357" on="1"/>
        <pt x="335" y="266" on="1"/>
        <pt x="207" y="266" on="1"/>
        <pt x="174" y="93" on="1"/>
        <pt x="176" y="93" on="0"/>
        <pt x="182" y="93" on="0"/>
      </contour>
    </TTGlyph>
    <TTGlyph name="Dcroat.sc" xMin="21" yMin="-5" xMax="519" yMax="536">
      <contour>
        <pt x="123" y="-5" on="1"/>
        <pt x="101" y="-5" on="0"/>
        <pt x="56" y="-3" on="0"/>
        <pt x="31" y="0" on="1"/>
        <pt x="75" y="226" on="1"/>
        <pt x="21" y="226" on="1"/>
        <pt x="37" y="308" on="1"/>
        <pt x="91" y="308" on="1"/>
        <pt x="133" y="527" on="1"/>
        <pt x="164" y="531" on="0"/>
        <pt x="220" y="536" on="0"/>
        <pt x="246" y="536" on="1"/>
        <pt x="375" y="536" on="0"/>
        <pt x="519" y="427" on="0"/>
        <pt x="519" y="322" on="1"/>
        <pt x="519" y="256" on="0"/>
        <pt x="471" y="137" on="0"/>
        <pt x="374" y="48" on="0"/>
        <pt x="224" y="-5" on="0"/>
      </contour>
      <contour>
        <pt x="174" y="87" on="1"/>
        <pt x="234" y="87" on="0"/>
        <pt x="322" y="123" on="0"/>
        <pt x="378" y="184" on="0"/>
        <pt x="405" y="265" on="0"/>
        <pt x="405" y="310" on="1"/>
        <pt x="405" y="373" on="0"/>
        <pt x="331" y="446" on="0"/>
        <pt x="250" y="446" on="1"/>
        <pt x="246" y="446" on="0"/>
        <pt x="236" y="446" on="0"/>
        <pt x="231" y="445" on="1"/>
        <pt x="205" y="308" on="1"/>
        <pt x="310" y="308" on="1"/>
        <pt x="289" y="226" on="1"/>
        <pt x="189" y="226" on="1"/>
        <pt x="162" y="87" on="1"/>
        <pt x="165" y="87" on="0"/>
        <pt x="171" y="87" on="0"/>
      </contour>
    </TTGlyph>
    <TTGlyph name="E" xMin="41" yMin="0" xMax="526" yMax="620">
      <contour>
        <pt x="431" y="102" on="1"/>
        <pt x="401" y="0" on="1"/>
        <pt x="41" y="0" on="1"/>
        <pt x="161" y="620" on="1"/>
        <pt x="526" y="620" on="1"/>
        <pt x="506" y="518" on="1"/>
        <pt x="256" y="518" on="1"/>
        <pt x="225" y="355" on="1"/>
        <pt x="440" y="355" on="1"/>
        <pt x="422" y="267" on="1"/>
        <pt x="208" y="267" on="1"/>
        <pt x="176" y="102" on="1"/>
      </contour>
    </TTGlyph>
    <TTGlyph name="E.sc" xMin="31" yMin="0" xMax="471" yMax="530">
      <contour>
        <pt x="392" y="93" on="1"/>
        <pt x="364" y="0" on="1"/>
        <pt x="31" y="0" on="1"/>
        <pt x="134" y="530" on="1"/>
        <pt x="471" y="530" on="1"/>
        <pt x="453" y="437" on="1"/>
        <pt x="230" y="437" on="1"/>
        <pt x="204" y="305" on="1"/>
        <pt x="395" y="305" on="1"/>
        <pt x="379" y="226" on="1"/>
        <pt x="189" y="226" on="1"/>
        <pt x="163" y="93" on="1"/>
      </contour>
    </TTGlyph>
    <TTGlyph name="Eacute" xMin="41" yMin="0" xMax="538" yMax="899">
      <contour>
        <pt x="247" y="734" on="1"/>
        <pt x="266" y="745" on="0"/>
        <pt x="323" y="784" on="0"/>
        <pt x="383" y="830" on="0"/>
        <pt x="441" y="878" on="0"/>
        <pt x="463" y="899" on="1"/>
        <pt x="538" y="805" on="1"/>
        <pt x="513" y="787" on="0"/>
        <pt x="440" y="749" on="0"/>
        <pt x="364" y="715" on="0"/>
        <pt x="292" y="689" on="0"/>
        <pt x="268" y="682" on="1"/>
      </contour>
      <contour>
        <pt x="431" y="102" on="1"/>
        <pt x="401" y="0" on="1"/>
        <pt x="41" y="0" on="1"/>
        <pt x="161" y="620" on="1"/>
        <pt x="526" y="620" on="1"/>
        <pt x="506" y="518" on="1"/>
        <pt x="256" y="518" on="1"/>
        <pt x="225" y="355" on="1"/>
        <pt x="440" y="355" on="1"/>
        <pt x="422" y="267" on="1"/>
        <pt x="208" y="267" on="1"/>
        <pt x="176" y="102" on="1"/>
      </contour>
    </TTGlyph>
    <TTGlyph name="Eacute.sc" xMin="31" yMin="0" xMax="499" yMax="809">
      <contour>
        <pt x="208" y="644" on="1"/>
        <pt x="227" y="655" on="0"/>
        <pt x="284" y="694" on="0"/>
        <pt x="344" y="740" on="0"/>
        <pt x="402" y="788" on="0"/>
        <pt x="424" y="809" on="1"/>
        <pt x="499" y="715" on="1"/>
        <pt x="474" y="697" on="0"/>
        <pt x="401" y="659" on="0"/>
        <pt x="325" y="625" on="0"/>
        <pt x="253" y="599" on="0"/>
        <pt x="229" y="592" on="1"/>
      </contour>
      <contour>
        <pt x="392" y="93" on="1"/>
        <pt x="364" y="0" on="1"/>
        <pt x="31" y="0" on="1"/>
        <pt x="134" y="530" on="1"/>
        <pt x="471" y="530" on="1"/>
        <pt x="453" y="437" on="1"/>
        <pt x="230" y="437" on="1"/>
        <pt x="204" y="305" on="1"/>
        <pt x="395" y="305" on="1"/>
        <pt x="379" y="226" on="1"/>
        <pt x="189" y="226" on="1"/>
        <pt x="163" y="93" on="1"/>
      </contour>
    </TTGlyph>
    <TTGlyph name="Ebreve" xMin="41" yMin="0" xMax="568" yMax="881">
      <contour>
        <pt x="502" y="872" on="1"/>
        <pt x="568" y="831" on="1"/>
        <pt x="514" y="759" on="0"/>
        <pt x="402" y="684" on="0"/>
        <pt x="352" y="684" on="1"/>
        <pt x="303" y="684" on="0"/>
        <pt x="220" y="756" on="0"/>
        <pt x="195" y="829" on="1"/>
        <pt x="282" y="881" on="1"/>
        <pt x="303" y="827" on="0"/>
        <pt x="348" y="779" on="0"/>
        <pt x="379" y="779" on="1"/>
        <pt x="408" y="779" on="0"/>
        <pt x="466" y="828" on="0"/>
      </contour>
      <contour>
        <pt x="431" y="102" on="1"/>
        <pt x="401" y="0" on="1"/>
        <pt x="41" y="0" on="1"/>
        <pt x="161" y="620" on="1"/>
        <pt x="526" y="620" on="1"/>
        <pt x="506" y="518" on="1"/>
        <pt x="256" y="518" on="1"/>
        <pt x="225" y="355" on="1"/>
        <pt x="440" y="355" on="1"/>
        <pt x="422" y="267" on="1"/>
        <pt x="208" y="267" on="1"/>
        <pt x="176" y="102" on="1"/>
      </contour>
    </TTGlyph>
    <TTGlyph name="Ebreve.sc" xMin="31" yMin="0" xMax="529" yMax="791">
      <contour>
        <pt x="463" y="782" on="1"/>
        <pt x="529" y="741" on="1"/>
        <pt x="475" y="669" on="0"/>
        <pt x="363" y="594" on="0"/>
        <pt x="313" y="594" on="1"/>
        <pt x="264" y="594" on="0"/>
        <pt x="181" y="666" on="0"/>
        <pt x="156" y="739" on="1"/>
        <pt x="243" y="791" on="1"/>
        <pt x="264" y="737" on="0"/>
        <pt x="309" y="689" on="0"/>
        <pt x="340" y="689" on="1"/>
        <pt x="369" y="689" on="0"/>
        <pt x="427" y="738" on="0"/>
      </contour>
      <contour>
        <pt x="392" y="93" on="1"/>
        <pt x="364" y="0" on="1"/>
        <pt x="31" y="0" on="1"/>
        <pt x="134" y="530" on="1"/>
        <pt x="471" y="530" on="1"/>
        <pt x="453" y="437" on="1"/>
        <pt x="230" y="437" on="1"/>
        <pt x="204" y="305" on="1"/>
        <pt x="395" y="305" on="1"/>
        <pt x="379" y="226" on="1"/>
        <pt x="189" y="226" on="1"/>
        <pt x="163" y="93" on="1"/>
      </contour>
    </TTGlyph>
    <TTGlyph name="Ecaron" xMin="41" yMin="0" xMax="556" yMax="885">
      <contour>
        <pt x="350" y="673" on="1"/>
        <pt x="208" y="820" on="1"/>
        <pt x="289" y="885" on="1"/>
        <pt x="374" y="788" on="1"/>
        <pt x="505" y="881" on="1"/>
        <pt x="556" y="821" on="1"/>
      </contour>
      <contour>
        <pt x="431" y="102" on="1"/>
        <pt x="401" y="0" on="1"/>
        <pt x="41" y="0" on="1"/>
        <pt x="161" y="620" on="1"/>
        <pt x="526" y="620" on="1"/>
        <pt x="506" y="518" on="1"/>
        <pt x="256" y="518" on="1"/>
        <pt x="225" y="355" on="1"/>
        <pt x="440" y="355" on="1"/>
        <pt x="422" y="267" on="1"/>
        <pt x="208" y="267" on="1"/>
        <pt x="176" y="102" on="1"/>
      </contour>
    </TTGlyph>
    <TTGlyph name="Ecaron.sc" xMin="31" yMin="0" xMax="518" yMax="795">
      <contour>
        <pt x="312" y="583" on="1"/>
        <pt x="170" y="730" on="1"/>
        <pt x="251" y="795" on="1"/>
        <pt x="336" y="698" on="1"/>
        <pt x="467" y="791" on="1"/>
        <pt x="518" y="731" on="1"/>
      </contour>
      <contour>
        <pt x="392" y="93" on="1"/>
        <pt x="364" y="0" on="1"/>
        <pt x="31" y="0" on="1"/>
        <pt x="134" y="530" on="1"/>
        <pt x="471" y="530" on="1"/>
        <pt x="453" y="437" on="1"/>
        <pt x="230" y="437" on="1"/>
        <pt x="204" y="305" on="1"/>
        <pt x="395" y="305" on="1"/>
        <pt x="379" y="226" on="1"/>
        <pt x="189" y="226" on="1"/>
        <pt x="163" y="93" on="1"/>
      </contour>
    </TTGlyph>
    <TTGlyph name="Ecircumflex" xMin="41" yMin="0" xMax="535" yMax="890">
      <contour>
        <pt x="454" y="678" on="1"/>
        <pt x="369" y="775" on="1"/>
        <pt x="238" y="682" on="1"/>
        <pt x="187" y="742" on="1"/>
        <pt x="393" y="890" on="1"/>
        <pt x="535" y="743" on="1"/>
      </contour>
      <contour>
        <pt x="431" y="102" on="1"/>
        <pt x="401" y="0" on="1"/>
        <pt x="41" y="0" on="1"/>
        <pt x="161" y="620" on="1"/>
        <pt x="526" y="620" on="1"/>
        <pt x="506" y="518" on="1"/>
        <pt x="256" y="518" on="1"/>
        <pt x="225" y="355" on="1"/>
        <pt x="440" y="355" on="1"/>
        <pt x="422" y="267" on="1"/>
        <pt x="208" y="267" on="1"/>
        <pt x="176" y="102" on="1"/>
      </contour>
    </TTGlyph>
    <TTGlyph name="Ecircumflex.sc" xMin="31" yMin="0" xMax="497" yMax="800">
      <contour>
        <pt x="416" y="588" on="1"/>
        <pt x="331" y="685" on="1"/>
        <pt x="200" y="592" on="1"/>
        <pt x="149" y="652" on="1"/>
        <pt x="355" y="800" on="1"/>
        <pt x="497" y="653" on="1"/>
      </contour>
      <contour>
        <pt x="392" y="93" on="1"/>
        <pt x="364" y="0" on="1"/>
        <pt x="31" y="0" on="1"/>
        <pt x="134" y="530" on="1"/>
        <pt x="471" y="530" on="1"/>
        <pt x="453" y="437" on="1"/>
        <pt x="230" y="437" on="1"/>
        <pt x="204" y="305" on="1"/>
        <pt x="395" y="305" on="1"/>
        <pt x="379" y="226" on="1"/>
        <pt x="189" y="226" on="1"/>
        <pt x="163" y="93" on="1"/>
      </contour>
    </TTGlyph>
    <TTGlyph name="Edieresis" xMin="41" yMin="0" xMax="553" yMax="833">
      <contour>
        <pt x="510" y="702" on="1"/>
        <pt x="385" y="700" on="1"/>
        <pt x="417" y="830" on="1"/>
        <pt x="553" y="833" on="1"/>
      </contour>
      <contour>
        <pt x="310" y="701" on="1"/>
        <pt x="184" y="698" on="1"/>
        <pt x="217" y="829" on="1"/>
        <pt x="352" y="831" on="1"/>
      </contour>
      <contour>
        <pt x="431" y="102" on="1"/>
        <pt x="401" y="0" on="1"/>
        <pt x="41" y="0" on="1"/>
        <pt x="161" y="620" on="1"/>
        <pt x="526" y="620" on="1"/>
        <pt x="506" y="518" on="1"/>
        <pt x="256" y="518" on="1"/>
        <pt x="225" y="355" on="1"/>
        <pt x="440" y="355" on="1"/>
        <pt x="422" y="267" on="1"/>
        <pt x="208" y="267" on="1"/>
        <pt x="176" y="102" on="1"/>
      </contour>
    </TTGlyph>
    <TTGlyph name="Edieresis.sc" xMin="31" yMin="0" xMax="514" yMax="743">
      <contour>
        <pt x="471" y="612" on="1"/>
        <pt x="346" y="610" on="1"/>
        <pt x="378" y="740" on="1"/>
        <pt x="514" y="743" on="1"/>
      </contour>
      <contour>
        <pt x="271" y="611" on="1"/>
        <pt x="145" y="608" on="1"/>
        <pt x="178" y="739" on="1"/>
        <pt x="313" y="741" on="1"/>
      </contour>
      <contour>
        <pt x="392" y="93" on="1"/>
        <pt x="364" y="0" on="1"/>
        <pt x="31" y="0" on="1"/>
        <pt x="134" y="530" on="1"/>
        <pt x="471" y="530" on="1"/>
        <pt x="453" y="437" on="1"/>
        <pt x="230" y="437" on="1"/>
        <pt x="204" y="305" on="1"/>
        <pt x="395" y="305" on="1"/>
        <pt x="379" y="226" on="1"/>
        <pt x="189" y="226" on="1"/>
        <pt x="163" y="93" on="1"/>
      </contour>
    </TTGlyph>
    <TTGlyph name="Edotaccent" xMin="41" yMin="0" xMax="526" yMax="831">
      <contour>
        <pt x="409" y="700" on="1"/>
        <pt x="283" y="699" on="1"/>
        <pt x="316" y="830" on="1"/>
        <pt x="452" y="831" on="1"/>
      </contour>
      <contour>
        <pt x="431" y="102" on="1"/>
        <pt x="401" y="0" on="1"/>
        <pt x="41" y="0" on="1"/>
        <pt x="161" y="620" on="1"/>
        <pt x="526" y="620" on="1"/>
        <pt x="506" y="518" on="1"/>
        <pt x="256" y="518" on="1"/>
        <pt x="225" y="355" on="1"/>
        <pt x="440" y="355" on="1"/>
        <pt x="422" y="267" on="1"/>
        <pt x="208" y="267" on="1"/>
        <pt x="176" y="102" on="1"/>
      </contour>
    </TTGlyph>
    <TTGlyph name="Edotaccent.sc" xMin="31" yMin="0" xMax="471" yMax="741">
      <contour>
        <pt x="371" y="610" on="1"/>
        <pt x="245" y="609" on="1"/>
        <pt x="278" y="740" on="1"/>
        <pt x="414" y="741" on="1"/>
      </contour>
      <contour>
        <pt x="392" y="93" on="1"/>
        <pt x="364" y="0" on="1"/>
        <pt x="31" y="0" on="1"/>
        <pt x="134" y="530" on="1"/>
        <pt x="471" y="530" on="1"/>
        <pt x="453" y="437" on="1"/>
        <pt x="230" y="437" on="1"/>
        <pt x="204" y="305" on="1"/>
        <pt x="395" y="305" on="1"/>
        <pt x="379" y="226" on="1"/>
        <pt x="189" y="226" on="1"/>
        <pt x="163" y="93" on="1"/>
      </contour>
    </TTGlyph>
    <TTGlyph name="Egrave" xMin="41" yMin="0" xMax="526" yMax="902">
      <contour>
        <pt x="453" y="728" on="1"/>
        <pt x="427" y="678" on="1"/>
        <pt x="404" y="687" on="0"/>
        <pt x="340" y="717" on="0"/>
        <pt x="272" y="753" on="0"/>
        <pt x="207" y="791" on="0"/>
        <pt x="183" y="806" on="1"/>
        <pt x="252" y="902" on="1"/>
        <pt x="274" y="881" on="0"/>
        <pt x="328" y="831" on="0"/>
        <pt x="382" y="784" on="0"/>
        <pt x="434" y="742" on="0"/>
      </contour>
      <contour>
        <pt x="431" y="102" on="1"/>
        <pt x="401" y="0" on="1"/>
        <pt x="41" y="0" on="1"/>
        <pt x="161" y="620" on="1"/>
        <pt x="526" y="620" on="1"/>
        <pt x="506" y="518" on="1"/>
        <pt x="256" y="518" on="1"/>
        <pt x="225" y="355" on="1"/>
        <pt x="440" y="355" on="1"/>
        <pt x="422" y="267" on="1"/>
        <pt x="208" y="267" on="1"/>
        <pt x="176" y="102" on="1"/>
      </contour>
    </TTGlyph>
    <TTGlyph name="Egrave.sc" xMin="31" yMin="0" xMax="471" yMax="812">
      <contour>
        <pt x="414" y="638" on="1"/>
        <pt x="388" y="588" on="1"/>
        <pt x="365" y="597" on="0"/>
        <pt x="301" y="627" on="0"/>
        <pt x="233" y="663" on="0"/>
        <pt x="168" y="701" on="0"/>
        <pt x="144" y="716" on="1"/>
        <pt x="213" y="812" on="1"/>
        <pt x="235" y="791" on="0"/>
        <pt x="289" y="741" on="0"/>
        <pt x="343" y="694" on="0"/>
        <pt x="395" y="652" on="0"/>
      </contour>
      <contour>
        <pt x="392" y="93" on="1"/>
        <pt x="364" y="0" on="1"/>
        <pt x="31" y="0" on="1"/>
        <pt x="134" y="530" on="1"/>
        <pt x="471" y="530" on="1"/>
        <pt x="453" y="437" on="1"/>
        <pt x="230" y="437" on="1"/>
        <pt x="204" y="305" on="1"/>
        <pt x="395" y="305" on="1"/>
        <pt x="379" y="226" on="1"/>
        <pt x="189" y="226" on="1"/>
        <pt x="163" y="93" on="1"/>
      </contour>
    </TTGlyph>
    <TTGlyph name="Emacron" xMin="41" yMin="0" xMax="538" yMax="815">
      <contour>
        <pt x="538" y="815" on="1"/>
        <pt x="518" y="714" on="1"/>
        <pt x="196" y="714" on="1"/>
        <pt x="216" y="815" on="1"/>
      </contour>
      <contour>
        <pt x="431" y="102" on="1"/>
        <pt x="401" y="0" on="1"/>
        <pt x="41" y="0" on="1"/>
        <pt x="161" y="620" on="1"/>
        <pt x="526" y="620" on="1"/>
        <pt x="506" y="518" on="1"/>
        <pt x="256" y="518" on="1"/>
        <pt x="225" y="355" on="1"/>
        <pt x="440" y="355" on="1"/>
        <pt x="422" y="267" on="1"/>
        <pt x="208" y="267" on="1"/>
        <pt x="176" y="102" on="1"/>
      </contour>
    </TTGlyph>
    <TTGlyph name="Emacron.sc" xMin="31" yMin="0" xMax="500" yMax="725">
      <contour>
        <pt x="500" y="725" on="1"/>
        <pt x="480" y="624" on="1"/>
        <pt x="158" y="624" on="1"/>
        <pt x="178" y="725" on="1"/>
      </contour>
      <contour>
        <pt x="392" y="93" on="1"/>
        <pt x="364" y="0" on="1"/>
        <pt x="31" y="0" on="1"/>
        <pt x="134" y="530" on="1"/>
        <pt x="471" y="530" on="1"/>
        <pt x="453" y="437" on="1"/>
        <pt x="230" y="437" on="1"/>
        <pt x="204" y="305" on="1"/>
        <pt x="395" y="305" on="1"/>
        <pt x="379" y="226" on="1"/>
        <pt x="189" y="226" on="1"/>
        <pt x="163" y="93" on="1"/>
      </contour>
    </TTGlyph>
    <TTGlyph name="Eogonek" xMin="41" yMin="-208" xMax="526" yMax="620">
      <contour>
        <pt x="372" y="-161" on="1"/>
        <pt x="326" y="-186" on="0"/>
        <pt x="252" y="-208" on="0"/>
        <pt x="223" y="-208" on="1"/>
        <pt x="179" y="-208" on="0"/>
        <pt x="133" y="-164" on="0"/>
        <pt x="133" y="-132" on="1"/>
        <pt x="133" y="-101" on="0"/>
        <pt x="187" y="-32" on="0"/>
        <pt x="247" y="0" on="1"/>
        <pt x="41" y="0" on="1"/>
        <pt x="161" y="620" on="1"/>
        <pt x="526" y="620" on="1"/>
        <pt x="506" y="518" on="1"/>
        <pt x="256" y="518" on="1"/>
        <pt x="225" y="355" on="1"/>
        <pt x="440" y="355" on="1"/>
        <pt x="422" y="267" on="1"/>
        <pt x="208" y="267" on="1"/>
        <pt x="176" y="102" on="1"/>
        <pt x="431" y="102" on="1"/>
        <pt x="401" y="0" on="1"/>
        <pt x="314" y="-20" on="0"/>
        <pt x="237" y="-73" on="0"/>
        <pt x="237" y="-96" on="1"/>
        <pt x="237" y="-110" on="0"/>
        <pt x="257" y="-128" on="0"/>
        <pt x="280" y="-128" on="1"/>
        <pt x="294" y="-128" on="0"/>
        <pt x="334" y="-120" on="0"/>
        <pt x="359" y="-111" on="1"/>
      </contour>
    </TTGlyph>
    <TTGlyph name="Eogonek.sc" xMin="31" yMin="-208" xMax="471" yMax="530">
      <contour>
        <pt x="336" y="-161" on="1"/>
        <pt x="290" y="-186" on="0"/>
        <pt x="216" y="-208" on="0"/>
        <pt x="187" y="-208" on="1"/>
        <pt x="143" y="-208" on="0"/>
        <pt x="97" y="-164" on="0"/>
        <pt x="97" y="-132" on="1"/>
        <pt x="97" y="-101" on="0"/>
        <pt x="151" y="-32" on="0"/>
        <pt x="211" y="0" on="1"/>
        <pt x="31" y="0" on="1"/>
        <pt x="134" y="530" on="1"/>
        <pt x="471" y="530" on="1"/>
        <pt x="453" y="437" on="1"/>
        <pt x="230" y="437" on="1"/>
        <pt x="204" y="305" on="1"/>
        <pt x="395" y="305" on="1"/>
        <pt x="379" y="226" on="1"/>
        <pt x="189" y="226" on="1"/>
        <pt x="163" y="93" on="1"/>
        <pt x="392" y="93" on="1"/>
        <pt x="364" y="1" on="1"/>
        <pt x="365" y="0" on="1"/>
        <pt x="278" y="-20" on="0"/>
        <pt x="201" y="-73" on="0"/>
        <pt x="201" y="-96" on="1"/>
        <pt x="201" y="-110" on="0"/>
        <pt x="221" y="-128" on="0"/>
        <pt x="244" y="-128" on="1"/>
        <pt x="258" y="-128" on="0"/>
        <pt x="298" y="-120" on="0"/>
        <pt x="323" y="-111" on="1"/>
      </contour>
    </TTGlyph>
    <TTGlyph name="Eth" xMin="30" yMin="-6" xMax="575" yMax="628">
      <contour>
        <pt x="136" y="-6" on="1"/>
        <pt x="114" y="-6" on="0"/>
        <pt x="66" y="-3" on="0"/>
        <pt x="41" y="0" on="1"/>
        <pt x="92" y="266" on="1"/>
        <pt x="30" y="266" on="1"/>
        <pt x="48" y="357" on="1"/>
        <pt x="110" y="357" on="1"/>
        <pt x="160" y="617" on="1"/>
        <pt x="193" y="622" on="0"/>
        <pt x="255" y="628" on="0"/>
        <pt x="283" y="628" on="1"/>
        <pt x="420" y="628" on="0"/>
        <pt x="575" y="502" on="0"/>
        <pt x="575" y="380" on="1"/>
        <pt x="575" y="302" on="0"/>
        <pt x="520" y="162" on="0"/>
        <pt x="411" y="56" on="0"/>
        <pt x="245" y="-6" on="0"/>
      </contour>
      <contour>
        <pt x="184" y="93" on="1"/>
        <pt x="255" y="93" on="0"/>
        <pt x="360" y="136" on="0"/>
        <pt x="428" y="210" on="0"/>
        <pt x="461" y="310" on="0"/>
        <pt x="461" y="366" on="1"/>
        <pt x="461" y="442" on="0"/>
        <pt x="377" y="530" on="0"/>
        <pt x="283" y="530" on="1"/>
        <pt x="277" y="530" on="0"/>
        <pt x="265" y="530" on="0"/>
        <pt x="258" y="529" on="1"/>
        <pt x="225" y="357" on="1"/>
        <pt x="353" y="357" on="1"/>
        <pt x="335" y="266" on="1"/>
        <pt x="207" y="266" on="1"/>
        <pt x="174" y="93" on="1"/>
        <pt x="176" y="93" on="0"/>
        <pt x="182" y="93" on="0"/>
      </contour>
    </TTGlyph>
    <TTGlyph name="Eth.sc" xMin="21" yMin="-5" xMax="519" yMax="536">
      <contour>
        <pt x="123" y="-5" on="1"/>
        <pt x="101" y="-5" on="0"/>
        <pt x="56" y="-3" on="0"/>
        <pt x="31" y="0" on="1"/>
        <pt x="75" y="226" on="1"/>
        <pt x="21" y="226" on="1"/>
        <pt x="37" y="308" on="1"/>
        <pt x="91" y="308" on="1"/>
        <pt x="133" y="527" on="1"/>
        <pt x="164" y="531" on="0"/>
        <pt x="220" y="536" on="0"/>
        <pt x="246" y="536" on="1"/>
        <pt x="375" y="536" on="0"/>
        <pt x="519" y="427" on="0"/>
        <pt x="519" y="322" on="1"/>
        <pt x="519" y="256" on="0"/>
        <pt x="471" y="137" on="0"/>
        <pt x="374" y="48" on="0"/>
        <pt x="224" y="-5" on="0"/>
      </contour>
      <contour>
        <pt x="174" y="87" on="1"/>
        <pt x="234" y="87" on="0"/>
        <pt x="322" y="123" on="0"/>
        <pt x="378" y="184" on="0"/>
        <pt x="405" y="265" on="0"/>
        <pt x="405" y="310" on="1"/>
        <pt x="405" y="373" on="0"/>
        <pt x="331" y="446" on="0"/>
        <pt x="250" y="446" on="1"/>
        <pt x="246" y="446" on="0"/>
        <pt x="236" y="446" on="0"/>
        <pt x="231" y="445" on="1"/>
        <pt x="205" y="308" on="1"/>
        <pt x="310" y="308" on="1"/>
        <pt x="289" y="226" on="1"/>
        <pt x="189" y="226" on="1"/>
        <pt x="162" y="87" on="1"/>
        <pt x="165" y="87" on="0"/>
        <pt x="171" y="87" on="0"/>
      </contour>
    </TTGlyph>
    <TTGlyph name="Euro" xMin="34" yMin="-12" xMax="569" yMax="634">
      <contour>
        <pt x="493" y="42" on="1"/>
        <pt x="436" y="14" on="0"/>
        <pt x="338" y="-12" on="0"/>
        <pt x="299" y="-12" on="1"/>
        <pt x="216" y="-12" on="0"/>
        <pt x="125" y="88" on="0"/>
        <pt x="114" y="164" on="1"/>
        <pt x="34" y="164" on="1"/>
        <pt x="54" y="264" on="1"/>
        <pt x="112" y="264" on="1"/>
        <pt x="113" y="280" on="0"/>
        <pt x="118" y="311" on="0"/>
        <pt x="121" y="326" on="1"/>
        <pt x="63" y="326" on="1"/>
        <pt x="83" y="426" on="1"/>
        <pt x="155" y="426" on="1"/>
        <pt x="198" y="517" on="0"/>
        <pt x="344" y="634" on="0"/>
        <pt x="427" y="634" on="1"/>
        <pt x="490" y="634" on="0"/>
        <pt x="560" y="560" on="0"/>
        <pt x="569" y="481" on="1"/>
        <pt x="462" y="463" on="1"/>
        <pt x="454" y="500" on="0"/>
        <pt x="424" y="534" on="0"/>
        <pt x="393" y="534" on="1"/>
        <pt x="349" y="534" on="0"/>
        <pt x="278" y="466" on="0"/>
        <pt x="254" y="416" on="1"/>
        <pt x="472" y="416" on="1"/>
        <pt x="449" y="326" on="1"/>
        <pt x="224" y="326" on="1"/>
        <pt x="221" y="311" on="0"/>
        <pt x="217" y="281" on="0"/>
        <pt x="216" y="267" on="1"/>
        <pt x="435" y="267" on="1"/>
        <pt x="413" y="177" on="1"/>
        <pt x="221" y="177" on="1"/>
        <pt x="231" y="132" on="0"/>
        <pt x="290" y="87" on="0"/>
        <pt x="346" y="87" on="1"/>
        <pt x="373" y="87" on="0"/>
        <pt x="440" y="97" on="0"/>
        <pt x="480" y="107" on="1"/>
      </contour>
    </TTGlyph>
    <TTGlyph name="F" xMin="41" yMin="0" xMax="525" yMax="620">
      <contour>
        <pt x="420" y="258" on="1"/>
        <pt x="205" y="258" on="1"/>
        <pt x="155" y="0" on="1"/>
        <pt x="41" y="0" on="1"/>
        <pt x="161" y="620" on="1"/>
        <pt x="525" y="620" on="1"/>
        <pt x="506" y="518" on="1"/>
        <pt x="256" y="518" on="1"/>
        <pt x="222" y="346" on="1"/>
        <pt x="437" y="346" on="1"/>
      </contour>
    </TTGlyph>
    <TTGlyph name="F.sc" xMin="31" yMin="0" xMax="470" yMax="530">
      <contour>
        <pt x="377" y="215" on="1"/>
        <pt x="187" y="215" on="1"/>
        <pt x="145" y="0" on="1"/>
        <pt x="31" y="0" on="1"/>
        <pt x="134" y="530" on="1"/>
        <pt x="470" y="530" on="1"/>
        <pt x="453" y="436" on="1"/>
        <pt x="230" y="436" on="1"/>
        <pt x="203" y="297" on="1"/>
        <pt x="393" y="297" on="1"/>
      </contour>
    </TTGlyph>
    <TTGlyph name="G" xMin="57" yMin="-113" xMax="556" yMax="633">
      <contour>
        <pt x="450" y="-111" on="1"/>
        <pt x="342" y="-113" on="1"/>
        <pt x="369" y="1" on="1"/>
        <pt x="346" y="-5" on="0"/>
        <pt x="301" y="-10" on="0"/>
        <pt x="281" y="-10" on="1"/>
        <pt x="178" y="-10" on="0"/>
        <pt x="57" y="116" on="0"/>
        <pt x="57" y="229" on="1"/>
        <pt x="57" y="308" on="0"/>
        <pt x="112" y="454" on="0"/>
        <pt x="205" y="566" on="0"/>
        <pt x="328" y="633" on="0"/>
        <pt x="394" y="633" on="1"/>
        <pt x="485" y="633" on="0"/>
        <pt x="556" y="514" on="0"/>
        <pt x="556" y="396" on="1"/>
        <pt x="556" y="390" on="1"/>
        <pt x="446" y="388" on="1"/>
        <pt x="444" y="463" on="0"/>
        <pt x="410" y="530" on="0"/>
        <pt x="362" y="530" on="1"/>
        <pt x="316" y="530" on="0"/>
        <pt x="245" y="479" on="0"/>
        <pt x="197" y="399" on="0"/>
        <pt x="172" y="300" on="0"/>
        <pt x="172" y="253" on="1"/>
        <pt x="172" y="176" on="0"/>
        <pt x="243" y="91" on="0"/>
        <pt x="317" y="91" on="1"/>
        <pt x="334" y="91" on="0"/>
        <pt x="372" y="96" on="0"/>
        <pt x="392" y="100" on="1"/>
        <pt x="426" y="242" on="1"/>
        <pt x="538" y="246" on="1"/>
      </contour>
    </TTGlyph>
    <TTGlyph name="G.sc" xMin="42" yMin="-94" xMax="498" yMax="542">
      <contour>
        <pt x="408" y="-93" on="1"/>
        <pt x="302" y="-94" on="1"/>
        <pt x="324" y="1" on="1"/>
        <pt x="305" y="-3" on="0"/>
        <pt x="267" y="-7" on="0"/>
        <pt x="249" y="-7" on="1"/>
        <pt x="153" y="-7" on="0"/>
        <pt x="42" y="102" on="0"/>
        <pt x="42" y="199" on="1"/>
        <pt x="42" y="265" on="0"/>
        <pt x="91" y="390" on="0"/>
        <pt x="174" y="485" on="0"/>
        <pt x="285" y="542" on="0"/>
        <pt x="346" y="542" on="1"/>
        <pt x="430" y="542" on="0"/>
        <pt x="498" y="437" on="0"/>
        <pt x="498" y="331" on="1"/>
        <pt x="390" y="329" on="1"/>
        <pt x="388" y="391" on="0"/>
        <pt x="357" y="445" on="0"/>
        <pt x="317" y="445" on="1"/>
        <pt x="278" y="445" on="0"/>
        <pt x="217" y="403" on="0"/>
        <pt x="177" y="338" on="0"/>
        <pt x="156" y="257" on="0"/>
        <pt x="156" y="219" on="1"/>
        <pt x="156" y="154" on="0"/>
        <pt x="223" y="83" on="0"/>
        <pt x="292" y="83" on="1"/>
        <pt x="304" y="83" on="0"/>
        <pt x="331" y="85" on="0"/>
        <pt x="345" y="87" on="1"/>
        <pt x="374" y="209" on="1"/>
        <pt x="483" y="213" on="1"/>
      </contour>
    </TTGlyph>
    <TTGlyph name="Gbreve" xMin="57" yMin="-113" xMax="620" yMax="894">
      <contour>
        <pt x="554" y="885" on="1"/>
        <pt x="620" y="844" on="1"/>
        <pt x="566" y="772" on="0"/>
        <pt x="454" y="697" on="0"/>
        <pt x="404" y="697" on="1"/>
        <pt x="355" y="697" on="0"/>
        <pt x="272" y="769" on="0"/>
        <pt x="247" y="842" on="1"/>
        <pt x="334" y="894" on="1"/>
        <pt x="355" y="840" on="0"/>
        <pt x="400" y="792" on="0"/>
        <pt x="431" y="792" on="1"/>
        <pt x="460" y="792" on="0"/>
        <pt x="518" y="841" on="0"/>
      </contour>
      <contour>
        <pt x="450" y="-111" on="1"/>
        <pt x="342" y="-113" on="1"/>
        <pt x="369" y="1" on="1"/>
        <pt x="346" y="-5" on="0"/>
        <pt x="301" y="-10" on="0"/>
        <pt x="281" y="-10" on="1"/>
        <pt x="178" y="-10" on="0"/>
        <pt x="57" y="116" on="0"/>
        <pt x="57" y="229" on="1"/>
        <pt x="57" y="308" on="0"/>
        <pt x="112" y="454" on="0"/>
        <pt x="205" y="566" on="0"/>
        <pt x="328" y="633" on="0"/>
        <pt x="394" y="633" on="1"/>
        <pt x="485" y="633" on="0"/>
        <pt x="556" y="514" on="0"/>
        <pt x="556" y="396" on="1"/>
        <pt x="556" y="390" on="1"/>
        <pt x="446" y="388" on="1"/>
        <pt x="444" y="463" on="0"/>
        <pt x="410" y="530" on="0"/>
        <pt x="362" y="530" on="1"/>
        <pt x="316" y="530" on="0"/>
        <pt x="245" y="479" on="0"/>
        <pt x="197" y="399" on="0"/>
        <pt x="172" y="300" on="0"/>
        <pt x="172" y="253" on="1"/>
        <pt x="172" y="176" on="0"/>
        <pt x="243" y="91" on="0"/>
        <pt x="317" y="91" on="1"/>
        <pt x="334" y="91" on="0"/>
        <pt x="372" y="96" on="0"/>
        <pt x="392" y="100" on="1"/>
        <pt x="426" y="242" on="1"/>
        <pt x="538" y="246" on="1"/>
      </contour>
    </TTGlyph>
    <TTGlyph name="Gbreve.sc" xMin="42" yMin="-94" xMax="572" yMax="803">
      <contour>
        <pt x="506" y="794" on="1"/>
        <pt x="572" y="753" on="1"/>
        <pt x="518" y="681" on="0"/>
        <pt x="406" y="606" on="0"/>
        <pt x="356" y="606" on="1"/>
        <pt x="307" y="606" on="0"/>
        <pt x="224" y="678" on="0"/>
        <pt x="199" y="751" on="1"/>
        <pt x="286" y="803" on="1"/>
        <pt x="307" y="749" on="0"/>
        <pt x="352" y="701" on="0"/>
        <pt x="383" y="701" on="1"/>
        <pt x="412" y="701" on="0"/>
        <pt x="470" y="750" on="0"/>
      </contour>
      <contour>
        <pt x="408" y="-93" on="1"/>
        <pt x="302" y="-94" on="1"/>
        <pt x="324" y="1" on="1"/>
        <pt x="305" y="-3" on="0"/>
        <pt x="267" y="-7" on="0"/>
        <pt x="249" y="-7" on="1"/>
        <pt x="153" y="-7" on="0"/>
        <pt x="42" y="102" on="0"/>
        <pt x="42" y="199" on="1"/>
        <pt x="42" y="265" on="0"/>
        <pt x="91" y="390" on="0"/>
        <pt x="174" y="485" on="0"/>
        <pt x="285" y="542" on="0"/>
        <pt x="346" y="542" on="1"/>
        <pt x="430" y="542" on="0"/>
        <pt x="498" y="437" on="0"/>
        <pt x="498" y="331" on="1"/>
        <pt x="390" y="329" on="1"/>
        <pt x="388" y="391" on="0"/>
        <pt x="357" y="445" on="0"/>
        <pt x="317" y="445" on="1"/>
        <pt x="278" y="445" on="0"/>
        <pt x="217" y="403" on="0"/>
        <pt x="177" y="338" on="0"/>
        <pt x="156" y="257" on="0"/>
        <pt x="156" y="219" on="1"/>
        <pt x="156" y="154" on="0"/>
        <pt x="223" y="83" on="0"/>
        <pt x="292" y="83" on="1"/>
        <pt x="304" y="83" on="0"/>
        <pt x="331" y="85" on="0"/>
        <pt x="345" y="87" on="1"/>
        <pt x="374" y="209" on="1"/>
        <pt x="483" y="213" on="1"/>
      </contour>
    </TTGlyph>
    <TTGlyph name="Gcommaaccent" xMin="57" yMin="-350" xMax="556" yMax="633">
      <contour>
        <pt x="450" y="-111" on="1"/>
        <pt x="342" y="-113" on="1"/>
        <pt x="369" y="1" on="1"/>
        <pt x="346" y="-5" on="0"/>
        <pt x="301" y="-10" on="0"/>
        <pt x="281" y="-10" on="1"/>
        <pt x="178" y="-10" on="0"/>
        <pt x="57" y="116" on="0"/>
        <pt x="57" y="229" on="1"/>
        <pt x="57" y="308" on="0"/>
        <pt x="112" y="454" on="0"/>
        <pt x="205" y="566" on="0"/>
        <pt x="328" y="633" on="0"/>
        <pt x="394" y="633" on="1"/>
        <pt x="485" y="633" on="0"/>
        <pt x="556" y="514" on="0"/>
        <pt x="556" y="396" on="1"/>
        <pt x="556" y="390" on="1"/>
        <pt x="446" y="388" on="1"/>
        <pt x="444" y="463" on="0"/>
        <pt x="410" y="530" on="0"/>
        <pt x="362" y="530" on="1"/>
        <pt x="316" y="530" on="0"/>
        <pt x="245" y="479" on="0"/>
        <pt x="197" y="399" on="0"/>
        <pt x="172" y="300" on="0"/>
        <pt x="172" y="253" on="1"/>
        <pt x="172" y="176" on="0"/>
        <pt x="243" y="91" on="0"/>
        <pt x="317" y="91" on="1"/>
        <pt x="334" y="91" on="0"/>
        <pt x="372" y="96" on="0"/>
        <pt x="392" y="100" on="1"/>
        <pt x="426" y="242" on="1"/>
        <pt x="538" y="246" on="1"/>
      </contour>
      <contour>
        <pt x="140" y="-329" on="1"/>
        <pt x="155" y="-295" on="0"/>
        <pt x="170" y="-209" on="0"/>
        <pt x="170" y="-172" on="1"/>
        <pt x="170" y="-165" on="0"/>
        <pt x="170" y="-150" on="0"/>
        <pt x="169" y="-143" on="1"/>
        <pt x="313" y="-140" on="1"/>
        <pt x="303" y="-202" on="0"/>
        <pt x="230" y="-318" on="0"/>
        <pt x="186" y="-350" on="1"/>
      </contour>
    </TTGlyph>
    <TTGlyph name="Gcommaaccent.sc" xMin="42" yMin="-335" xMax="498" yMax="542">
      <contour>
        <pt x="408" y="-93" on="1"/>
        <pt x="302" y="-94" on="1"/>
        <pt x="324" y="1" on="1"/>
        <pt x="305" y="-3" on="0"/>
        <pt x="267" y="-7" on="0"/>
        <pt x="249" y="-7" on="1"/>
        <pt x="153" y="-7" on="0"/>
        <pt x="42" y="102" on="0"/>
        <pt x="42" y="199" on="1"/>
        <pt x="42" y="265" on="0"/>
        <pt x="91" y="390" on="0"/>
        <pt x="174" y="485" on="0"/>
        <pt x="285" y="542" on="0"/>
        <pt x="346" y="542" on="1"/>
        <pt x="430" y="542" on="0"/>
        <pt x="498" y="437" on="0"/>
        <pt x="498" y="331" on="1"/>
        <pt x="390" y="329" on="1"/>
        <pt x="388" y="391" on="0"/>
        <pt x="357" y="445" on="0"/>
        <pt x="317" y="445" on="1"/>
        <pt x="278" y="445" on="0"/>
        <pt x="217" y="403" on="0"/>
        <pt x="177" y="338" on="0"/>
        <pt x="156" y="257" on="0"/>
        <pt x="156" y="219" on="1"/>
        <pt x="156" y="154" on="0"/>
        <pt x="223" y="83" on="0"/>
        <pt x="292" y="83" on="1"/>
        <pt x="304" y="83" on="0"/>
        <pt x="331" y="85" on="0"/>
        <pt x="345" y="87" on="1"/>
        <pt x="374" y="209" on="1"/>
        <pt x="483" y="213" on="1"/>
      </contour>
      <contour>
        <pt x="113" y="-314" on="1"/>
        <pt x="128" y="-280" on="0"/>
        <pt x="143" y="-194" on="0"/>
        <pt x="143" y="-157" on="1"/>
        <pt x="143" y="-150" on="0"/>
        <pt x="143" y="-135" on="0"/>
        <pt x="142" y="-128" on="1"/>
        <pt x="286" y="-125" on="1"/>
        <pt x="276" y="-187" on="0"/>
        <pt x="203" y="-303" on="0"/>
        <pt x="159" y="-335" on="1"/>
      </contour>
    </TTGlyph>
    <TTGlyph name="Gdotaccent" xMin="57" yMin="-113" xMax="556" yMax="844">
      <contour>
        <pt x="461" y="713" on="1"/>
        <pt x="335" y="712" on="1"/>
        <pt x="368" y="843" on="1"/>
        <pt x="504" y="844" on="1"/>
      </contour>
      <contour>
        <pt x="450" y="-111" on="1"/>
        <pt x="342" y="-113" on="1"/>
        <pt x="369" y="1" on="1"/>
        <pt x="346" y="-5" on="0"/>
        <pt x="301" y="-10" on="0"/>
        <pt x="281" y="-10" on="1"/>
        <pt x="178" y="-10" on="0"/>
        <pt x="57" y="116" on="0"/>
        <pt x="57" y="229" on="1"/>
        <pt x="57" y="308" on="0"/>
        <pt x="112" y="454" on="0"/>
        <pt x="205" y="566" on="0"/>
        <pt x="328" y="633" on="0"/>
        <pt x="394" y="633" on="1"/>
        <pt x="485" y="633" on="0"/>
        <pt x="556" y="514" on="0"/>
        <pt x="556" y="396" on="1"/>
        <pt x="556" y="390" on="1"/>
        <pt x="446" y="388" on="1"/>
        <pt x="444" y="463" on="0"/>
        <pt x="410" y="530" on="0"/>
        <pt x="362" y="530" on="1"/>
        <pt x="316" y="530" on="0"/>
        <pt x="245" y="479" on="0"/>
        <pt x="197" y="399" on="0"/>
        <pt x="172" y="300" on="0"/>
        <pt x="172" y="253" on="1"/>
        <pt x="172" y="176" on="0"/>
        <pt x="243" y="91" on="0"/>
        <pt x="317" y="91" on="1"/>
        <pt x="334" y="91" on="0"/>
        <pt x="372" y="96" on="0"/>
        <pt x="392" y="100" on="1"/>
        <pt x="426" y="242" on="1"/>
        <pt x="538" y="246" on="1"/>
      </contour>
    </TTGlyph>
    <TTGlyph name="Gdotaccent.sc" xMin="42" yMin="-94" xMax="498" yMax="753">
      <contour>
        <pt x="413" y="622" on="1"/>
        <pt x="287" y="621" on="1"/>
        <pt x="320" y="752" on="1"/>
        <pt x="456" y="753" on="1"/>
      </contour>
      <contour>
        <pt x="408" y="-93" on="1"/>
        <pt x="302" y="-94" on="1"/>
        <pt x="324" y="1" on="1"/>
        <pt x="305" y="-3" on="0"/>
        <pt x="267" y="-7" on="0"/>
        <pt x="249" y="-7" on="1"/>
        <pt x="153" y="-7" on="0"/>
        <pt x="42" y="102" on="0"/>
        <pt x="42" y="199" on="1"/>
        <pt x="42" y="265" on="0"/>
        <pt x="91" y="390" on="0"/>
        <pt x="174" y="485" on="0"/>
        <pt x="285" y="542" on="0"/>
        <pt x="346" y="542" on="1"/>
        <pt x="430" y="542" on="0"/>
        <pt x="498" y="437" on="0"/>
        <pt x="498" y="331" on="1"/>
        <pt x="390" y="329" on="1"/>
        <pt x="388" y="391" on="0"/>
        <pt x="357" y="445" on="0"/>
        <pt x="317" y="445" on="1"/>
        <pt x="278" y="445" on="0"/>
        <pt x="217" y="403" on="0"/>
        <pt x="177" y="338" on="0"/>
        <pt x="156" y="257" on="0"/>
        <pt x="156" y="219" on="1"/>
        <pt x="156" y="154" on="0"/>
        <pt x="223" y="83" on="0"/>
        <pt x="292" y="83" on="1"/>
        <pt x="304" y="83" on="0"/>
        <pt x="331" y="85" on="0"/>
        <pt x="345" y="87" on="1"/>
        <pt x="374" y="209" on="1"/>
        <pt x="483" y="213" on="1"/>
      </contour>
    </TTGlyph>
    <TTGlyph name="H" xMin="41" yMin="0" xMax="626" yMax="620">
      <contour>
        <pt x="391" y="0" on="1"/>
        <pt x="443" y="267" on="1"/>
        <pt x="208" y="267" on="1"/>
        <pt x="156" y="0" on="1"/>
        <pt x="41" y="0" on="1"/>
        <pt x="161" y="620" on="1"/>
        <pt x="276" y="620" on="1"/>
        <pt x="225" y="356" on="1"/>
        <pt x="460" y="356" on="1"/>
        <pt x="511" y="620" on="1"/>
        <pt x="626" y="620" on="1"/>
        <pt x="506" y="0" on="1"/>
      </contour>
    </TTGlyph>
    <TTGlyph name="H.sc" xMin="31" yMin="0" xMax="564" yMax="530">
      <contour>
        <pt x="347" y="0" on="1"/>
        <pt x="391" y="224" on="1"/>
        <pt x="189" y="224" on="1"/>
        <pt x="145" y="0" on="1"/>
        <pt x="31" y="0" on="1"/>
        <pt x="134" y="530" on="1"/>
        <pt x="248" y="530" on="1"/>
        <pt x="205" y="308" on="1"/>
        <pt x="407" y="308" on="1"/>
        <pt x="450" y="530" on="1"/>
        <pt x="564" y="530" on="1"/>
        <pt x="461" y="0" on="1"/>
      </contour>
    </TTGlyph>
    <TTGlyph name="Hbar" xMin="41" yMin="0" xMax="669" yMax="620">
      <contour>
        <pt x="456" y="337" on="1"/>
        <pt x="475" y="433" on="1"/>
        <pt x="240" y="433" on="1"/>
        <pt x="221" y="337" on="1"/>
      </contour>
      <contour>
        <pt x="391" y="0" on="1"/>
        <pt x="439" y="248" on="1"/>
        <pt x="204" y="248" on="1"/>
        <pt x="156" y="0" on="1"/>
        <pt x="41" y="0" on="1"/>
        <pt x="124" y="428" on="1"/>
        <pt x="62" y="428" on="1"/>
        <pt x="80" y="519" on="1"/>
        <pt x="141" y="519" on="1"/>
        <pt x="161" y="620" on="1"/>
        <pt x="276" y="620" on="1"/>
        <pt x="255" y="514" on="1"/>
        <pt x="490" y="514" on="1"/>
        <pt x="511" y="620" on="1"/>
        <pt x="626" y="620" on="1"/>
        <pt x="606" y="519" on="1"/>
        <pt x="669" y="519" on="1"/>
        <pt x="651" y="428" on="1"/>
        <pt x="589" y="428" on="1"/>
        <pt x="506" y="0" on="1"/>
      </contour>
    </TTGlyph>
    <TTGlyph name="Hbar.sc" xMin="31" yMin="0" xMax="597" yMax="530">
      <contour>
        <pt x="407" y="308" on="1"/>
        <pt x="418" y="366" on="1"/>
        <pt x="216" y="366" on="1"/>
        <pt x="205" y="308" on="1"/>
      </contour>
      <contour>
        <pt x="347" y="0" on="1"/>
        <pt x="391" y="224" on="1"/>
        <pt x="189" y="224" on="1"/>
        <pt x="145" y="0" on="1"/>
        <pt x="31" y="0" on="1"/>
        <pt x="101" y="362" on="1"/>
        <pt x="47" y="362" on="1"/>
        <pt x="64" y="447" on="1"/>
        <pt x="118" y="447" on="1"/>
        <pt x="134" y="530" on="1"/>
        <pt x="248" y="530" on="1"/>
        <pt x="231" y="443" on="1"/>
        <pt x="433" y="443" on="1"/>
        <pt x="450" y="530" on="1"/>
        <pt x="564" y="530" on="1"/>
        <pt x="548" y="447" on="1"/>
        <pt x="597" y="447" on="1"/>
        <pt x="580" y="362" on="1"/>
        <pt x="531" y="362" on="1"/>
        <pt x="461" y="0" on="1"/>
      </contour>
    </TTGlyph>
    <TTGlyph name="I" xMin="19" yMin="0" xMax="504" yMax="620">
      <contour>
        <pt x="278" y="96" on="1"/>
        <pt x="408" y="96" on="1"/>
        <pt x="384" y="0" on="1"/>
        <pt x="19" y="0" on="1"/>
        <pt x="38" y="96" on="1"/>
        <pt x="163" y="96" on="1"/>
        <pt x="246" y="524" on="1"/>
        <pt x="120" y="524" on="1"/>
        <pt x="139" y="620" on="1"/>
        <pt x="504" y="620" on="1"/>
        <pt x="485" y="524" on="1"/>
        <pt x="361" y="524" on="1"/>
      </contour>
    </TTGlyph>
    <TTGlyph name="I.sc" xMin="10" yMin="0" xMax="452" yMax="530">
      <contour>
        <pt x="254" y="88" on="1"/>
        <pt x="370" y="88" on="1"/>
        <pt x="348" y="0" on="1"/>
        <pt x="10" y="0" on="1"/>
        <pt x="27" y="88" on="1"/>
        <pt x="140" y="88" on="1"/>
        <pt x="209" y="442" on="1"/>
        <pt x="96" y="442" on="1"/>
        <pt x="114" y="530" on="1"/>
        <pt x="452" y="530" on="1"/>
        <pt x="435" y="442" on="1"/>
        <pt x="323" y="442" on="1"/>
      </contour>
    </TTGlyph>
    <TTGlyph name="Iacute" xMin="19" yMin="0" xMax="523" yMax="899">
      <contour>
        <pt x="232" y="734" on="1"/>
        <pt x="251" y="745" on="0"/>
        <pt x="308" y="784" on="0"/>
        <pt x="368" y="830" on="0"/>
        <pt x="426" y="878" on="0"/>
        <pt x="448" y="899" on="1"/>
        <pt x="523" y="805" on="1"/>
        <pt x="498" y="787" on="0"/>
        <pt x="425" y="749" on="0"/>
        <pt x="349" y="715" on="0"/>
        <pt x="277" y="689" on="0"/>
        <pt x="253" y="682" on="1"/>
      </contour>
      <contour>
        <pt x="278" y="96" on="1"/>
        <pt x="408" y="96" on="1"/>
        <pt x="384" y="0" on="1"/>
        <pt x="19" y="0" on="1"/>
        <pt x="38" y="96" on="1"/>
        <pt x="163" y="96" on="1"/>
        <pt x="246" y="524" on="1"/>
        <pt x="120" y="524" on="1"/>
        <pt x="139" y="620" on="1"/>
        <pt x="504" y="620" on="1"/>
        <pt x="485" y="524" on="1"/>
        <pt x="361" y="524" on="1"/>
      </contour>
    </TTGlyph>
    <TTGlyph name="Iacute.sc" xMin="10" yMin="0" xMax="484" yMax="809">
      <contour>
        <pt x="193" y="644" on="1"/>
        <pt x="212" y="655" on="0"/>
        <pt x="269" y="694" on="0"/>
        <pt x="329" y="740" on="0"/>
        <pt x="387" y="788" on="0"/>
        <pt x="409" y="809" on="1"/>
        <pt x="484" y="715" on="1"/>
        <pt x="459" y="697" on="0"/>
        <pt x="386" y="659" on="0"/>
        <pt x="310" y="625" on="0"/>
        <pt x="238" y="599" on="0"/>
        <pt x="214" y="592" on="1"/>
      </contour>
      <contour>
        <pt x="254" y="88" on="1"/>
        <pt x="370" y="88" on="1"/>
        <pt x="348" y="0" on="1"/>
        <pt x="10" y="0" on="1"/>
        <pt x="27" y="88" on="1"/>
        <pt x="140" y="88" on="1"/>
        <pt x="209" y="442" on="1"/>
        <pt x="96" y="442" on="1"/>
        <pt x="114" y="530" on="1"/>
        <pt x="452" y="530" on="1"/>
        <pt x="435" y="442" on="1"/>
        <pt x="323" y="442" on="1"/>
      </contour>
    </TTGlyph>
    <TTGlyph name="Ibreve" xMin="19" yMin="0" xMax="553" yMax="881">
      <contour>
        <pt x="487" y="872" on="1"/>
        <pt x="553" y="831" on="1"/>
        <pt x="499" y="759" on="0"/>
        <pt x="387" y="684" on="0"/>
        <pt x="337" y="684" on="1"/>
        <pt x="288" y="684" on="0"/>
        <pt x="205" y="756" on="0"/>
        <pt x="180" y="829" on="1"/>
        <pt x="267" y="881" on="1"/>
        <pt x="288" y="827" on="0"/>
        <pt x="333" y="779" on="0"/>
        <pt x="364" y="779" on="1"/>
        <pt x="393" y="779" on="0"/>
        <pt x="451" y="828" on="0"/>
      </contour>
      <contour>
        <pt x="278" y="96" on="1"/>
        <pt x="408" y="96" on="1"/>
        <pt x="384" y="0" on="1"/>
        <pt x="19" y="0" on="1"/>
        <pt x="38" y="96" on="1"/>
        <pt x="163" y="96" on="1"/>
        <pt x="246" y="524" on="1"/>
        <pt x="120" y="524" on="1"/>
        <pt x="139" y="620" on="1"/>
        <pt x="504" y="620" on="1"/>
        <pt x="485" y="524" on="1"/>
        <pt x="361" y="524" on="1"/>
      </contour>
    </TTGlyph>
    <TTGlyph name="Ibreve.sc" xMin="10" yMin="0" xMax="514" yMax="791">
      <contour>
        <pt x="448" y="782" on="1"/>
        <pt x="514" y="741" on="1"/>
        <pt x="460" y="669" on="0"/>
        <pt x="348" y="594" on="0"/>
        <pt x="298" y="594" on="1"/>
        <pt x="249" y="594" on="0"/>
        <pt x="166" y="666" on="0"/>
        <pt x="141" y="739" on="1"/>
        <pt x="228" y="791" on="1"/>
        <pt x="249" y="737" on="0"/>
        <pt x="294" y="689" on="0"/>
        <pt x="325" y="689" on="1"/>
        <pt x="354" y="689" on="0"/>
        <pt x="412" y="738" on="0"/>
      </contour>
      <contour>
        <pt x="254" y="88" on="1"/>
        <pt x="370" y="88" on="1"/>
        <pt x="348" y="0" on="1"/>
        <pt x="10" y="0" on="1"/>
        <pt x="27" y="88" on="1"/>
        <pt x="140" y="88" on="1"/>
        <pt x="209" y="442" on="1"/>
        <pt x="96" y="442" on="1"/>
        <pt x="114" y="530" on="1"/>
        <pt x="452" y="530" on="1"/>
        <pt x="435" y="442" on="1"/>
        <pt x="323" y="442" on="1"/>
      </contour>
    </TTGlyph>
    <TTGlyph name="Icircumflex" xMin="19" yMin="0" xMax="520" yMax="890">
      <contour>
        <pt x="439" y="678" on="1"/>
        <pt x="354" y="775" on="1"/>
        <pt x="223" y="682" on="1"/>
        <pt x="172" y="742" on="1"/>
        <pt x="378" y="890" on="1"/>
        <pt x="520" y="743" on="1"/>
      </contour>
      <contour>
        <pt x="278" y="96" on="1"/>
        <pt x="408" y="96" on="1"/>
        <pt x="384" y="0" on="1"/>
        <pt x="19" y="0" on="1"/>
        <pt x="38" y="96" on="1"/>
        <pt x="163" y="96" on="1"/>
        <pt x="246" y="524" on="1"/>
        <pt x="120" y="524" on="1"/>
        <pt x="139" y="620" on="1"/>
        <pt x="504" y="620" on="1"/>
        <pt x="485" y="524" on="1"/>
        <pt x="361" y="524" on="1"/>
      </contour>
    </TTGlyph>
    <TTGlyph name="Icircumflex.sc" xMin="10" yMin="0" xMax="482" yMax="800">
      <contour>
        <pt x="401" y="588" on="1"/>
        <pt x="316" y="685" on="1"/>
        <pt x="185" y="592" on="1"/>
        <pt x="134" y="652" on="1"/>
        <pt x="340" y="800" on="1"/>
        <pt x="482" y="653" on="1"/>
      </contour>
      <contour>
        <pt x="254" y="88" on="1"/>
        <pt x="370" y="88" on="1"/>
        <pt x="348" y="0" on="1"/>
        <pt x="10" y="0" on="1"/>
        <pt x="27" y="88" on="1"/>
        <pt x="140" y="88" on="1"/>
        <pt x="209" y="442" on="1"/>
        <pt x="96" y="442" on="1"/>
        <pt x="114" y="530" on="1"/>
        <pt x="452" y="530" on="1"/>
        <pt x="435" y="442" on="1"/>
        <pt x="323" y="442" on="1"/>
      </contour>
    </TTGlyph>
    <TTGlyph name="Idieresis" xMin="19" yMin="0" xMax="538" yMax="833">
      <contour>
        <pt x="495" y="702" on="1"/>
        <pt x="370" y="700" on="1"/>
        <pt x="402" y="830" on="1"/>
        <pt x="538" y="833" on="1"/>
      </contour>
      <contour>
        <pt x="295" y="701" on="1"/>
        <pt x="169" y="698" on="1"/>
        <pt x="202" y="829" on="1"/>
        <pt x="337" y="831" on="1"/>
      </contour>
      <contour>
        <pt x="278" y="96" on="1"/>
        <pt x="408" y="96" on="1"/>
        <pt x="384" y="0" on="1"/>
        <pt x="19" y="0" on="1"/>
        <pt x="38" y="96" on="1"/>
        <pt x="163" y="96" on="1"/>
        <pt x="246" y="524" on="1"/>
        <pt x="120" y="524" on="1"/>
        <pt x="139" y="620" on="1"/>
        <pt x="504" y="620" on="1"/>
        <pt x="485" y="524" on="1"/>
        <pt x="361" y="524" on="1"/>
      </contour>
    </TTGlyph>
    <TTGlyph name="Idieresis.sc" xMin="10" yMin="0" xMax="499" yMax="743">
      <contour>
        <pt x="456" y="612" on="1"/>
        <pt x="331" y="610" on="1"/>
        <pt x="363" y="740" on="1"/>
        <pt x="499" y="743" on="1"/>
      </contour>
      <contour>
        <pt x="256" y="611" on="1"/>
        <pt x="130" y="608" on="1"/>
        <pt x="163" y="739" on="1"/>
        <pt x="298" y="741" on="1"/>
      </contour>
      <contour>
        <pt x="254" y="88" on="1"/>
        <pt x="370" y="88" on="1"/>
        <pt x="348" y="0" on="1"/>
        <pt x="10" y="0" on="1"/>
        <pt x="27" y="88" on="1"/>
        <pt x="140" y="88" on="1"/>
        <pt x="209" y="442" on="1"/>
        <pt x="96" y="442" on="1"/>
        <pt x="114" y="530" on="1"/>
        <pt x="452" y="530" on="1"/>
        <pt x="435" y="442" on="1"/>
        <pt x="323" y="442" on="1"/>
      </contour>
    </TTGlyph>
    <TTGlyph name="Idotaccent" xMin="19" yMin="0" xMax="504" yMax="831">
      <contour>
        <pt x="394" y="700" on="1"/>
        <pt x="268" y="699" on="1"/>
        <pt x="301" y="830" on="1"/>
        <pt x="437" y="831" on="1"/>
      </contour>
      <contour>
        <pt x="278" y="96" on="1"/>
        <pt x="408" y="96" on="1"/>
        <pt x="384" y="0" on="1"/>
        <pt x="19" y="0" on="1"/>
        <pt x="38" y="96" on="1"/>
        <pt x="163" y="96" on="1"/>
        <pt x="246" y="524" on="1"/>
        <pt x="120" y="524" on="1"/>
        <pt x="139" y="620" on="1"/>
        <pt x="504" y="620" on="1"/>
        <pt x="485" y="524" on="1"/>
        <pt x="361" y="524" on="1"/>
      </contour>
    </TTGlyph>
    <TTGlyph name="Idotaccent.sc" xMin="10" yMin="0" xMax="452" yMax="741">
      <contour>
        <pt x="356" y="610" on="1"/>
        <pt x="230" y="609" on="1"/>
        <pt x="263" y="740" on="1"/>
        <pt x="399" y="741" on="1"/>
      </contour>
      <contour>
        <pt x="254" y="88" on="1"/>
        <pt x="370" y="88" on="1"/>
        <pt x="348" y="0" on="1"/>
        <pt x="10" y="0" on="1"/>
        <pt x="27" y="88" on="1"/>
        <pt x="140" y="88" on="1"/>
        <pt x="209" y="442" on="1"/>
        <pt x="96" y="442" on="1"/>
        <pt x="114" y="530" on="1"/>
        <pt x="452" y="530" on="1"/>
        <pt x="435" y="442" on="1"/>
        <pt x="323" y="442" on="1"/>
      </contour>
    </TTGlyph>
    <TTGlyph name="Igrave" xMin="19" yMin="0" xMax="504" yMax="902">
      <contour>
        <pt x="438" y="728" on="1"/>
        <pt x="412" y="678" on="1"/>
        <pt x="389" y="687" on="0"/>
        <pt x="325" y="717" on="0"/>
        <pt x="257" y="753" on="0"/>
        <pt x="192" y="791" on="0"/>
        <pt x="168" y="806" on="1"/>
        <pt x="237" y="902" on="1"/>
        <pt x="259" y="881" on="0"/>
        <pt x="313" y="831" on="0"/>
        <pt x="367" y="784" on="0"/>
        <pt x="419" y="742" on="0"/>
      </contour>
      <contour>
        <pt x="278" y="96" on="1"/>
        <pt x="408" y="96" on="1"/>
        <pt x="384" y="0" on="1"/>
        <pt x="19" y="0" on="1"/>
        <pt x="38" y="96" on="1"/>
        <pt x="163" y="96" on="1"/>
        <pt x="246" y="524" on="1"/>
        <pt x="120" y="524" on="1"/>
        <pt x="139" y="620" on="1"/>
        <pt x="504" y="620" on="1"/>
        <pt x="485" y="524" on="1"/>
        <pt x="361" y="524" on="1"/>
      </contour>
    </TTGlyph>
    <TTGlyph name="Igrave.sc" xMin="10" yMin="0" xMax="452" yMax="812">
      <contour>
        <pt x="399" y="638" on="1"/>
        <pt x="373" y="588" on="1"/>
        <pt x="350" y="597" on="0"/>
        <pt x="286" y="627" on="0"/>
        <pt x="218" y="663" on="0"/>
        <pt x="153" y="701" on="0"/>
        <pt x="129" y="716" on="1"/>
        <pt x="198" y="812" on="1"/>
        <pt x="220" y="791" on="0"/>
        <pt x="274" y="741" on="0"/>
        <pt x="328" y="694" on="0"/>
        <pt x="380" y="652" on="0"/>
      </contour>
      <contour>
        <pt x="254" y="88" on="1"/>
        <pt x="370" y="88" on="1"/>
        <pt x="348" y="0" on="1"/>
        <pt x="10" y="0" on="1"/>
        <pt x="27" y="88" on="1"/>
        <pt x="140" y="88" on="1"/>
        <pt x="209" y="442" on="1"/>
        <pt x="96" y="442" on="1"/>
        <pt x="114" y="530" on="1"/>
        <pt x="452" y="530" on="1"/>
        <pt x="435" y="442" on="1"/>
        <pt x="323" y="442" on="1"/>
      </contour>
    </TTGlyph>
    <TTGlyph name="Imacron" xMin="19" yMin="0" xMax="523" yMax="815">
      <contour>
        <pt x="523" y="815" on="1"/>
        <pt x="503" y="714" on="1"/>
        <pt x="181" y="714" on="1"/>
        <pt x="201" y="815" on="1"/>
      </contour>
      <contour>
        <pt x="278" y="96" on="1"/>
        <pt x="408" y="96" on="1"/>
        <pt x="384" y="0" on="1"/>
        <pt x="19" y="0" on="1"/>
        <pt x="38" y="96" on="1"/>
        <pt x="163" y="96" on="1"/>
        <pt x="246" y="524" on="1"/>
        <pt x="120" y="524" on="1"/>
        <pt x="139" y="620" on="1"/>
        <pt x="504" y="620" on="1"/>
        <pt x="485" y="524" on="1"/>
        <pt x="361" y="524" on="1"/>
      </contour>
    </TTGlyph>
    <TTGlyph name="Imacron.sc" xMin="10" yMin="0" xMax="485" yMax="725">
      <contour>
        <pt x="485" y="725" on="1"/>
        <pt x="465" y="624" on="1"/>
        <pt x="143" y="624" on="1"/>
        <pt x="163" y="725" on="1"/>
      </contour>
      <contour>
        <pt x="254" y="88" on="1"/>
        <pt x="370" y="88" on="1"/>
        <pt x="348" y="0" on="1"/>
        <pt x="10" y="0" on="1"/>
        <pt x="27" y="88" on="1"/>
        <pt x="140" y="88" on="1"/>
        <pt x="209" y="442" on="1"/>
        <pt x="96" y="442" on="1"/>
        <pt x="114" y="530" on="1"/>
        <pt x="452" y="530" on="1"/>
        <pt x="435" y="442" on="1"/>
        <pt x="323" y="442" on="1"/>
      </contour>
    </TTGlyph>
    <TTGlyph name="Iogonek" xMin="19" yMin="-208" xMax="504" yMax="620">
      <contour>
        <pt x="291" y="-161" on="1"/>
        <pt x="245" y="-186" on="0"/>
        <pt x="171" y="-208" on="0"/>
        <pt x="142" y="-208" on="1"/>
        <pt x="98" y="-208" on="0"/>
        <pt x="52" y="-164" on="0"/>
        <pt x="52" y="-132" on="1"/>
        <pt x="52" y="-100" on="0"/>
        <pt x="96" y="-32" on="0"/>
        <pt x="145" y="0" on="1"/>
        <pt x="19" y="0" on="1"/>
        <pt x="38" y="96" on="1"/>
        <pt x="163" y="96" on="1"/>
        <pt x="246" y="524" on="1"/>
        <pt x="120" y="524" on="1"/>
        <pt x="139" y="620" on="1"/>
        <pt x="504" y="620" on="1"/>
        <pt x="485" y="524" on="1"/>
        <pt x="361" y="524" on="1"/>
        <pt x="278" y="96" on="1"/>
        <pt x="408" y="96" on="1"/>
        <pt x="384" y="0" on="1"/>
        <pt x="273" y="0" on="1"/>
        <pt x="212" y="-22" on="0"/>
        <pt x="156" y="-73" on="0"/>
        <pt x="156" y="-96" on="1"/>
        <pt x="156" y="-110" on="0"/>
        <pt x="176" y="-128" on="0"/>
        <pt x="199" y="-128" on="1"/>
        <pt x="213" y="-128" on="0"/>
        <pt x="253" y="-120" on="0"/>
        <pt x="278" y="-111" on="1"/>
      </contour>
    </TTGlyph>
    <TTGlyph name="Iogonek.sc" xMin="10" yMin="-208" xMax="452" yMax="530">
      <contour>
        <pt x="270" y="-161" on="1"/>
        <pt x="224" y="-186" on="0"/>
        <pt x="150" y="-208" on="0"/>
        <pt x="121" y="-208" on="1"/>
        <pt x="77" y="-208" on="0"/>
        <pt x="31" y="-164" on="0"/>
        <pt x="31" y="-132" on="1"/>
        <pt x="31" y="-100" on="0"/>
        <pt x="75" y="-32" on="0"/>
        <pt x="124" y="0" on="1"/>
        <pt x="10" y="0" on="1"/>
        <pt x="27" y="88" on="1"/>
        <pt x="140" y="88" on="1"/>
        <pt x="209" y="442" on="1"/>
        <pt x="96" y="442" on="1"/>
        <pt x="114" y="530" on="1"/>
        <pt x="452" y="530" on="1"/>
        <pt x="435" y="442" on="1"/>
        <pt x="323" y="442" on="1"/>
        <pt x="254" y="88" on="1"/>
        <pt x="370" y="88" on="1"/>
        <pt x="348" y="0" on="1"/>
        <pt x="252" y="0" on="1"/>
        <pt x="191" y="-22" on="0"/>
        <pt x="135" y="-73" on="0"/>
        <pt x="135" y="-96" on="1"/>
        <pt x="135" y="-110" on="0"/>
        <pt x="155" y="-128" on="0"/>
        <pt x="178" y="-128" on="1"/>
        <pt x="192" y="-128" on="0"/>
        <pt x="232" y="-120" on="0"/>
        <pt x="257" y="-111" on="1"/>
      </contour>
    </TTGlyph>
    <TTGlyph name="J" xMin="9" yMin="-12" xMax="471" yMax="620">
      <contour>
        <pt x="9" y="-12" on="1"/>
        <pt x="26" y="101" on="1"/>
        <pt x="55" y="100" on="0"/>
        <pt x="103" y="100" on="0"/>
        <pt x="122" y="100" on="1"/>
        <pt x="183" y="100" on="0"/>
        <pt x="233" y="107" on="0"/>
        <pt x="243" y="117" on="1"/>
        <pt x="248" y="122" on="0"/>
        <pt x="257" y="138" on="0"/>
        <pt x="267" y="172" on="0"/>
        <pt x="280" y="235" on="0"/>
        <pt x="290" y="286" on="1"/>
        <pt x="337" y="524" on="1"/>
        <pt x="165" y="524" on="1"/>
        <pt x="185" y="620" on="1"/>
        <pt x="471" y="620" on="1"/>
        <pt x="409" y="305" on="1"/>
        <pt x="394" y="227" on="0"/>
        <pt x="373" y="135" on="0"/>
        <pt x="355" y="84" on="0"/>
        <pt x="339" y="60" on="0"/>
        <pt x="328" y="49" on="1"/>
        <pt x="299" y="20" on="0"/>
        <pt x="147" y="-12" on="0"/>
      </contour>
    </TTGlyph>
    <TTGlyph name="J.sc" xMin="3" yMin="-10" xMax="421" yMax="530">
      <contour>
        <pt x="16" y="-10" on="1"/>
        <pt x="3" y="-10" on="1"/>
        <pt x="19" y="93" on="1"/>
        <pt x="46" y="92" on="0"/>
        <pt x="90" y="92" on="0"/>
        <pt x="108" y="92" on="1"/>
        <pt x="159" y="92" on="0"/>
        <pt x="203" y="99" on="0"/>
        <pt x="210" y="106" on="1"/>
        <pt x="215" y="111" on="0"/>
        <pt x="222" y="124" on="0"/>
        <pt x="231" y="153" on="0"/>
        <pt x="242" y="204" on="0"/>
        <pt x="251" y="247" on="1"/>
        <pt x="290" y="442" on="1"/>
        <pt x="136" y="442" on="1"/>
        <pt x="154" y="530" on="1"/>
        <pt x="421" y="530" on="1"/>
        <pt x="368" y="261" on="1"/>
        <pt x="355" y="195" on="0"/>
        <pt x="336" y="117" on="0"/>
        <pt x="320" y="73" on="0"/>
        <pt x="305" y="53" on="0"/>
        <pt x="295" y="43" on="1"/>
        <pt x="270" y="18" on="0"/>
        <pt x="139" y="-10" on="0"/>
      </contour>
    </TTGlyph>
    <TTGlyph name="K" xMin="41" yMin="-10" xMax="622" yMax="620">
      <contour>
        <pt x="398" y="-10" on="1"/>
        <pt x="225" y="308" on="1"/>
        <pt x="495" y="620" on="1"/>
        <pt x="622" y="620" on="1"/>
        <pt x="353" y="307" on="1"/>
        <pt x="521" y="10" on="1"/>
      </contour>
      <contour>
        <pt x="161" y="620" on="1"/>
        <pt x="276" y="620" on="1"/>
        <pt x="156" y="0" on="1"/>
        <pt x="41" y="0" on="1"/>
      </contour>
    </TTGlyph>
    <TTGlyph name="K.sc" xMin="31" yMin="-8" xMax="564" yMax="530">
      <contour>
        <pt x="357" y="-8" on="1"/>
        <pt x="205" y="264" on="1"/>
        <pt x="439" y="530" on="1"/>
        <pt x="564" y="530" on="1"/>
        <pt x="330" y="263" on="1"/>
        <pt x="480" y="8" on="1"/>
      </contour>
      <contour>
        <pt x="134" y="530" on="1"/>
        <pt x="248" y="530" on="1"/>
        <pt x="145" y="0" on="1"/>
        <pt x="31" y="0" on="1"/>
      </contour>
    </TTGlyph>
    <TTGlyph name="Kcommaaccent" xMin="41" yMin="-290" xMax="622" yMax="620">
      <contour>
        <pt x="398" y="-10" on="1"/>
        <pt x="225" y="308" on="1"/>
        <pt x="495" y="620" on="1"/>
        <pt x="622" y="620" on="1"/>
        <pt x="353" y="307" on="1"/>
        <pt x="521" y="10" on="1"/>
      </contour>
      <contour>
        <pt x="161" y="620" on="1"/>
        <pt x="276" y="620" on="1"/>
        <pt x="156" y="0" on="1"/>
        <pt x="41" y="0" on="1"/>
      </contour>
      <contour>
        <pt x="148" y="-269" on="1"/>
        <pt x="163" y="-235" on="0"/>
        <pt x="178" y="-149" on="0"/>
        <pt x="178" y="-112" on="1"/>
        <pt x="178" y="-105" on="0"/>
        <pt x="178" y="-90" on="0"/>
        <pt x="177" y="-83" on="1"/>
        <pt x="321" y="-80" on="1"/>
        <pt x="311" y="-142" on="0"/>
        <pt x="238" y="-258" on="0"/>
        <pt x="194" y="-290" on="1"/>
      </contour>
    </TTGlyph>
    <TTGlyph name="Kcommaaccent.sc" xMin="31" yMin="-288" xMax="564" yMax="530">
      <contour>
        <pt x="357" y="-8" on="1"/>
        <pt x="205" y="264" on="1"/>
        <pt x="439" y="530" on="1"/>
        <pt x="564" y="530" on="1"/>
        <pt x="330" y="263" on="1"/>
        <pt x="480" y="8" on="1"/>
      </contour>
      <contour>
        <pt x="134" y="530" on="1"/>
        <pt x="248" y="530" on="1"/>
        <pt x="145" y="0" on="1"/>
        <pt x="31" y="0" on="1"/>
      </contour>
      <contour>
        <pt x="123" y="-267" on="1"/>
        <pt x="138" y="-233" on="0"/>
        <pt x="153" y="-147" on="0"/>
        <pt x="153" y="-110" on="1"/>
        <pt x="153" y="-103" on="0"/>
        <pt x="153" y="-88" on="0"/>
        <pt x="152" y="-81" on="1"/>
        <pt x="296" y="-78" on="1"/>
        <pt x="286" y="-140" on="0"/>
        <pt x="213" y="-256" on="0"/>
        <pt x="169" y="-288" on="1"/>
      </contour>
    </TTGlyph>
    <TTGlyph name="L" xMin="41" yMin="0" xMax="421" yMax="620">
      <contour>
        <pt x="401" y="0" on="1"/>
        <pt x="41" y="0" on="1"/>
        <pt x="161" y="620" on="1"/>
        <pt x="276" y="620" on="1"/>
        <pt x="176" y="102" on="1"/>
        <pt x="421" y="102" on="1"/>
      </contour>
    </TTGlyph>
    <TTGlyph name="L.sc" xMin="31" yMin="0" xMax="382" yMax="530">
      <contour>
        <pt x="364" y="0" on="1"/>
        <pt x="31" y="0" on="1"/>
        <pt x="134" y="530" on="1"/>
        <pt x="248" y="530" on="1"/>
        <pt x="163" y="94" on="1"/>
        <pt x="382" y="94" on="1"/>
      </contour>
    </TTGlyph>
    <TTGlyph name="Lacute" xMin="41" yMin="0" xMax="538" yMax="899">
      <contour>
        <pt x="247" y="734" on="1"/>
        <pt x="266" y="745" on="0"/>
        <pt x="323" y="784" on="0"/>
        <pt x="383" y="830" on="0"/>
        <pt x="441" y="878" on="0"/>
        <pt x="463" y="899" on="1"/>
        <pt x="538" y="805" on="1"/>
        <pt x="513" y="787" on="0"/>
        <pt x="440" y="749" on="0"/>
        <pt x="364" y="715" on="0"/>
        <pt x="292" y="689" on="0"/>
        <pt x="268" y="682" on="1"/>
      </contour>
      <contour>
        <pt x="401" y="0" on="1"/>
        <pt x="41" y="0" on="1"/>
        <pt x="161" y="620" on="1"/>
        <pt x="276" y="620" on="1"/>
        <pt x="176" y="102" on="1"/>
        <pt x="421" y="102" on="1"/>
      </contour>
    </TTGlyph>
    <TTGlyph name="Lacute.sc" xMin="31" yMin="0" xMax="494" yMax="809">
      <contour>
        <pt x="203" y="644" on="1"/>
        <pt x="222" y="655" on="0"/>
        <pt x="279" y="694" on="0"/>
        <pt x="339" y="740" on="0"/>
        <pt x="397" y="788" on="0"/>
        <pt x="419" y="809" on="1"/>
        <pt x="494" y="715" on="1"/>
        <pt x="469" y="697" on="0"/>
        <pt x="396" y="659" on="0"/>
        <pt x="320" y="625" on="0"/>
        <pt x="248" y="599" on="0"/>
        <pt x="224" y="592" on="1"/>
      </contour>
      <contour>
        <pt x="364" y="0" on="1"/>
        <pt x="31" y="0" on="1"/>
        <pt x="134" y="530" on="1"/>
        <pt x="248" y="530" on="1"/>
        <pt x="163" y="94" on="1"/>
        <pt x="382" y="94" on="1"/>
      </contour>
    </TTGlyph>
    <TTGlyph name="Lcaron" xMin="41" yMin="0" xMax="522" yMax="706">
      <contour>
        <pt x="396" y="700" on="1"/>
        <pt x="522" y="706" on="1"/>
        <pt x="512" y="627" on="0"/>
        <pt x="453" y="506" on="0"/>
        <pt x="409" y="450" on="1"/>
        <pt x="362" y="470" on="1"/>
        <pt x="379" y="528" on="0"/>
        <pt x="395" y="640" on="0"/>
      </contour>
      <contour>
        <pt x="401" y="0" on="1"/>
        <pt x="41" y="0" on="1"/>
        <pt x="161" y="620" on="1"/>
        <pt x="276" y="620" on="1"/>
        <pt x="176" y="102" on="1"/>
        <pt x="421" y="102" on="1"/>
      </contour>
    </TTGlyph>
    <TTGlyph name="Lcaron.sc" xMin="31" yMin="0" xMax="478" yMax="656">
      <contour>
        <pt x="352" y="650" on="1"/>
        <pt x="478" y="656" on="1"/>
        <pt x="468" y="577" on="0"/>
        <pt x="409" y="456" on="0"/>
        <pt x="365" y="400" on="1"/>
        <pt x="318" y="420" on="1"/>
        <pt x="335" y="478" on="0"/>
        <pt x="351" y="590" on="0"/>
      </contour>
      <contour>
        <pt x="364" y="0" on="1"/>
        <pt x="31" y="0" on="1"/>
        <pt x="134" y="530" on="1"/>
        <pt x="248" y="530" on="1"/>
        <pt x="163" y="94" on="1"/>
        <pt x="382" y="94" on="1"/>
      </contour>
    </TTGlyph>
    <TTGlyph name="Lcommaaccent" xMin="41" yMin="-280" xMax="421" yMax="620">
      <contour>
        <pt x="401" y="0" on="1"/>
        <pt x="41" y="0" on="1"/>
        <pt x="161" y="620" on="1"/>
        <pt x="276" y="620" on="1"/>
        <pt x="176" y="102" on="1"/>
        <pt x="421" y="102" on="1"/>
      </contour>
      <contour>
        <pt x="105" y="-259" on="1"/>
        <pt x="120" y="-225" on="0"/>
        <pt x="135" y="-139" on="0"/>
        <pt x="135" y="-102" on="1"/>
        <pt x="135" y="-95" on="0"/>
        <pt x="135" y="-80" on="0"/>
        <pt x="134" y="-73" on="1"/>
        <pt x="278" y="-70" on="1"/>
        <pt x="268" y="-132" on="0"/>
        <pt x="195" y="-248" on="0"/>
        <pt x="151" y="-280" on="1"/>
      </contour>
    </TTGlyph>
    <TTGlyph name="Lcommaaccent.sc" xMin="31" yMin="-280" xMax="382" yMax="530">
      <contour>
        <pt x="364" y="0" on="1"/>
        <pt x="31" y="0" on="1"/>
        <pt x="134" y="530" on="1"/>
        <pt x="248" y="530" on="1"/>
        <pt x="163" y="94" on="1"/>
        <pt x="382" y="94" on="1"/>
      </contour>
      <contour>
        <pt x="78" y="-259" on="1"/>
        <pt x="93" y="-225" on="0"/>
        <pt x="108" y="-139" on="0"/>
        <pt x="108" y="-102" on="1"/>
        <pt x="108" y="-95" on="0"/>
        <pt x="108" y="-80" on="0"/>
        <pt x="107" y="-73" on="1"/>
        <pt x="251" y="-70" on="1"/>
        <pt x="241" y="-132" on="0"/>
        <pt x="168" y="-248" on="0"/>
        <pt x="124" y="-280" on="1"/>
      </contour>
    </TTGlyph>
    <TTGlyph name="Ldot" xMin="41" yMin="0" xMax="476" yMax="620">
      <contour>
        <pt x="401" y="0" on="1"/>
        <pt x="41" y="0" on="1"/>
        <pt x="161" y="620" on="1"/>
        <pt x="276" y="620" on="1"/>
        <pt x="176" y="102" on="1"/>
        <pt x="421" y="102" on="1"/>
      </contour>
      <contour>
        <pt x="449" y="240" on="1"/>
        <pt x="330" y="240" on="1"/>
        <pt x="357" y="375" on="1"/>
        <pt x="476" y="375" on="1"/>
      </contour>
    </TTGlyph>
    <TTGlyph name="Ldot.sc" xMin="31" yMin="0" xMax="438" yMax="530">
      <contour>
        <pt x="364" y="0" on="1"/>
        <pt x="31" y="0" on="1"/>
        <pt x="134" y="530" on="1"/>
        <pt x="248" y="530" on="1"/>
        <pt x="163" y="94" on="1"/>
        <pt x="382" y="94" on="1"/>
      </contour>
      <contour>
        <pt x="411" y="240" on="1"/>
        <pt x="292" y="240" on="1"/>
        <pt x="319" y="375" on="1"/>
        <pt x="438" y="375" on="1"/>
      </contour>
    </TTGlyph>
    <TTGlyph name="Lslash" xMin="29" yMin="0" xMax="421" yMax="620">
      <contour>
        <pt x="401" y="0" on="1"/>
        <pt x="41" y="0" on="1"/>
        <pt x="89" y="250" on="1"/>
        <pt x="33" y="223" on="1"/>
        <pt x="29" y="314" on="1"/>
        <pt x="109" y="353" on="1"/>
        <pt x="161" y="620" on="1"/>
        <pt x="276" y="620" on="1"/>
        <pt x="236" y="413" on="1"/>
        <pt x="356" y="471" on="1"/>
        <pt x="360" y="380" on="1"/>
        <pt x="216" y="311" on="1"/>
        <pt x="176" y="102" on="1"/>
        <pt x="421" y="102" on="1"/>
      </contour>
    </TTGlyph>
    <TTGlyph name="Lslash.sc" xMin="8" yMin="0" xMax="382" yMax="530">
      <contour>
        <pt x="364" y="0" on="1"/>
        <pt x="31" y="0" on="1"/>
        <pt x="70" y="201" on="1"/>
        <pt x="11" y="173" on="1"/>
        <pt x="8" y="264" on="1"/>
        <pt x="90" y="303" on="1"/>
        <pt x="134" y="530" on="1"/>
        <pt x="248" y="530" on="1"/>
        <pt x="216" y="364" on="1"/>
        <pt x="325" y="416" on="1"/>
        <pt x="328" y="325" on="1"/>
        <pt x="196" y="262" on="1"/>
        <pt x="163" y="94" on="1"/>
        <pt x="382" y="94" on="1"/>
      </contour>
    </TTGlyph>
    <TTGlyph name="M" xMin="41" yMin="0" xMax="743" yMax="624">
      <contour>
        <pt x="322" y="624" on="1"/>
        <pt x="369" y="221" on="1"/>
        <pt x="372" y="221" on="1"/>
        <pt x="577" y="620" on="1"/>
        <pt x="743" y="620" on="1"/>
        <pt x="623" y="0" on="1"/>
        <pt x="508" y="0" on="1"/>
        <pt x="608" y="475" on="1"/>
        <pt x="600" y="475" on="1"/>
        <pt x="379" y="47" on="1"/>
        <pt x="292" y="46" on="1"/>
        <pt x="238" y="476" on="1"/>
        <pt x="230" y="476" on="1"/>
        <pt x="147" y="0" on="1"/>
        <pt x="41" y="0" on="1"/>
        <pt x="160" y="616" on="1"/>
      </contour>
    </TTGlyph>
    <TTGlyph name="M.sc" xMin="31" yMin="0" xMax="665" yMax="533">
      <contour>
        <pt x="287" y="533" on="1"/>
        <pt x="332" y="203" on="1"/>
        <pt x="335" y="203" on="1"/>
        <pt x="509" y="530" on="1"/>
        <pt x="665" y="530" on="1"/>
        <pt x="563" y="0" on="1"/>
        <pt x="451" y="0" on="1"/>
        <pt x="534" y="390" on="1"/>
        <pt x="527" y="390" on="1"/>
        <pt x="340" y="40" on="1"/>
        <pt x="261" y="39" on="1"/>
        <pt x="210" y="390" on="1"/>
        <pt x="203" y="390" on="1"/>
        <pt x="136" y="0" on="1"/>
        <pt x="31" y="0" on="1"/>
        <pt x="133" y="527" on="1"/>
      </contour>
    </TTGlyph>
    <TTGlyph name="N" xMin="41" yMin="0" xMax="634" yMax="623">
      <contour>
        <pt x="392" y="0" on="1"/>
        <pt x="242" y="465" on="1"/>
        <pt x="233" y="465" on="1"/>
        <pt x="146" y="0" on="1"/>
        <pt x="41" y="0" on="1"/>
        <pt x="160" y="616" on="1"/>
        <pt x="302" y="623" on="1"/>
        <pt x="441" y="192" on="1"/>
        <pt x="449" y="192" on="1"/>
        <pt x="529" y="620" on="1"/>
        <pt x="634" y="620" on="1"/>
        <pt x="514" y="0" on="1"/>
      </contour>
    </TTGlyph>
    <TTGlyph name="N.sc" xMin="31" yMin="0" xMax="570" yMax="532">
      <contour>
        <pt x="349" y="0" on="1"/>
        <pt x="214" y="381" on="1"/>
        <pt x="207" y="381" on="1"/>
        <pt x="136" y="0" on="1"/>
        <pt x="31" y="0" on="1"/>
        <pt x="133" y="527" on="1"/>
        <pt x="267" y="532" on="1"/>
        <pt x="393" y="176" on="1"/>
        <pt x="399" y="176" on="1"/>
        <pt x="466" y="530" on="1"/>
        <pt x="570" y="530" on="1"/>
        <pt x="467" y="0" on="1"/>
      </contour>
    </TTGlyph>
    <TTGlyph name="Nacute" xMin="41" yMin="0" xMax="634" yMax="902">
      <contour>
        <pt x="312" y="737" on="1"/>
        <pt x="331" y="748" on="0"/>
        <pt x="388" y="787" on="0"/>
        <pt x="448" y="833" on="0"/>
        <pt x="506" y="881" on="0"/>
        <pt x="528" y="902" on="1"/>
        <pt x="603" y="808" on="1"/>
        <pt x="578" y="790" on="0"/>
        <pt x="505" y="752" on="0"/>
        <pt x="429" y="718" on="0"/>
        <pt x="357" y="692" on="0"/>
        <pt x="333" y="685" on="1"/>
      </contour>
      <contour>
        <pt x="392" y="0" on="1"/>
        <pt x="242" y="465" on="1"/>
        <pt x="233" y="465" on="1"/>
        <pt x="146" y="0" on="1"/>
        <pt x="41" y="0" on="1"/>
        <pt x="160" y="616" on="1"/>
        <pt x="302" y="623" on="1"/>
        <pt x="441" y="192" on="1"/>
        <pt x="449" y="192" on="1"/>
        <pt x="529" y="620" on="1"/>
        <pt x="634" y="620" on="1"/>
        <pt x="514" y="0" on="1"/>
      </contour>
    </TTGlyph>
    <TTGlyph name="Nacute.sc" xMin="31" yMin="0" xMax="570" yMax="811">
      <contour>
        <pt x="259" y="646" on="1"/>
        <pt x="278" y="657" on="0"/>
        <pt x="335" y="696" on="0"/>
        <pt x="395" y="742" on="0"/>
        <pt x="453" y="790" on="0"/>
        <pt x="475" y="811" on="1"/>
        <pt x="550" y="717" on="1"/>
        <pt x="525" y="699" on="0"/>
        <pt x="452" y="661" on="0"/>
        <pt x="376" y="627" on="0"/>
        <pt x="304" y="601" on="0"/>
        <pt x="280" y="594" on="1"/>
      </contour>
      <contour>
        <pt x="349" y="0" on="1"/>
        <pt x="214" y="381" on="1"/>
        <pt x="207" y="381" on="1"/>
        <pt x="136" y="0" on="1"/>
        <pt x="31" y="0" on="1"/>
        <pt x="133" y="527" on="1"/>
        <pt x="267" y="532" on="1"/>
        <pt x="393" y="176" on="1"/>
        <pt x="399" y="176" on="1"/>
        <pt x="466" y="530" on="1"/>
        <pt x="570" y="530" on="1"/>
        <pt x="467" y="0" on="1"/>
      </contour>
    </TTGlyph>
    <TTGlyph name="Ncaron" xMin="41" yMin="0" xMax="634" yMax="888">
      <contour>
        <pt x="416" y="676" on="1"/>
        <pt x="274" y="823" on="1"/>
        <pt x="355" y="888" on="1"/>
        <pt x="440" y="791" on="1"/>
        <pt x="571" y="884" on="1"/>
        <pt x="622" y="824" on="1"/>
      </contour>
      <contour>
        <pt x="392" y="0" on="1"/>
        <pt x="242" y="465" on="1"/>
        <pt x="233" y="465" on="1"/>
        <pt x="146" y="0" on="1"/>
        <pt x="41" y="0" on="1"/>
        <pt x="160" y="616" on="1"/>
        <pt x="302" y="623" on="1"/>
        <pt x="441" y="192" on="1"/>
        <pt x="449" y="192" on="1"/>
        <pt x="529" y="620" on="1"/>
        <pt x="634" y="620" on="1"/>
        <pt x="514" y="0" on="1"/>
      </contour>
    </TTGlyph>
    <TTGlyph name="Ncaron.sc" xMin="31" yMin="0" xMax="570" yMax="797">
      <contour>
        <pt x="362" y="585" on="1"/>
        <pt x="220" y="732" on="1"/>
        <pt x="301" y="797" on="1"/>
        <pt x="386" y="700" on="1"/>
        <pt x="517" y="793" on="1"/>
        <pt x="568" y="733" on="1"/>
      </contour>
      <contour>
        <pt x="349" y="0" on="1"/>
        <pt x="214" y="381" on="1"/>
        <pt x="207" y="381" on="1"/>
        <pt x="136" y="0" on="1"/>
        <pt x="31" y="0" on="1"/>
        <pt x="133" y="527" on="1"/>
        <pt x="267" y="532" on="1"/>
        <pt x="393" y="176" on="1"/>
        <pt x="399" y="176" on="1"/>
        <pt x="466" y="530" on="1"/>
        <pt x="570" y="530" on="1"/>
        <pt x="467" y="0" on="1"/>
      </contour>
    </TTGlyph>
    <TTGlyph name="Ncommaaccent" xMin="41" yMin="-280" xMax="634" yMax="623">
      <contour>
        <pt x="392" y="0" on="1"/>
        <pt x="242" y="465" on="1"/>
        <pt x="233" y="465" on="1"/>
        <pt x="146" y="0" on="1"/>
        <pt x="41" y="0" on="1"/>
        <pt x="160" y="616" on="1"/>
        <pt x="302" y="623" on="1"/>
        <pt x="441" y="192" on="1"/>
        <pt x="449" y="192" on="1"/>
        <pt x="529" y="620" on="1"/>
        <pt x="634" y="620" on="1"/>
        <pt x="514" y="0" on="1"/>
      </contour>
      <contour>
        <pt x="169" y="-259" on="1"/>
        <pt x="184" y="-225" on="0"/>
        <pt x="199" y="-139" on="0"/>
        <pt x="199" y="-102" on="1"/>
        <pt x="199" y="-95" on="0"/>
        <pt x="199" y="-80" on="0"/>
        <pt x="198" y="-73" on="1"/>
        <pt x="342" y="-70" on="1"/>
        <pt x="332" y="-132" on="0"/>
        <pt x="259" y="-248" on="0"/>
        <pt x="215" y="-280" on="1"/>
      </contour>
    </TTGlyph>
    <TTGlyph name="Ncommaaccent.sc" xMin="31" yMin="-280" xMax="570" yMax="532">
      <contour>
        <pt x="349" y="0" on="1"/>
        <pt x="214" y="381" on="1"/>
        <pt x="207" y="381" on="1"/>
        <pt x="136" y="0" on="1"/>
        <pt x="31" y="0" on="1"/>
        <pt x="133" y="527" on="1"/>
        <pt x="267" y="532" on="1"/>
        <pt x="393" y="176" on="1"/>
        <pt x="399" y="176" on="1"/>
        <pt x="466" y="530" on="1"/>
        <pt x="570" y="530" on="1"/>
        <pt x="467" y="0" on="1"/>
      </contour>
      <contour>
        <pt x="133" y="-259" on="1"/>
        <pt x="148" y="-225" on="0"/>
        <pt x="163" y="-139" on="0"/>
        <pt x="163" y="-102" on="1"/>
        <pt x="163" y="-95" on="0"/>
        <pt x="163" y="-80" on="0"/>
        <pt x="162" y="-73" on="1"/>
        <pt x="306" y="-70" on="1"/>
        <pt x="296" y="-132" on="0"/>
        <pt x="223" y="-248" on="0"/>
        <pt x="179" y="-280" on="1"/>
      </contour>
    </TTGlyph>
    <TTGlyph name="Ntilde" xMin="41" yMin="0" xMax="634" yMax="869">
      <contour>
        <pt x="510" y="784" on="1"/>
        <pt x="521" y="784" on="0"/>
        <pt x="556" y="822" on="0"/>
        <pt x="580" y="859" on="1"/>
        <pt x="633" y="825" on="1"/>
        <pt x="601" y="770" on="0"/>
        <pt x="519" y="692" on="0"/>
        <pt x="483" y="692" on="1"/>
        <pt x="461" y="692" on="0"/>
        <pt x="425" y="719" on="0"/>
        <pt x="396" y="750" on="0"/>
        <pt x="371" y="777" on="0"/>
        <pt x="361" y="777" on="1"/>
        <pt x="351" y="777" on="0"/>
        <pt x="316" y="739" on="0"/>
        <pt x="293" y="702" on="1"/>
        <pt x="239" y="736" on="1"/>
        <pt x="271" y="791" on="0"/>
        <pt x="354" y="869" on="0"/>
        <pt x="390" y="869" on="1"/>
        <pt x="412" y="869" on="0"/>
        <pt x="447" y="842" on="0"/>
        <pt x="476" y="811" on="0"/>
        <pt x="500" y="784" on="0"/>
      </contour>
      <contour>
        <pt x="392" y="0" on="1"/>
        <pt x="242" y="465" on="1"/>
        <pt x="233" y="465" on="1"/>
        <pt x="146" y="0" on="1"/>
        <pt x="41" y="0" on="1"/>
        <pt x="160" y="616" on="1"/>
        <pt x="302" y="623" on="1"/>
        <pt x="441" y="192" on="1"/>
        <pt x="449" y="192" on="1"/>
        <pt x="529" y="620" on="1"/>
        <pt x="634" y="620" on="1"/>
        <pt x="514" y="0" on="1"/>
      </contour>
    </TTGlyph>
    <TTGlyph name="Ntilde.sc" xMin="31" yMin="0" xMax="579" yMax="778">
      <contour>
        <pt x="456" y="693" on="1"/>
        <pt x="467" y="693" on="0"/>
        <pt x="502" y="731" on="0"/>
        <pt x="526" y="768" on="1"/>
        <pt x="579" y="734" on="1"/>
        <pt x="547" y="679" on="0"/>
        <pt x="465" y="601" on="0"/>
        <pt x="429" y="601" on="1"/>
        <pt x="407" y="601" on="0"/>
        <pt x="371" y="628" on="0"/>
        <pt x="342" y="659" on="0"/>
        <pt x="317" y="686" on="0"/>
        <pt x="307" y="686" on="1"/>
        <pt x="297" y="686" on="0"/>
        <pt x="262" y="648" on="0"/>
        <pt x="239" y="611" on="1"/>
        <pt x="185" y="645" on="1"/>
        <pt x="217" y="700" on="0"/>
        <pt x="300" y="778" on="0"/>
        <pt x="336" y="778" on="1"/>
        <pt x="358" y="778" on="0"/>
        <pt x="393" y="751" on="0"/>
        <pt x="422" y="720" on="0"/>
        <pt x="446" y="693" on="0"/>
      </contour>
      <contour>
        <pt x="349" y="0" on="1"/>
        <pt x="214" y="381" on="1"/>
        <pt x="207" y="381" on="1"/>
        <pt x="136" y="0" on="1"/>
        <pt x="31" y="0" on="1"/>
        <pt x="133" y="527" on="1"/>
        <pt x="267" y="532" on="1"/>
        <pt x="393" y="176" on="1"/>
        <pt x="399" y="176" on="1"/>
        <pt x="466" y="530" on="1"/>
        <pt x="570" y="530" on="1"/>
        <pt x="467" y="0" on="1"/>
      </contour>
    </TTGlyph>
    <TTGlyph name="O" xMin="57" yMin="-14" xMax="605" yMax="634">
      <contour>
        <pt x="390" y="634" on="1"/>
        <pt x="484" y="634" on="0"/>
        <pt x="605" y="503" on="0"/>
        <pt x="605" y="384" on="1"/>
        <pt x="605" y="303" on="0"/>
        <pt x="553" y="158" on="0"/>
        <pt x="463" y="50" on="0"/>
        <pt x="341" y="-14" on="0"/>
        <pt x="272" y="-14" on="1"/>
        <pt x="178" y="-14" on="0"/>
        <pt x="57" y="117" on="0"/>
        <pt x="57" y="236" on="1"/>
        <pt x="57" y="317" on="0"/>
        <pt x="109" y="462" on="0"/>
        <pt x="199" y="570" on="0"/>
        <pt x="321" y="634" on="0"/>
      </contour>
      <contour>
        <pt x="301" y="88" on="1"/>
        <pt x="347" y="88" on="0"/>
        <pt x="418" y="135" on="0"/>
        <pt x="466" y="212" on="0"/>
        <pt x="491" y="311" on="0"/>
        <pt x="491" y="363" on="1"/>
        <pt x="491" y="450" on="0"/>
        <pt x="413" y="532" on="0"/>
        <pt x="361" y="532" on="1"/>
        <pt x="315" y="532" on="0"/>
        <pt x="244" y="485" on="0"/>
        <pt x="196" y="408" on="0"/>
        <pt x="171" y="309" on="0"/>
        <pt x="171" y="257" on="1"/>
        <pt x="171" y="170" on="0"/>
        <pt x="249" y="88" on="0"/>
      </contour>
    </TTGlyph>
    <TTGlyph name="O.sc" xMin="42" yMin="-12" xMax="539" yMax="542">
      <contour>
        <pt x="338" y="542" on="1"/>
        <pt x="425" y="542" on="0"/>
        <pt x="539" y="427" on="0"/>
        <pt x="539" y="324" on="1"/>
        <pt x="539" y="257" on="0"/>
        <pt x="493" y="135" on="0"/>
        <pt x="414" y="43" on="0"/>
        <pt x="305" y="-12" on="0"/>
        <pt x="243" y="-12" on="1"/>
        <pt x="156" y="-12" on="0"/>
        <pt x="42" y="103" on="0"/>
        <pt x="42" y="206" on="1"/>
        <pt x="42" y="273" on="0"/>
        <pt x="88" y="395" on="0"/>
        <pt x="167" y="487" on="0"/>
        <pt x="276" y="542" on="0"/>
      </contour>
      <contour>
        <pt x="268" y="83" on="1"/>
        <pt x="307" y="83" on="0"/>
        <pt x="366" y="122" on="0"/>
        <pt x="405" y="185" on="0"/>
        <pt x="425" y="266" on="0"/>
        <pt x="425" y="309" on="1"/>
        <pt x="425" y="380" on="0"/>
        <pt x="358" y="447" on="0"/>
        <pt x="313" y="447" on="1"/>
        <pt x="274" y="447" on="0"/>
        <pt x="215" y="408" on="0"/>
        <pt x="176" y="345" on="0"/>
        <pt x="156" y="264" on="0"/>
        <pt x="156" y="221" on="1"/>
        <pt x="156" y="150" on="0"/>
        <pt x="224" y="83" on="0"/>
      </contour>
    </TTGlyph>
    <TTGlyph name="OE" xMin="55" yMin="0" xMax="832" yMax="620">
      <contour>
        <pt x="169" y="270" on="1"/>
        <pt x="169" y="193" on="0"/>
        <pt x="264" y="104" on="0"/>
        <pt x="373" y="102" on="1"/>
        <pt x="453" y="518" on="1"/>
        <pt x="319" y="517" on="0"/>
        <pt x="169" y="380" on="0"/>
      </contour>
      <contour>
        <pt x="737" y="102" on="1"/>
        <pt x="707" y="0" on="1"/>
        <pt x="394" y="0" on="1"/>
        <pt x="232" y="0" on="0"/>
        <pt x="55" y="129" on="0"/>
        <pt x="55" y="259" on="1"/>
        <pt x="55" y="334" on="0"/>
        <pt x="115" y="467" on="0"/>
        <pt x="236" y="564" on="0"/>
        <pt x="422" y="620" on="0"/>
        <pt x="547" y="620" on="1"/>
        <pt x="832" y="620" on="1"/>
        <pt x="812" y="518" on="1"/>
        <pt x="568" y="518" on="1"/>
        <pt x="537" y="355" on="1"/>
        <pt x="746" y="355" on="1"/>
        <pt x="728" y="267" on="1"/>
        <pt x="520" y="267" on="1"/>
        <pt x="488" y="102" on="1"/>
      </contour>
    </TTGlyph>
    <TTGlyph name="OE.sc" xMin="44" yMin="0" xMax="753" yMax="530">
      <contour>
        <pt x="674" y="93" on="1"/>
        <pt x="646" y="0" on="1"/>
        <pt x="341" y="0" on="1"/>
        <pt x="279" y="0" on="0"/>
        <pt x="170" y="23" on="0"/>
        <pt x="90" y="76" on="0"/>
        <pt x="44" y="161" on="0"/>
        <pt x="44" y="223" on="1"/>
        <pt x="44" y="287" on="0"/>
        <pt x="93" y="400" on="0"/>
        <pt x="193" y="482" on="0"/>
        <pt x="348" y="530" on="0"/>
        <pt x="454" y="530" on="1"/>
        <pt x="753" y="530" on="1"/>
        <pt x="735" y="437" on="1"/>
        <pt x="512" y="437" on="1"/>
        <pt x="487" y="305" on="1"/>
        <pt x="677" y="305" on="1"/>
        <pt x="661" y="226" on="1"/>
        <pt x="472" y="226" on="1"/>
        <pt x="446" y="93" on="1"/>
      </contour>
      <contour>
        <pt x="158" y="235" on="1"/>
        <pt x="158" y="158" on="0"/>
        <pt x="253" y="94" on="0"/>
        <pt x="334" y="94" on="1"/>
        <pt x="400" y="438" on="1"/>
        <pt x="333" y="437" on="0"/>
        <pt x="240" y="404" on="0"/>
        <pt x="183" y="349" on="0"/>
        <pt x="158" y="276" on="0"/>
      </contour>
    </TTGlyph>
    <TTGlyph name="Oacute" xMin="57" yMin="-14" xMax="605" yMax="913">
      <contour>
        <pt x="300" y="748" on="1"/>
        <pt x="319" y="759" on="0"/>
        <pt x="376" y="798" on="0"/>
        <pt x="436" y="844" on="0"/>
        <pt x="494" y="892" on="0"/>
        <pt x="516" y="913" on="1"/>
        <pt x="591" y="819" on="1"/>
        <pt x="566" y="801" on="0"/>
        <pt x="493" y="763" on="0"/>
        <pt x="417" y="729" on="0"/>
        <pt x="345" y="703" on="0"/>
        <pt x="321" y="696" on="1"/>
      </contour>
      <contour>
        <pt x="390" y="634" on="1"/>
        <pt x="484" y="634" on="0"/>
        <pt x="605" y="503" on="0"/>
        <pt x="605" y="384" on="1"/>
        <pt x="605" y="303" on="0"/>
        <pt x="553" y="158" on="0"/>
        <pt x="463" y="50" on="0"/>
        <pt x="341" y="-14" on="0"/>
        <pt x="272" y="-14" on="1"/>
        <pt x="178" y="-14" on="0"/>
        <pt x="57" y="117" on="0"/>
        <pt x="57" y="236" on="1"/>
        <pt x="57" y="317" on="0"/>
        <pt x="109" y="462" on="0"/>
        <pt x="199" y="570" on="0"/>
        <pt x="321" y="634" on="0"/>
      </contour>
      <contour>
        <pt x="301" y="88" on="1"/>
        <pt x="347" y="88" on="0"/>
        <pt x="418" y="135" on="0"/>
        <pt x="466" y="212" on="0"/>
        <pt x="491" y="311" on="0"/>
        <pt x="491" y="363" on="1"/>
        <pt x="491" y="450" on="0"/>
        <pt x="413" y="532" on="0"/>
        <pt x="361" y="532" on="1"/>
        <pt x="315" y="532" on="0"/>
        <pt x="244" y="485" on="0"/>
        <pt x="196" y="408" on="0"/>
        <pt x="171" y="309" on="0"/>
        <pt x="171" y="257" on="1"/>
        <pt x="171" y="170" on="0"/>
        <pt x="249" y="88" on="0"/>
      </contour>
    </TTGlyph>
    <TTGlyph name="Oacute.sc" xMin="42" yMin="-12" xMax="546" yMax="821">
      <contour>
        <pt x="255" y="656" on="1"/>
        <pt x="274" y="667" on="0"/>
        <pt x="331" y="706" on="0"/>
        <pt x="391" y="752" on="0"/>
        <pt x="449" y="800" on="0"/>
        <pt x="471" y="821" on="1"/>
        <pt x="546" y="727" on="1"/>
        <pt x="521" y="709" on="0"/>
        <pt x="448" y="671" on="0"/>
        <pt x="372" y="637" on="0"/>
        <pt x="300" y="611" on="0"/>
        <pt x="276" y="604" on="1"/>
      </contour>
      <contour>
        <pt x="338" y="542" on="1"/>
        <pt x="425" y="542" on="0"/>
        <pt x="539" y="427" on="0"/>
        <pt x="539" y="324" on="1"/>
        <pt x="539" y="257" on="0"/>
        <pt x="493" y="135" on="0"/>
        <pt x="414" y="43" on="0"/>
        <pt x="305" y="-12" on="0"/>
        <pt x="243" y="-12" on="1"/>
        <pt x="156" y="-12" on="0"/>
        <pt x="42" y="103" on="0"/>
        <pt x="42" y="206" on="1"/>
        <pt x="42" y="273" on="0"/>
        <pt x="88" y="395" on="0"/>
        <pt x="167" y="487" on="0"/>
        <pt x="276" y="542" on="0"/>
      </contour>
      <contour>
        <pt x="268" y="83" on="1"/>
        <pt x="307" y="83" on="0"/>
        <pt x="366" y="122" on="0"/>
        <pt x="405" y="185" on="0"/>
        <pt x="425" y="266" on="0"/>
        <pt x="425" y="309" on="1"/>
        <pt x="425" y="380" on="0"/>
        <pt x="358" y="447" on="0"/>
        <pt x="313" y="447" on="1"/>
        <pt x="274" y="447" on="0"/>
        <pt x="215" y="408" on="0"/>
        <pt x="176" y="345" on="0"/>
        <pt x="156" y="264" on="0"/>
        <pt x="156" y="221" on="1"/>
        <pt x="156" y="150" on="0"/>
        <pt x="224" y="83" on="0"/>
      </contour>
    </TTGlyph>
    <TTGlyph name="Obreve" xMin="57" yMin="-14" xMax="621" yMax="895">
      <contour>
        <pt x="555" y="886" on="1"/>
        <pt x="621" y="845" on="1"/>
        <pt x="567" y="773" on="0"/>
        <pt x="455" y="698" on="0"/>
        <pt x="405" y="698" on="1"/>
        <pt x="356" y="698" on="0"/>
        <pt x="273" y="770" on="0"/>
        <pt x="248" y="843" on="1"/>
        <pt x="335" y="895" on="1"/>
        <pt x="356" y="841" on="0"/>
        <pt x="401" y="793" on="0"/>
        <pt x="432" y="793" on="1"/>
        <pt x="461" y="793" on="0"/>
        <pt x="519" y="842" on="0"/>
      </contour>
      <contour>
        <pt x="390" y="634" on="1"/>
        <pt x="484" y="634" on="0"/>
        <pt x="605" y="503" on="0"/>
        <pt x="605" y="384" on="1"/>
        <pt x="605" y="303" on="0"/>
        <pt x="553" y="158" on="0"/>
        <pt x="463" y="50" on="0"/>
        <pt x="341" y="-14" on="0"/>
        <pt x="272" y="-14" on="1"/>
        <pt x="178" y="-14" on="0"/>
        <pt x="57" y="117" on="0"/>
        <pt x="57" y="236" on="1"/>
        <pt x="57" y="317" on="0"/>
        <pt x="109" y="462" on="0"/>
        <pt x="199" y="570" on="0"/>
        <pt x="321" y="634" on="0"/>
      </contour>
      <contour>
        <pt x="301" y="88" on="1"/>
        <pt x="347" y="88" on="0"/>
        <pt x="418" y="135" on="0"/>
        <pt x="466" y="212" on="0"/>
        <pt x="491" y="311" on="0"/>
        <pt x="491" y="363" on="1"/>
        <pt x="491" y="450" on="0"/>
        <pt x="413" y="532" on="0"/>
        <pt x="361" y="532" on="1"/>
        <pt x="315" y="532" on="0"/>
        <pt x="244" y="485" on="0"/>
        <pt x="196" y="408" on="0"/>
        <pt x="171" y="309" on="0"/>
        <pt x="171" y="257" on="1"/>
        <pt x="171" y="170" on="0"/>
        <pt x="249" y="88" on="0"/>
      </contour>
    </TTGlyph>
    <TTGlyph name="Obreve.sc" xMin="42" yMin="-12" xMax="576" yMax="803">
      <contour>
        <pt x="510" y="794" on="1"/>
        <pt x="576" y="753" on="1"/>
        <pt x="522" y="681" on="0"/>
        <pt x="410" y="606" on="0"/>
        <pt x="360" y="606" on="1"/>
        <pt x="311" y="606" on="0"/>
        <pt x="228" y="678" on="0"/>
        <pt x="203" y="751" on="1"/>
        <pt x="290" y="803" on="1"/>
        <pt x="311" y="749" on="0"/>
        <pt x="356" y="701" on="0"/>
        <pt x="387" y="701" on="1"/>
        <pt x="416" y="701" on="0"/>
        <pt x="474" y="750" on="0"/>
      </contour>
      <contour>
        <pt x="338" y="542" on="1"/>
        <pt x="425" y="542" on="0"/>
        <pt x="539" y="427" on="0"/>
        <pt x="539" y="324" on="1"/>
        <pt x="539" y="257" on="0"/>
        <pt x="493" y="135" on="0"/>
        <pt x="414" y="43" on="0"/>
        <pt x="305" y="-12" on="0"/>
        <pt x="243" y="-12" on="1"/>
        <pt x="156" y="-12" on="0"/>
        <pt x="42" y="103" on="0"/>
        <pt x="42" y="206" on="1"/>
        <pt x="42" y="273" on="0"/>
        <pt x="88" y="395" on="0"/>
        <pt x="167" y="487" on="0"/>
        <pt x="276" y="542" on="0"/>
      </contour>
      <contour>
        <pt x="268" y="83" on="1"/>
        <pt x="307" y="83" on="0"/>
        <pt x="366" y="122" on="0"/>
        <pt x="405" y="185" on="0"/>
        <pt x="425" y="266" on="0"/>
        <pt x="425" y="309" on="1"/>
        <pt x="425" y="380" on="0"/>
        <pt x="358" y="447" on="0"/>
        <pt x="313" y="447" on="1"/>
        <pt x="274" y="447" on="0"/>
        <pt x="215" y="408" on="0"/>
        <pt x="176" y="345" on="0"/>
        <pt x="156" y="264" on="0"/>
        <pt x="156" y="221" on="1"/>
        <pt x="156" y="150" on="0"/>
        <pt x="224" y="83" on="0"/>
      </contour>
    </TTGlyph>
    <TTGlyph name="Ocircumflex" xMin="57" yMin="-14" xMax="605" yMax="904">
      <contour>
        <pt x="507" y="692" on="1"/>
        <pt x="422" y="789" on="1"/>
        <pt x="291" y="696" on="1"/>
        <pt x="240" y="756" on="1"/>
        <pt x="446" y="904" on="1"/>
        <pt x="588" y="757" on="1"/>
      </contour>
      <contour>
        <pt x="390" y="634" on="1"/>
        <pt x="484" y="634" on="0"/>
        <pt x="605" y="503" on="0"/>
        <pt x="605" y="384" on="1"/>
        <pt x="605" y="303" on="0"/>
        <pt x="553" y="158" on="0"/>
        <pt x="463" y="50" on="0"/>
        <pt x="341" y="-14" on="0"/>
        <pt x="272" y="-14" on="1"/>
        <pt x="178" y="-14" on="0"/>
        <pt x="57" y="117" on="0"/>
        <pt x="57" y="236" on="1"/>
        <pt x="57" y="317" on="0"/>
        <pt x="109" y="462" on="0"/>
        <pt x="199" y="570" on="0"/>
        <pt x="321" y="634" on="0"/>
      </contour>
      <contour>
        <pt x="301" y="88" on="1"/>
        <pt x="347" y="88" on="0"/>
        <pt x="418" y="135" on="0"/>
        <pt x="466" y="212" on="0"/>
        <pt x="491" y="311" on="0"/>
        <pt x="491" y="363" on="1"/>
        <pt x="491" y="450" on="0"/>
        <pt x="413" y="532" on="0"/>
        <pt x="361" y="532" on="1"/>
        <pt x="315" y="532" on="0"/>
        <pt x="244" y="485" on="0"/>
        <pt x="196" y="408" on="0"/>
        <pt x="171" y="309" on="0"/>
        <pt x="171" y="257" on="1"/>
        <pt x="171" y="170" on="0"/>
        <pt x="249" y="88" on="0"/>
      </contour>
    </TTGlyph>
    <TTGlyph name="Ocircumflex.sc" xMin="42" yMin="-12" xMax="543" yMax="812">
      <contour>
        <pt x="462" y="600" on="1"/>
        <pt x="377" y="697" on="1"/>
        <pt x="246" y="604" on="1"/>
        <pt x="195" y="664" on="1"/>
        <pt x="401" y="812" on="1"/>
        <pt x="543" y="665" on="1"/>
      </contour>
      <contour>
        <pt x="338" y="542" on="1"/>
        <pt x="425" y="542" on="0"/>
        <pt x="539" y="427" on="0"/>
        <pt x="539" y="324" on="1"/>
        <pt x="539" y="257" on="0"/>
        <pt x="493" y="135" on="0"/>
        <pt x="414" y="43" on="0"/>
        <pt x="305" y="-12" on="0"/>
        <pt x="243" y="-12" on="1"/>
        <pt x="156" y="-12" on="0"/>
        <pt x="42" y="103" on="0"/>
        <pt x="42" y="206" on="1"/>
        <pt x="42" y="273" on="0"/>
        <pt x="88" y="395" on="0"/>
        <pt x="167" y="487" on="0"/>
        <pt x="276" y="542" on="0"/>
      </contour>
      <contour>
        <pt x="268" y="83" on="1"/>
        <pt x="307" y="83" on="0"/>
        <pt x="366" y="122" on="0"/>
        <pt x="405" y="185" on="0"/>
        <pt x="425" y="266" on="0"/>
        <pt x="425" y="309" on="1"/>
        <pt x="425" y="380" on="0"/>
        <pt x="358" y="447" on="0"/>
        <pt x="313" y="447" on="1"/>
        <pt x="274" y="447" on="0"/>
        <pt x="215" y="408" on="0"/>
        <pt x="176" y="345" on="0"/>
        <pt x="156" y="264" on="0"/>
        <pt x="156" y="221" on="1"/>
        <pt x="156" y="150" on="0"/>
        <pt x="224" y="83" on="0"/>
      </contour>
    </TTGlyph>
    <TTGlyph name="Odieresis" xMin="57" yMin="-14" xMax="605" yMax="847">
      <contour>
        <pt x="562" y="716" on="1"/>
        <pt x="437" y="714" on="1"/>
        <pt x="469" y="844" on="1"/>
        <pt x="605" y="847" on="1"/>
      </contour>
      <contour>
        <pt x="362" y="715" on="1"/>
        <pt x="236" y="712" on="1"/>
        <pt x="269" y="843" on="1"/>
        <pt x="404" y="845" on="1"/>
      </contour>
      <contour>
        <pt x="390" y="634" on="1"/>
        <pt x="484" y="634" on="0"/>
        <pt x="605" y="503" on="0"/>
        <pt x="605" y="384" on="1"/>
        <pt x="605" y="303" on="0"/>
        <pt x="553" y="158" on="0"/>
        <pt x="463" y="50" on="0"/>
        <pt x="341" y="-14" on="0"/>
        <pt x="272" y="-14" on="1"/>
        <pt x="178" y="-14" on="0"/>
        <pt x="57" y="117" on="0"/>
        <pt x="57" y="236" on="1"/>
        <pt x="57" y="317" on="0"/>
        <pt x="109" y="462" on="0"/>
        <pt x="199" y="570" on="0"/>
        <pt x="321" y="634" on="0"/>
      </contour>
      <contour>
        <pt x="301" y="88" on="1"/>
        <pt x="347" y="88" on="0"/>
        <pt x="418" y="135" on="0"/>
        <pt x="466" y="212" on="0"/>
        <pt x="491" y="311" on="0"/>
        <pt x="491" y="363" on="1"/>
        <pt x="491" y="450" on="0"/>
        <pt x="413" y="532" on="0"/>
        <pt x="361" y="532" on="1"/>
        <pt x="315" y="532" on="0"/>
        <pt x="244" y="485" on="0"/>
        <pt x="196" y="408" on="0"/>
        <pt x="171" y="309" on="0"/>
        <pt x="171" y="257" on="1"/>
        <pt x="171" y="170" on="0"/>
        <pt x="249" y="88" on="0"/>
      </contour>
    </TTGlyph>
    <TTGlyph name="Odieresis.sc" xMin="42" yMin="-12" xMax="560" yMax="755">
      <contour>
        <pt x="517" y="624" on="1"/>
        <pt x="392" y="622" on="1"/>
        <pt x="424" y="752" on="1"/>
        <pt x="560" y="755" on="1"/>
      </contour>
      <contour>
        <pt x="317" y="623" on="1"/>
        <pt x="191" y="620" on="1"/>
        <pt x="224" y="751" on="1"/>
        <pt x="359" y="753" on="1"/>
      </contour>
      <contour>
        <pt x="338" y="542" on="1"/>
        <pt x="425" y="542" on="0"/>
        <pt x="539" y="427" on="0"/>
        <pt x="539" y="324" on="1"/>
        <pt x="539" y="257" on="0"/>
        <pt x="493" y="135" on="0"/>
        <pt x="414" y="43" on="0"/>
        <pt x="305" y="-12" on="0"/>
        <pt x="243" y="-12" on="1"/>
        <pt x="156" y="-12" on="0"/>
        <pt x="42" y="103" on="0"/>
        <pt x="42" y="206" on="1"/>
        <pt x="42" y="273" on="0"/>
        <pt x="88" y="395" on="0"/>
        <pt x="167" y="487" on="0"/>
        <pt x="276" y="542" on="0"/>
      </contour>
      <contour>
        <pt x="268" y="83" on="1"/>
        <pt x="307" y="83" on="0"/>
        <pt x="366" y="122" on="0"/>
        <pt x="405" y="185" on="0"/>
        <pt x="425" y="266" on="0"/>
        <pt x="425" y="309" on="1"/>
        <pt x="425" y="380" on="0"/>
        <pt x="358" y="447" on="0"/>
        <pt x="313" y="447" on="1"/>
        <pt x="274" y="447" on="0"/>
        <pt x="215" y="408" on="0"/>
        <pt x="176" y="345" on="0"/>
        <pt x="156" y="264" on="0"/>
        <pt x="156" y="221" on="1"/>
        <pt x="156" y="150" on="0"/>
        <pt x="224" y="83" on="0"/>
      </contour>
    </TTGlyph>
    <TTGlyph name="Ograve" xMin="57" yMin="-14" xMax="605" yMax="916">
      <contour>
        <pt x="506" y="742" on="1"/>
        <pt x="480" y="692" on="1"/>
        <pt x="457" y="701" on="0"/>
        <pt x="393" y="731" on="0"/>
        <pt x="325" y="767" on="0"/>
        <pt x="260" y="805" on="0"/>
        <pt x="236" y="820" on="1"/>
        <pt x="305" y="916" on="1"/>
        <pt x="327" y="895" on="0"/>
        <pt x="381" y="845" on="0"/>
        <pt x="435" y="798" on="0"/>
        <pt x="487" y="756" on="0"/>
      </contour>
      <contour>
        <pt x="390" y="634" on="1"/>
        <pt x="484" y="634" on="0"/>
        <pt x="605" y="503" on="0"/>
        <pt x="605" y="384" on="1"/>
        <pt x="605" y="303" on="0"/>
        <pt x="553" y="158" on="0"/>
        <pt x="463" y="50" on="0"/>
        <pt x="341" y="-14" on="0"/>
        <pt x="272" y="-14" on="1"/>
        <pt x="178" y="-14" on="0"/>
        <pt x="57" y="117" on="0"/>
        <pt x="57" y="236" on="1"/>
        <pt x="57" y="317" on="0"/>
        <pt x="109" y="462" on="0"/>
        <pt x="199" y="570" on="0"/>
        <pt x="321" y="634" on="0"/>
      </contour>
      <contour>
        <pt x="301" y="88" on="1"/>
        <pt x="347" y="88" on="0"/>
        <pt x="418" y="135" on="0"/>
        <pt x="466" y="212" on="0"/>
        <pt x="491" y="311" on="0"/>
        <pt x="491" y="363" on="1"/>
        <pt x="491" y="450" on="0"/>
        <pt x="413" y="532" on="0"/>
        <pt x="361" y="532" on="1"/>
        <pt x="315" y="532" on="0"/>
        <pt x="244" y="485" on="0"/>
        <pt x="196" y="408" on="0"/>
        <pt x="171" y="309" on="0"/>
        <pt x="171" y="257" on="1"/>
        <pt x="171" y="170" on="0"/>
        <pt x="249" y="88" on="0"/>
      </contour>
    </TTGlyph>
    <TTGlyph name="Ograve.sc" xMin="42" yMin="-12" xMax="539" yMax="824">
      <contour>
        <pt x="461" y="650" on="1"/>
        <pt x="435" y="600" on="1"/>
        <pt x="412" y="609" on="0"/>
        <pt x="348" y="639" on="0"/>
        <pt x="280" y="675" on="0"/>
        <pt x="215" y="713" on="0"/>
        <pt x="191" y="728" on="1"/>
        <pt x="260" y="824" on="1"/>
        <pt x="282" y="803" on="0"/>
        <pt x="336" y="753" on="0"/>
        <pt x="390" y="706" on="0"/>
        <pt x="442" y="664" on="0"/>
      </contour>
      <contour>
        <pt x="338" y="542" on="1"/>
        <pt x="425" y="542" on="0"/>
        <pt x="539" y="427" on="0"/>
        <pt x="539" y="324" on="1"/>
        <pt x="539" y="257" on="0"/>
        <pt x="493" y="135" on="0"/>
        <pt x="414" y="43" on="0"/>
        <pt x="305" y="-12" on="0"/>
        <pt x="243" y="-12" on="1"/>
        <pt x="156" y="-12" on="0"/>
        <pt x="42" y="103" on="0"/>
        <pt x="42" y="206" on="1"/>
        <pt x="42" y="273" on="0"/>
        <pt x="88" y="395" on="0"/>
        <pt x="167" y="487" on="0"/>
        <pt x="276" y="542" on="0"/>
      </contour>
      <contour>
        <pt x="268" y="83" on="1"/>
        <pt x="307" y="83" on="0"/>
        <pt x="366" y="122" on="0"/>
        <pt x="405" y="185" on="0"/>
        <pt x="425" y="266" on="0"/>
        <pt x="425" y="309" on="1"/>
        <pt x="425" y="380" on="0"/>
        <pt x="358" y="447" on="0"/>
        <pt x="313" y="447" on="1"/>
        <pt x="274" y="447" on="0"/>
        <pt x="215" y="408" on="0"/>
        <pt x="176" y="345" on="0"/>
        <pt x="156" y="264" on="0"/>
        <pt x="156" y="221" on="1"/>
        <pt x="156" y="150" on="0"/>
        <pt x="224" y="83" on="0"/>
      </contour>
    </TTGlyph>
    <TTGlyph name="Ohungarumlaut" xMin="57" yMin="-14" xMax="652" yMax="938">
      <contour>
        <pt x="287" y="700" on="1"/>
        <pt x="235" y="743" on="1"/>
        <pt x="250" y="762" on="0"/>
        <pt x="284" y="813" on="0"/>
        <pt x="316" y="866" on="0"/>
        <pt x="346" y="918" on="0"/>
        <pt x="356" y="938" on="1"/>
        <pt x="462" y="878" on="1"/>
        <pt x="447" y="859" on="0"/>
        <pt x="404" y="812" on="0"/>
        <pt x="357" y="764" on="0"/>
        <pt x="309" y="718" on="0"/>
      </contour>
      <contour>
        <pt x="479" y="699" on="1"/>
        <pt x="426" y="742" on="1"/>
        <pt x="455" y="781" on="0"/>
        <pt x="521" y="887" on="0"/>
        <pt x="541" y="928" on="1"/>
        <pt x="652" y="878" on="1"/>
        <pt x="621" y="838" on="0"/>
        <pt x="523" y="735" on="0"/>
      </contour>
      <contour>
        <pt x="390" y="634" on="1"/>
        <pt x="484" y="634" on="0"/>
        <pt x="605" y="503" on="0"/>
        <pt x="605" y="384" on="1"/>
        <pt x="605" y="303" on="0"/>
        <pt x="553" y="158" on="0"/>
        <pt x="463" y="50" on="0"/>
        <pt x="341" y="-14" on="0"/>
        <pt x="272" y="-14" on="1"/>
        <pt x="178" y="-14" on="0"/>
        <pt x="57" y="117" on="0"/>
        <pt x="57" y="236" on="1"/>
        <pt x="57" y="317" on="0"/>
        <pt x="109" y="462" on="0"/>
        <pt x="199" y="570" on="0"/>
        <pt x="321" y="634" on="0"/>
      </contour>
      <contour>
        <pt x="301" y="88" on="1"/>
        <pt x="347" y="88" on="0"/>
        <pt x="418" y="135" on="0"/>
        <pt x="466" y="212" on="0"/>
        <pt x="491" y="311" on="0"/>
        <pt x="491" y="363" on="1"/>
        <pt x="491" y="450" on="0"/>
        <pt x="413" y="532" on="0"/>
        <pt x="361" y="532" on="1"/>
        <pt x="315" y="532" on="0"/>
        <pt x="244" y="485" on="0"/>
        <pt x="196" y="408" on="0"/>
        <pt x="171" y="309" on="0"/>
        <pt x="171" y="257" on="1"/>
        <pt x="171" y="170" on="0"/>
        <pt x="249" y="88" on="0"/>
      </contour>
    </TTGlyph>
    <TTGlyph name="Ohungarumlaut.sc" xMin="42" yMin="-12" xMax="607" yMax="846">
      <contour>
        <pt x="242" y="608" on="1"/>
        <pt x="190" y="651" on="1"/>
        <pt x="205" y="670" on="0"/>
        <pt x="239" y="721" on="0"/>
        <pt x="271" y="774" on="0"/>
        <pt x="301" y="826" on="0"/>
        <pt x="311" y="846" on="1"/>
        <pt x="417" y="786" on="1"/>
        <pt x="402" y="767" on="0"/>
        <pt x="359" y="720" on="0"/>
        <pt x="312" y="672" on="0"/>
        <pt x="264" y="626" on="0"/>
      </contour>
      <contour>
        <pt x="434" y="607" on="1"/>
        <pt x="381" y="650" on="1"/>
        <pt x="410" y="689" on="0"/>
        <pt x="476" y="795" on="0"/>
        <pt x="496" y="836" on="1"/>
        <pt x="607" y="786" on="1"/>
        <pt x="576" y="746" on="0"/>
        <pt x="478" y="643" on="0"/>
      </contour>
      <contour>
        <pt x="338" y="542" on="1"/>
        <pt x="425" y="542" on="0"/>
        <pt x="539" y="427" on="0"/>
        <pt x="539" y="324" on="1"/>
        <pt x="539" y="257" on="0"/>
        <pt x="493" y="135" on="0"/>
        <pt x="414" y="43" on="0"/>
        <pt x="305" y="-12" on="0"/>
        <pt x="243" y="-12" on="1"/>
        <pt x="156" y="-12" on="0"/>
        <pt x="42" y="103" on="0"/>
        <pt x="42" y="206" on="1"/>
        <pt x="42" y="273" on="0"/>
        <pt x="88" y="395" on="0"/>
        <pt x="167" y="487" on="0"/>
        <pt x="276" y="542" on="0"/>
      </contour>
      <contour>
        <pt x="268" y="83" on="1"/>
        <pt x="307" y="83" on="0"/>
        <pt x="366" y="122" on="0"/>
        <pt x="405" y="185" on="0"/>
        <pt x="425" y="266" on="0"/>
        <pt x="425" y="309" on="1"/>
        <pt x="425" y="380" on="0"/>
        <pt x="358" y="447" on="0"/>
        <pt x="313" y="447" on="1"/>
        <pt x="274" y="447" on="0"/>
        <pt x="215" y="408" on="0"/>
        <pt x="176" y="345" on="0"/>
        <pt x="156" y="264" on="0"/>
        <pt x="156" y="221" on="1"/>
        <pt x="156" y="150" on="0"/>
        <pt x="224" y="83" on="0"/>
      </contour>
    </TTGlyph>
    <TTGlyph name="Omacron" xMin="57" yMin="-14" xMax="605" yMax="829">
      <contour>
        <pt x="591" y="829" on="1"/>
        <pt x="571" y="728" on="1"/>
        <pt x="249" y="728" on="1"/>
        <pt x="269" y="829" on="1"/>
      </contour>
      <contour>
        <pt x="390" y="634" on="1"/>
        <pt x="484" y="634" on="0"/>
        <pt x="605" y="503" on="0"/>
        <pt x="605" y="384" on="1"/>
        <pt x="605" y="303" on="0"/>
        <pt x="553" y="158" on="0"/>
        <pt x="463" y="50" on="0"/>
        <pt x="341" y="-14" on="0"/>
        <pt x="272" y="-14" on="1"/>
        <pt x="178" y="-14" on="0"/>
        <pt x="57" y="117" on="0"/>
        <pt x="57" y="236" on="1"/>
        <pt x="57" y="317" on="0"/>
        <pt x="109" y="462" on="0"/>
        <pt x="199" y="570" on="0"/>
        <pt x="321" y="634" on="0"/>
      </contour>
      <contour>
        <pt x="301" y="88" on="1"/>
        <pt x="347" y="88" on="0"/>
        <pt x="418" y="135" on="0"/>
        <pt x="466" y="212" on="0"/>
        <pt x="491" y="311" on="0"/>
        <pt x="491" y="363" on="1"/>
        <pt x="491" y="450" on="0"/>
        <pt x="413" y="532" on="0"/>
        <pt x="361" y="532" on="1"/>
        <pt x="315" y="532" on="0"/>
        <pt x="244" y="485" on="0"/>
        <pt x="196" y="408" on="0"/>
        <pt x="171" y="309" on="0"/>
        <pt x="171" y="257" on="1"/>
        <pt x="171" y="170" on="0"/>
        <pt x="249" y="88" on="0"/>
      </contour>
    </TTGlyph>
    <TTGlyph name="Omacron.sc" xMin="42" yMin="-12" xMax="546" yMax="737">
      <contour>
        <pt x="546" y="737" on="1"/>
        <pt x="526" y="636" on="1"/>
        <pt x="204" y="636" on="1"/>
        <pt x="224" y="737" on="1"/>
      </contour>
      <contour>
        <pt x="338" y="542" on="1"/>
        <pt x="425" y="542" on="0"/>
        <pt x="539" y="427" on="0"/>
        <pt x="539" y="324" on="1"/>
        <pt x="539" y="257" on="0"/>
        <pt x="493" y="135" on="0"/>
        <pt x="414" y="43" on="0"/>
        <pt x="305" y="-12" on="0"/>
        <pt x="243" y="-12" on="1"/>
        <pt x="156" y="-12" on="0"/>
        <pt x="42" y="103" on="0"/>
        <pt x="42" y="206" on="1"/>
        <pt x="42" y="273" on="0"/>
        <pt x="88" y="395" on="0"/>
        <pt x="167" y="487" on="0"/>
        <pt x="276" y="542" on="0"/>
      </contour>
      <contour>
        <pt x="268" y="83" on="1"/>
        <pt x="307" y="83" on="0"/>
        <pt x="366" y="122" on="0"/>
        <pt x="405" y="185" on="0"/>
        <pt x="425" y="266" on="0"/>
        <pt x="425" y="309" on="1"/>
        <pt x="425" y="380" on="0"/>
        <pt x="358" y="447" on="0"/>
        <pt x="313" y="447" on="1"/>
        <pt x="274" y="447" on="0"/>
        <pt x="215" y="408" on="0"/>
        <pt x="176" y="345" on="0"/>
        <pt x="156" y="264" on="0"/>
        <pt x="156" y="221" on="1"/>
        <pt x="156" y="150" on="0"/>
        <pt x="224" y="83" on="0"/>
      </contour>
    </TTGlyph>
    <TTGlyph name="Omega" xMin="10" yMin="0" xMax="577" yMax="634">
      <contour>
        <pt x="239" y="6" on="1"/>
        <pt x="236" y="0" on="1"/>
        <pt x="10" y="0" on="1"/>
        <pt x="30" y="102" on="1"/>
        <pt x="144" y="102" on="1"/>
        <pt x="128" y="156" on="0"/>
        <pt x="107" y="274" on="0"/>
        <pt x="107" y="328" on="1"/>
        <pt x="107" y="403" on="0"/>
        <pt x="149" y="519" on="0"/>
        <pt x="220" y="595" on="0"/>
        <pt x="316" y="634" on="0"/>
        <pt x="369" y="634" on="1"/>
        <pt x="462" y="634" on="0"/>
        <pt x="577" y="524" on="0"/>
        <pt x="577" y="430" on="1"/>
        <pt x="577" y="359" on="0"/>
        <pt x="508" y="186" on="0"/>
        <pt x="451" y="102" on="1"/>
        <pt x="550" y="102" on="1"/>
        <pt x="530" y="0" on="1"/>
        <pt x="314" y="0" on="1"/>
        <pt x="311" y="6" on="1"/>
        <pt x="387" y="133" on="0"/>
        <pt x="466" y="336" on="0"/>
        <pt x="466" y="400" on="1"/>
        <pt x="466" y="462" on="0"/>
        <pt x="403" y="526" on="0"/>
        <pt x="354" y="526" on="1"/>
        <pt x="290" y="526" on="0"/>
        <pt x="208" y="412" on="0"/>
        <pt x="208" y="287" on="1"/>
        <pt x="208" y="234" on="0"/>
        <pt x="223" y="83" on="0"/>
      </contour>
    </TTGlyph>
    <TTGlyph name="Oslash" xMin="16" yMin="-34" xMax="641" yMax="656">
      <contour>
        <pt x="171" y="257" on="1"/>
        <pt x="171" y="241" on="0"/>
        <pt x="174" y="213" on="0"/>
        <pt x="176" y="201" on="1"/>
        <pt x="441" y="502" on="1"/>
        <pt x="425" y="517" on="0"/>
        <pt x="383" y="532" on="0"/>
        <pt x="361" y="532" on="1"/>
        <pt x="315" y="532" on="0"/>
        <pt x="244" y="485" on="0"/>
        <pt x="196" y="408" on="0"/>
        <pt x="171" y="309" on="0"/>
      </contour>
      <contour>
        <pt x="301" y="88" on="1"/>
        <pt x="347" y="88" on="0"/>
        <pt x="418" y="135" on="0"/>
        <pt x="466" y="212" on="0"/>
        <pt x="491" y="311" on="0"/>
        <pt x="491" y="363" on="1"/>
        <pt x="491" y="381" on="0"/>
        <pt x="487" y="413" on="0"/>
        <pt x="484" y="426" on="1"/>
        <pt x="216" y="122" on="1"/>
        <pt x="233" y="105" on="0"/>
        <pt x="277" y="88" on="0"/>
      </contour>
      <contour>
        <pt x="272" y="-14" on="1"/>
        <pt x="232" y="-14" on="0"/>
        <pt x="164" y="10" on="0"/>
        <pt x="138" y="32" on="1"/>
        <pt x="80" y="-34" on="1"/>
        <pt x="16" y="18" on="1"/>
        <pt x="86" y="98" on="1"/>
        <pt x="72" y="126" on="0"/>
        <pt x="57" y="196" on="0"/>
        <pt x="57" y="236" on="1"/>
        <pt x="57" y="317" on="0"/>
        <pt x="109" y="462" on="0"/>
        <pt x="199" y="570" on="0"/>
        <pt x="321" y="634" on="0"/>
        <pt x="390" y="634" on="1"/>
        <pt x="427" y="634" on="0"/>
        <pt x="494" y="612" on="0"/>
        <pt x="520" y="592" on="1"/>
        <pt x="576" y="656" on="1"/>
        <pt x="641" y="604" on="1"/>
        <pt x="573" y="527" on="1"/>
        <pt x="589" y="499" on="0"/>
        <pt x="605" y="427" on="0"/>
        <pt x="605" y="384" on="1"/>
        <pt x="605" y="303" on="0"/>
        <pt x="553" y="158" on="0"/>
        <pt x="463" y="50" on="0"/>
        <pt x="341" y="-14" on="0"/>
      </contour>
    </TTGlyph>
    <TTGlyph name="Oslash.sc" xMin="-1" yMin="-39" xMax="574" yMax="572">
      <contour>
        <pt x="156" y="221" on="1"/>
        <pt x="156" y="211" on="0"/>
        <pt x="158" y="193" on="0"/>
        <pt x="159" y="185" on="1"/>
        <pt x="378" y="426" on="1"/>
        <pt x="364" y="436" on="0"/>
        <pt x="331" y="447" on="0"/>
        <pt x="313" y="447" on="1"/>
        <pt x="274" y="447" on="0"/>
        <pt x="215" y="408" on="0"/>
        <pt x="176" y="345" on="0"/>
        <pt x="156" y="264" on="0"/>
      </contour>
      <contour>
        <pt x="268" y="83" on="1"/>
        <pt x="307" y="83" on="0"/>
        <pt x="366" y="122" on="0"/>
        <pt x="405" y="185" on="0"/>
        <pt x="425" y="266" on="0"/>
        <pt x="425" y="309" on="1"/>
        <pt x="425" y="321" on="0"/>
        <pt x="422" y="343" on="0"/>
        <pt x="421" y="353" on="1"/>
        <pt x="198" y="109" on="1"/>
        <pt x="212" y="96" on="0"/>
        <pt x="249" y="83" on="0"/>
      </contour>
      <contour>
        <pt x="243" y="-12" on="1"/>
        <pt x="208" y="-12" on="0"/>
        <pt x="146" y="7" on="0"/>
        <pt x="121" y="26" on="1"/>
        <pt x="61" y="-39" on="1"/>
        <pt x="-1" y="13" on="1"/>
        <pt x="68" y="88" on="1"/>
        <pt x="55" y="112" on="0"/>
        <pt x="42" y="172" on="0"/>
        <pt x="42" y="206" on="1"/>
        <pt x="42" y="273" on="0"/>
        <pt x="88" y="395" on="0"/>
        <pt x="167" y="487" on="0"/>
        <pt x="276" y="542" on="0"/>
        <pt x="338" y="542" on="1"/>
        <pt x="371" y="542" on="0"/>
        <pt x="430" y="525" on="0"/>
        <pt x="454" y="509" on="1"/>
        <pt x="512" y="572" on="1"/>
        <pt x="574" y="519" on="1"/>
        <pt x="509" y="450" on="1"/>
        <pt x="523" y="425" on="0"/>
        <pt x="539" y="361" on="0"/>
        <pt x="539" y="324" on="1"/>
        <pt x="539" y="257" on="0"/>
        <pt x="493" y="135" on="0"/>
        <pt x="414" y="43" on="0"/>
        <pt x="305" y="-12" on="0"/>
      </contour>
    </TTGlyph>
    <TTGlyph name="Oslashacute" xMin="16" yMin="-34" xMax="641" yMax="913">
      <contour>
        <pt x="300" y="748" on="1"/>
        <pt x="319" y="759" on="0"/>
        <pt x="376" y="798" on="0"/>
        <pt x="436" y="844" on="0"/>
        <pt x="494" y="892" on="0"/>
        <pt x="516" y="913" on="1"/>
        <pt x="591" y="819" on="1"/>
        <pt x="566" y="801" on="0"/>
        <pt x="493" y="763" on="0"/>
        <pt x="417" y="729" on="0"/>
        <pt x="345" y="703" on="0"/>
        <pt x="321" y="696" on="1"/>
      </contour>
      <contour>
        <pt x="171" y="257" on="1"/>
        <pt x="171" y="241" on="0"/>
        <pt x="174" y="213" on="0"/>
        <pt x="176" y="201" on="1"/>
        <pt x="441" y="502" on="1"/>
        <pt x="425" y="517" on="0"/>
        <pt x="383" y="532" on="0"/>
        <pt x="361" y="532" on="1"/>
        <pt x="315" y="532" on="0"/>
        <pt x="244" y="485" on="0"/>
        <pt x="196" y="408" on="0"/>
        <pt x="171" y="309" on="0"/>
      </contour>
      <contour>
        <pt x="301" y="88" on="1"/>
        <pt x="347" y="88" on="0"/>
        <pt x="418" y="135" on="0"/>
        <pt x="466" y="212" on="0"/>
        <pt x="491" y="311" on="0"/>
        <pt x="491" y="363" on="1"/>
        <pt x="491" y="381" on="0"/>
        <pt x="487" y="413" on="0"/>
        <pt x="484" y="426" on="1"/>
        <pt x="216" y="122" on="1"/>
        <pt x="233" y="105" on="0"/>
        <pt x="277" y="88" on="0"/>
      </contour>
      <contour>
        <pt x="272" y="-14" on="1"/>
        <pt x="232" y="-14" on="0"/>
        <pt x="164" y="10" on="0"/>
        <pt x="138" y="32" on="1"/>
        <pt x="80" y="-34" on="1"/>
        <pt x="16" y="18" on="1"/>
        <pt x="86" y="98" on="1"/>
        <pt x="72" y="126" on="0"/>
        <pt x="57" y="196" on="0"/>
        <pt x="57" y="236" on="1"/>
        <pt x="57" y="317" on="0"/>
        <pt x="109" y="462" on="0"/>
        <pt x="199" y="570" on="0"/>
        <pt x="321" y="634" on="0"/>
        <pt x="390" y="634" on="1"/>
        <pt x="427" y="634" on="0"/>
        <pt x="494" y="612" on="0"/>
        <pt x="520" y="592" on="1"/>
        <pt x="576" y="656" on="1"/>
        <pt x="641" y="604" on="1"/>
        <pt x="573" y="527" on="1"/>
        <pt x="589" y="499" on="0"/>
        <pt x="605" y="427" on="0"/>
        <pt x="605" y="384" on="1"/>
        <pt x="605" y="303" on="0"/>
        <pt x="553" y="158" on="0"/>
        <pt x="463" y="50" on="0"/>
        <pt x="341" y="-14" on="0"/>
      </contour>
    </TTGlyph>
    <TTGlyph name="Oslashacute.sc" xMin="-1" yMin="-39" xMax="574" yMax="821">
      <contour>
        <pt x="245" y="656" on="1"/>
        <pt x="264" y="667" on="0"/>
        <pt x="321" y="706" on="0"/>
        <pt x="381" y="752" on="0"/>
        <pt x="439" y="800" on="0"/>
        <pt x="461" y="821" on="1"/>
        <pt x="536" y="727" on="1"/>
        <pt x="511" y="709" on="0"/>
        <pt x="438" y="671" on="0"/>
        <pt x="362" y="637" on="0"/>
        <pt x="290" y="611" on="0"/>
        <pt x="266" y="604" on="1"/>
      </contour>
      <contour>
        <pt x="156" y="221" on="1"/>
        <pt x="156" y="211" on="0"/>
        <pt x="158" y="193" on="0"/>
        <pt x="159" y="185" on="1"/>
        <pt x="378" y="426" on="1"/>
        <pt x="364" y="436" on="0"/>
        <pt x="331" y="447" on="0"/>
        <pt x="313" y="447" on="1"/>
        <pt x="274" y="447" on="0"/>
        <pt x="215" y="408" on="0"/>
        <pt x="176" y="345" on="0"/>
        <pt x="156" y="264" on="0"/>
      </contour>
      <contour>
        <pt x="268" y="83" on="1"/>
        <pt x="307" y="83" on="0"/>
        <pt x="366" y="122" on="0"/>
        <pt x="405" y="185" on="0"/>
        <pt x="425" y="266" on="0"/>
        <pt x="425" y="309" on="1"/>
        <pt x="425" y="321" on="0"/>
        <pt x="422" y="343" on="0"/>
        <pt x="421" y="353" on="1"/>
        <pt x="198" y="109" on="1"/>
        <pt x="212" y="96" on="0"/>
        <pt x="249" y="83" on="0"/>
      </contour>
      <contour>
        <pt x="243" y="-12" on="1"/>
        <pt x="208" y="-12" on="0"/>
        <pt x="146" y="7" on="0"/>
        <pt x="121" y="26" on="1"/>
        <pt x="61" y="-39" on="1"/>
        <pt x="-1" y="13" on="1"/>
        <pt x="68" y="88" on="1"/>
        <pt x="55" y="112" on="0"/>
        <pt x="42" y="172" on="0"/>
        <pt x="42" y="206" on="1"/>
        <pt x="42" y="273" on="0"/>
        <pt x="88" y="395" on="0"/>
        <pt x="167" y="487" on="0"/>
        <pt x="276" y="542" on="0"/>
        <pt x="338" y="542" on="1"/>
        <pt x="371" y="542" on="0"/>
        <pt x="430" y="525" on="0"/>
        <pt x="454" y="509" on="1"/>
        <pt x="512" y="572" on="1"/>
        <pt x="574" y="519" on="1"/>
        <pt x="509" y="450" on="1"/>
        <pt x="523" y="425" on="0"/>
        <pt x="539" y="361" on="0"/>
        <pt x="539" y="324" on="1"/>
        <pt x="539" y="257" on="0"/>
        <pt x="493" y="135" on="0"/>
        <pt x="414" y="43" on="0"/>
        <pt x="305" y="-12" on="0"/>
      </contour>
    </TTGlyph>
    <TTGlyph name="Otilde" xMin="57" yMin="-14" xMax="621" yMax="880">
      <contour>
        <pt x="498" y="795" on="1"/>
        <pt x="509" y="795" on="0"/>
        <pt x="544" y="833" on="0"/>
        <pt x="568" y="870" on="1"/>
        <pt x="621" y="836" on="1"/>
        <pt x="589" y="781" on="0"/>
        <pt x="507" y="703" on="0"/>
        <pt x="471" y="703" on="1"/>
        <pt x="449" y="703" on="0"/>
        <pt x="413" y="730" on="0"/>
        <pt x="384" y="761" on="0"/>
        <pt x="359" y="788" on="0"/>
        <pt x="349" y="788" on="1"/>
        <pt x="339" y="788" on="0"/>
        <pt x="304" y="750" on="0"/>
        <pt x="281" y="713" on="1"/>
        <pt x="227" y="747" on="1"/>
        <pt x="259" y="802" on="0"/>
        <pt x="342" y="880" on="0"/>
        <pt x="378" y="880" on="1"/>
        <pt x="400" y="880" on="0"/>
        <pt x="435" y="853" on="0"/>
        <pt x="464" y="822" on="0"/>
        <pt x="488" y="795" on="0"/>
      </contour>
      <contour>
        <pt x="390" y="634" on="1"/>
        <pt x="484" y="634" on="0"/>
        <pt x="605" y="503" on="0"/>
        <pt x="605" y="384" on="1"/>
        <pt x="605" y="303" on="0"/>
        <pt x="553" y="158" on="0"/>
        <pt x="463" y="50" on="0"/>
        <pt x="341" y="-14" on="0"/>
        <pt x="272" y="-14" on="1"/>
        <pt x="178" y="-14" on="0"/>
        <pt x="57" y="117" on="0"/>
        <pt x="57" y="236" on="1"/>
        <pt x="57" y="317" on="0"/>
        <pt x="109" y="462" on="0"/>
        <pt x="199" y="570" on="0"/>
        <pt x="321" y="634" on="0"/>
      </contour>
      <contour>
        <pt x="301" y="88" on="1"/>
        <pt x="347" y="88" on="0"/>
        <pt x="418" y="135" on="0"/>
        <pt x="466" y="212" on="0"/>
        <pt x="491" y="311" on="0"/>
        <pt x="491" y="363" on="1"/>
        <pt x="491" y="450" on="0"/>
        <pt x="413" y="532" on="0"/>
        <pt x="361" y="532" on="1"/>
        <pt x="315" y="532" on="0"/>
        <pt x="244" y="485" on="0"/>
        <pt x="196" y="408" on="0"/>
        <pt x="171" y="309" on="0"/>
        <pt x="171" y="257" on="1"/>
        <pt x="171" y="170" on="0"/>
        <pt x="249" y="88" on="0"/>
      </contour>
    </TTGlyph>
    <TTGlyph name="Otilde.sc" xMin="42" yMin="-12" xMax="576" yMax="788">
      <contour>
        <pt x="453" y="703" on="1"/>
        <pt x="464" y="703" on="0"/>
        <pt x="499" y="741" on="0"/>
        <pt x="523" y="778" on="1"/>
        <pt x="576" y="744" on="1"/>
        <pt x="544" y="689" on="0"/>
        <pt x="462" y="611" on="0"/>
        <pt x="426" y="611" on="1"/>
        <pt x="404" y="611" on="0"/>
        <pt x="368" y="638" on="0"/>
        <pt x="339" y="669" on="0"/>
        <pt x="314" y="696" on="0"/>
        <pt x="304" y="696" on="1"/>
        <pt x="294" y="696" on="0"/>
        <pt x="259" y="658" on="0"/>
        <pt x="236" y="621" on="1"/>
        <pt x="182" y="655" on="1"/>
        <pt x="214" y="710" on="0"/>
        <pt x="297" y="788" on="0"/>
        <pt x="333" y="788" on="1"/>
        <pt x="355" y="788" on="0"/>
        <pt x="390" y="761" on="0"/>
        <pt x="419" y="730" on="0"/>
        <pt x="443" y="703" on="0"/>
      </contour>
      <contour>
        <pt x="338" y="542" on="1"/>
        <pt x="425" y="542" on="0"/>
        <pt x="539" y="427" on="0"/>
        <pt x="539" y="324" on="1"/>
        <pt x="539" y="257" on="0"/>
        <pt x="493" y="135" on="0"/>
        <pt x="414" y="43" on="0"/>
        <pt x="305" y="-12" on="0"/>
        <pt x="243" y="-12" on="1"/>
        <pt x="156" y="-12" on="0"/>
        <pt x="42" y="103" on="0"/>
        <pt x="42" y="206" on="1"/>
        <pt x="42" y="273" on="0"/>
        <pt x="88" y="395" on="0"/>
        <pt x="167" y="487" on="0"/>
        <pt x="276" y="542" on="0"/>
      </contour>
      <contour>
        <pt x="268" y="83" on="1"/>
        <pt x="307" y="83" on="0"/>
        <pt x="366" y="122" on="0"/>
        <pt x="405" y="185" on="0"/>
        <pt x="425" y="266" on="0"/>
        <pt x="425" y="309" on="1"/>
        <pt x="425" y="380" on="0"/>
        <pt x="358" y="447" on="0"/>
        <pt x="313" y="447" on="1"/>
        <pt x="274" y="447" on="0"/>
        <pt x="215" y="408" on="0"/>
        <pt x="176" y="345" on="0"/>
        <pt x="156" y="264" on="0"/>
        <pt x="156" y="221" on="1"/>
        <pt x="156" y="150" on="0"/>
        <pt x="224" y="83" on="0"/>
      </contour>
    </TTGlyph>
    <TTGlyph name="P" xMin="41" yMin="0" xMax="547" yMax="627">
      <contour>
        <pt x="156" y="0" on="1"/>
        <pt x="41" y="0" on="1"/>
        <pt x="160" y="617" on="1"/>
        <pt x="195" y="622" on="0"/>
        <pt x="258" y="627" on="0"/>
        <pt x="286" y="627" on="1"/>
        <pt x="423" y="627" on="0"/>
        <pt x="547" y="525" on="0"/>
        <pt x="547" y="450" on="1"/>
        <pt x="547" y="345" on="0"/>
        <pt x="357" y="202" on="0"/>
        <pt x="191" y="180" on="1"/>
      </contour>
      <contour>
        <pt x="252" y="289" on="1"/>
        <pt x="342" y="289" on="0"/>
        <pt x="434" y="372" on="0"/>
        <pt x="434" y="429" on="1"/>
        <pt x="434" y="475" on="0"/>
        <pt x="362" y="531" on="0"/>
        <pt x="296" y="531" on="1"/>
        <pt x="287" y="531" on="0"/>
        <pt x="268" y="530" on="0"/>
        <pt x="258" y="529" on="1"/>
        <pt x="212" y="291" on="1"/>
        <pt x="222" y="290" on="0"/>
        <pt x="242" y="289" on="0"/>
      </contour>
    </TTGlyph>
    <TTGlyph name="P.sc" xMin="31" yMin="0" xMax="495" yMax="536">
      <contour>
        <pt x="145" y="0" on="1"/>
        <pt x="31" y="0" on="1"/>
        <pt x="133" y="528" on="1"/>
        <pt x="165" y="532" on="0"/>
        <pt x="224" y="536" on="0"/>
        <pt x="250" y="536" on="1"/>
        <pt x="378" y="536" on="0"/>
        <pt x="495" y="448" on="0"/>
        <pt x="495" y="380" on="1"/>
        <pt x="495" y="291" on="0"/>
        <pt x="325" y="169" on="0"/>
        <pt x="174" y="150" on="1"/>
      </contour>
      <contour>
        <pt x="226" y="248" on="1"/>
        <pt x="304" y="248" on="0"/>
        <pt x="383" y="315" on="0"/>
        <pt x="383" y="361" on="1"/>
        <pt x="383" y="400" on="0"/>
        <pt x="319" y="447" on="0"/>
        <pt x="262" y="447" on="1"/>
        <pt x="255" y="447" on="0"/>
        <pt x="239" y="447" on="0"/>
        <pt x="231" y="446" on="1"/>
        <pt x="193" y="249" on="1"/>
        <pt x="201" y="248" on="0"/>
        <pt x="219" y="248" on="0"/>
      </contour>
    </TTGlyph>
    <TTGlyph name="Q" xMin="67" yMin="-158" xMax="592" yMax="634">
      <contour>
        <pt x="460" y="-158" on="1"/>
        <pt x="144" y="-10" on="1"/>
        <pt x="177" y="75" on="1"/>
        <pt x="242" y="96" on="0"/>
        <pt x="351" y="164" on="0"/>
        <pt x="430" y="247" on="0"/>
        <pt x="474" y="344" on="0"/>
        <pt x="474" y="395" on="1"/>
        <pt x="474" y="458" on="0"/>
        <pt x="405" y="534" on="0"/>
        <pt x="345" y="534" on="1"/>
        <pt x="275" y="534" on="0"/>
        <pt x="183" y="425" on="0"/>
        <pt x="183" y="312" on="1"/>
        <pt x="183" y="280" on="0"/>
        <pt x="191" y="206" on="0"/>
        <pt x="200" y="165" on="1"/>
        <pt x="102" y="126" on="1"/>
        <pt x="84" y="167" on="0"/>
        <pt x="67" y="250" on="0"/>
        <pt x="67" y="290" on="1"/>
        <pt x="67" y="360" on="0"/>
        <pt x="115" y="486" on="0"/>
        <pt x="198" y="579" on="0"/>
        <pt x="311" y="634" on="0"/>
        <pt x="376" y="634" on="1"/>
        <pt x="430" y="634" on="0"/>
        <pt x="511" y="598" on="0"/>
        <pt x="565" y="538" on="0"/>
        <pt x="592" y="456" on="0"/>
        <pt x="592" y="410" on="1"/>
        <pt x="592" y="354" on="0"/>
        <pt x="550" y="247" on="0"/>
        <pt x="475" y="151" on="0"/>
        <pt x="369" y="68" on="0"/>
        <pt x="306" y="37" on="1"/>
        <pt x="509" y="-54" on="1"/>
      </contour>
    </TTGlyph>
    <TTGlyph name="Q.sc" xMin="48" yMin="-135" xMax="528" yMax="542">
      <contour>
        <pt x="414" y="-135" on="1"/>
        <pt x="116" y="-13" on="1"/>
        <pt x="145" y="66" on="1"/>
        <pt x="203" y="84" on="0"/>
        <pt x="301" y="140" on="0"/>
        <pt x="371" y="211" on="0"/>
        <pt x="410" y="293" on="0"/>
        <pt x="410" y="336" on="1"/>
        <pt x="410" y="389" on="0"/>
        <pt x="350" y="447" on="0"/>
        <pt x="299" y="447" on="1"/>
        <pt x="239" y="447" on="0"/>
        <pt x="161" y="360" on="0"/>
        <pt x="161" y="271" on="1"/>
        <pt x="161" y="244" on="0"/>
        <pt x="170" y="181" on="0"/>
        <pt x="178" y="145" on="1"/>
        <pt x="82" y="108" on="1"/>
        <pt x="65" y="145" on="0"/>
        <pt x="48" y="218" on="0"/>
        <pt x="48" y="253" on="1"/>
        <pt x="48" y="312" on="0"/>
        <pt x="91" y="417" on="0"/>
        <pt x="165" y="496" on="0"/>
        <pt x="268" y="542" on="0"/>
        <pt x="327" y="542" on="1"/>
        <pt x="377" y="542" on="0"/>
        <pt x="452" y="511" on="0"/>
        <pt x="502" y="458" on="0"/>
        <pt x="528" y="386" on="0"/>
        <pt x="528" y="346" on="1"/>
        <pt x="528" y="298" on="0"/>
        <pt x="490" y="207" on="0"/>
        <pt x="423" y="127" on="0"/>
        <pt x="328" y="58" on="0"/>
        <pt x="272" y="32" on="1"/>
        <pt x="456" y="-40" on="1"/>
      </contour>
    </TTGlyph>
</ttFont>
